<svg width="2962" height="2962" viewBox="0 0 2962 2962" fill="none" xmlns="http://www.w3.org/2000/svg">
<rect x="69.8997" y="69.8997" width="2822.05" height="2822.05" rx="1411.03" fill="white"/>
<rect x="69.8997" y="69.8997" width="2822.05" height="2822.05" rx="1411.03" stroke="#DDBF8A" stroke-width="139.799"/>
<path d="M1445.47 1336.36C1447.96 1343.21 1449.83 1349.43 1449.83 1356.89V1681.57C1449.83 1712.67 1438.01 1742.52 1416.86 1765.54L1243.33 1955.24L1031.85 1743.77L1107.73 1667.88L1281.89 912.79C1285.69 896.177 1295.47 881.546 1309.38 871.693C1323.28 861.84 1340.33 857.457 1357.26 859.381C1374.19 861.305 1389.82 869.402 1401.16 882.123C1412.5 894.845 1418.75 911.299 1418.73 928.34V1236.85C1408.59 1234.09 1398.14 1232.62 1387.63 1232.49C1319.21 1232.49 1263.23 1288.47 1263.23 1356.89V1543.49C1263.23 1560.9 1276.91 1574.59 1294.33 1574.59C1311.75 1574.59 1325.43 1560.9 1325.43 1543.49V1356.89C1325.43 1322.68 1353.42 1294.69 1387.63 1294.69C1399.45 1294.69 1409.4 1299.05 1418.73 1304.64C1426.19 1309 1431.79 1314.6 1437.39 1320.82C1439.25 1323.3 1441.12 1325.79 1442.36 1328.9C1443.61 1331.39 1444.85 1333.88 1445.47 1336.36ZM858.937 1916.68L1107.73 2103.28L1180.51 2024.28L965.919 1809.7L858.937 1916.68ZM1854.12 1667.88L1679.96 912.79C1676.17 896.177 1666.38 881.546 1652.48 871.693C1638.57 861.84 1621.52 857.457 1604.59 859.381C1587.66 861.305 1572.03 869.402 1560.69 882.123C1549.35 894.845 1543.1 911.299 1543.12 928.34V1236.85C1553.08 1234.36 1563.65 1232.49 1574.22 1232.49C1642.64 1232.49 1698.62 1288.47 1698.62 1356.89V1543.49C1698.62 1560.9 1684.94 1574.59 1667.52 1574.59C1650.11 1574.59 1636.42 1560.9 1636.42 1543.49V1356.89C1636.42 1322.68 1608.43 1294.69 1574.22 1294.69C1562.41 1294.69 1552.45 1299.05 1543.12 1304.64C1535.66 1309 1530.06 1314.6 1525.09 1320.82C1523.22 1323.3 1520.73 1325.79 1519.49 1328.9C1518.25 1331.39 1517 1333.88 1516.38 1336.36C1513.89 1343.21 1512.03 1349.43 1512.03 1356.89V1681.57C1512.03 1712.67 1523.84 1742.52 1544.99 1765.54L1718.53 1955.24L1930 1743.77L1854.12 1667.88ZM1995.93 1809.7L1781.35 2024.28L1854.12 2103.28L2102.92 1916.68L1995.93 1809.7Z" fill="#DDBF8A"/>
</svg>
