<svg width="2929" height="2929" viewBox="0 0 2929 2929" fill="none" xmlns="http://www.w3.org/2000/svg">
<rect x="69.8997" y="69.8997" width="2789.04" height="2789.04" rx="1394.52" fill="white"/>
<rect x="69.8997" y="69.8997" width="2789.04" height="2789.04" rx="1394.52" stroke="#DDBF8A" stroke-width="139.799"/>
<path d="M867.478 793.042C868.862 776.217 876.678 760.574 889.301 749.364C901.924 738.155 918.381 732.243 935.251 732.858C952.122 733.472 968.106 740.566 979.879 752.664C991.653 764.762 998.31 780.932 998.466 797.813V1132.85C998.466 1145.21 1003.38 1157.06 1012.11 1165.8C1020.85 1174.54 1032.7 1179.45 1045.06 1179.45C1057.42 1179.45 1069.27 1174.54 1078.01 1165.8C1086.75 1157.06 1091.66 1145.21 1091.66 1132.85V788.121C1091.66 773.292 1097.55 759.07 1108.03 748.584C1118.52 738.098 1132.74 732.207 1147.57 732.207C1162.4 732.207 1176.62 738.098 1187.11 748.584C1197.59 759.07 1203.48 773.292 1203.48 788.121V1132.85C1203.48 1145.21 1208.39 1157.06 1217.13 1165.8C1225.87 1174.54 1237.72 1179.45 1250.08 1179.45C1262.44 1179.45 1274.29 1174.54 1283.03 1165.8C1291.77 1157.06 1296.68 1145.21 1296.68 1132.85V797.813C1296.83 780.932 1303.49 764.762 1315.26 752.664C1327.04 740.566 1343.02 733.472 1359.89 732.858C1376.76 732.243 1393.22 738.155 1405.84 749.364C1418.46 760.574 1426.28 776.217 1427.66 793.042C1430.87 838.668 1445.78 1058 1445.78 1179.52C1445.78 1280.17 1395.83 1369.18 1319.64 1423.08C1303.53 1434.49 1299.66 1446.57 1300.03 1452.68C1309.2 1592.69 1333.95 1975.89 1333.95 2036.65C1333.95 2086.08 1314.31 2133.48 1279.36 2168.44C1244.41 2203.39 1197 2223.03 1147.57 2223.03C1098.14 2223.03 1050.73 2203.39 1015.78 2168.44C980.827 2133.48 961.19 2086.08 961.19 2036.65C961.19 1975.81 985.942 1592.69 995.112 1452.68C995.484 1446.57 991.608 1434.49 975.504 1423.08C936.522 1395.54 904.719 1359.05 882.768 1316.66C860.818 1274.28 849.362 1227.25 849.362 1179.52C849.362 1058 864.272 838.668 867.478 793.042ZM1557.61 1160.88C1557.61 1047.19 1602.77 938.155 1683.16 857.763C1763.56 777.371 1872.59 732.207 1986.28 732.207C2001.11 732.207 2015.33 738.098 2025.82 748.584C2036.31 759.07 2042.2 773.292 2042.2 788.121V1421.81C2042.2 1445.52 2050.1 1563.09 2058.97 1693.33L2059.34 1699.52C2069.04 1841.77 2079.47 1996.46 2079.47 2036.65C2079.47 2086.08 2059.84 2133.48 2024.88 2168.44C1989.93 2203.39 1942.52 2223.03 1893.09 2223.03C1843.66 2223.03 1796.25 2203.39 1761.3 2168.44C1726.35 2133.48 1706.71 2086.08 1706.71 2036.65C1706.71 1998.33 1716.25 1841.99 1725.5 1698.63C1730.12 1626.24 1734.82 1556.08 1738.32 1504.05L1740.04 1477.73H1688.07C1670.94 1477.73 1653.98 1474.35 1638.15 1467.8C1622.32 1461.24 1607.94 1451.63 1595.82 1439.52C1583.71 1427.4 1574.1 1413.02 1567.54 1397.19C1560.98 1381.36 1557.61 1364.4 1557.61 1347.26V1160.88Z" fill="#DDBF8A"/>
</svg>
