<svg width="2929" height="2929" viewBox="0 0 2929 2929" fill="none" xmlns="http://www.w3.org/2000/svg">
<rect x="69.8997" y="69.8997" width="2789.04" height="2789.04" rx="1394.52" fill="white"/>
<rect x="69.8997" y="69.8997" width="2789.04" height="2789.04" rx="1394.52" stroke="#DDBF8A" stroke-width="139.799"/>
<path d="M1874.83 849.437C1874.83 736.315 1782.86 644.344 1669.74 644.344C1556.61 644.344 1464.64 736.315 1464.64 849.437C1464.64 962.559 1556.61 1054.53 1669.74 1054.53C1782.86 1054.53 1874.83 962.559 1874.83 849.437ZM1492.52 1490.35L1565.91 1591.3C1586.74 1619.82 1618.14 1638.41 1653.07 1642.89C1688 1647.38 1723.25 1637.44 1750.49 1615.01L2032.49 1384.28C2087.29 1339.42 2095.3 1258.66 2050.44 1203.86C2005.58 1149.07 1924.82 1141.05 1870.02 1185.92L1693.13 1330.77L1609.17 1215.4C1559.18 1146.5 1479.06 1105.8 1393.82 1105.8C1294.8 1105.8 1204.11 1160.6 1157.96 1248.09L1002.54 1544.51C937.808 1667.89 972.418 1819.79 1084.58 1902.78L1255.06 2028.72H977.545C906.724 2028.72 849.362 2086.09 849.362 2156.91C849.362 2227.73 906.724 2285.09 977.545 2285.09H1644.1C1699.54 2285.09 1748.57 2249.52 1765.87 2196.96C1783.18 2144.41 1764.91 2086.73 1720.37 2053.72L1348.32 1778.77L1492.52 1490.35Z" fill="#DDBF8A"/>
</svg>
