<svg width="2929" height="2929" viewBox="0 0 2929 2929" fill="none" xmlns="http://www.w3.org/2000/svg">
<rect x="69.8997" y="69.8997" width="2789.04" height="2789.04" rx="1394.52" fill="white"/>
<rect x="69.8997" y="69.8997" width="2789.04" height="2789.04" rx="1394.52" stroke="#DDBF8A" stroke-width="139.799"/>
<path d="M849.362 1024.73L926.244 949.62L1961.19 1985.75L1886.09 2061.45L1767.81 1943.17H1014.95C983.584 1943.17 953.499 1930.71 931.317 1908.53C909.136 1886.35 896.674 1856.26 896.674 1824.89V1115.21C896.674 1102.2 899.04 1089.78 902.588 1077.95L849.362 1024.73ZM1192.37 996.932L1310.65 878.652H1665.49L1783.77 996.932H1961.19C1992.56 996.932 2022.65 1009.39 2044.83 1031.58C2067.01 1053.76 2079.47 1083.84 2079.47 1115.21V1824.89C2079.47 1860.38 2064.1 1891.72 2039.26 1913.6L1744.15 1617.9C1769.58 1574.73 1783.77 1523.87 1783.77 1470.05C1783.77 1391.63 1752.62 1316.41 1697.16 1260.96C1641.71 1205.51 1566.5 1174.35 1488.07 1174.35C1434.26 1174.35 1383.4 1188.55 1340.22 1213.98L1122.59 996.932H1192.37ZM1192.37 1470.05C1192.37 1548.48 1223.53 1623.69 1278.98 1679.14C1334.44 1734.6 1409.65 1765.75 1488.07 1765.75C1517.64 1765.75 1548.99 1761.02 1576.78 1752.15L1471.51 1647.47C1430.36 1643.06 1391.96 1624.7 1362.7 1595.43C1333.43 1566.16 1315.06 1527.76 1310.65 1486.61L1205.98 1381.34C1197.1 1409.14 1192.37 1440.48 1192.37 1470.05ZM1488.07 1292.63C1535.13 1292.63 1580.26 1311.32 1613.53 1344.6C1646.8 1377.87 1665.49 1423 1665.49 1470.05C1665.52 1490.19 1662.12 1510.19 1655.44 1529.19L1428.93 1302.69C1447.93 1296 1467.93 1292.6 1488.07 1292.63Z" fill="#DDBF8A"/>
</svg>
