<svg width="2929" height="2929" viewBox="0 0 2929 2929" fill="none" xmlns="http://www.w3.org/2000/svg">
<rect x="69.8998" y="69.8998" width="2789.03" height="2789.04" rx="1394.52" fill="white"/>
<rect x="69.8998" y="69.8998" width="2789.03" height="2789.04" rx="1394.52" stroke="#DDBF8A" stroke-width="139.8"/>
<path d="M1579.74 1036.63C1567.17 1047.42 1552.23 1055.99 1535.79 1061.84C1519.35 1067.69 1501.72 1070.72 1483.91 1070.75C1447.93 1070.82 1413.41 1058.66 1387.92 1036.96C1362.43 1015.26 1348.07 985.802 1348 955.055C1347.93 924.308 1362.15 894.797 1387.53 873.012M1464.41 1070.15V1267.28M1464.41 1267.28C1568.14 1368.73 1692.03 1453.71 1830.37 1518.3C2008.74 1601.1 2079.47 1683.24 2079.47 1814.66C2074.47 1898.85 2048.25 1981.11 2002.58 2055.82H926.245C880.584 1981.11 854.358 1898.85 849.363 1814.66C849.363 1685.87 920.094 1601.1 1098.46 1518.3C1236.79 1453.71 1360.69 1368.73 1464.41 1267.28Z" stroke="#DDBF8A" stroke-width="158.293" stroke-linecap="round" stroke-linejoin="round"/>
</svg>
