<svg width="2962" height="2962" viewBox="0 0 2962 2962" fill="none" xmlns="http://www.w3.org/2000/svg">
<rect x="69.8997" y="69.8997" width="2822.05" height="2822.05" rx="1411.03" fill="white"/>
<rect x="69.8997" y="69.8997" width="2822.05" height="2822.05" rx="1411.03" stroke="#DDBF8A" stroke-width="139.799"/>
<path d="M1480.87 1045.52C1431.38 1045.52 1383.92 1065.18 1348.93 1100.18C1313.93 1135.17 1294.27 1182.63 1294.27 1232.12V1356.52C1294.27 1406 1313.93 1453.47 1348.93 1488.46C1383.92 1523.45 1431.38 1543.11 1480.87 1543.11C1530.36 1543.11 1577.82 1523.45 1612.81 1488.46C1647.81 1453.47 1667.47 1406 1667.47 1356.52V1232.12C1667.47 1182.63 1647.81 1135.17 1612.81 1100.18C1577.82 1065.18 1530.36 1045.52 1480.87 1045.52Z" stroke="#DDBF8A" stroke-width="93.298"/>
<path d="M1667.53 1356.62C1667.53 1512.11 1647.62 1630.29 1435.34 1729.81C1223.05 1829.33 1169.94 1968.22 1169.94 2040.8" stroke="#DDBF8A" stroke-width="93.298"/>
<path d="M1294.27 1232.1H1667.47" stroke="#DDBF8A" stroke-width="93.298" stroke-linecap="round"/>
<path d="M1841.82 1202.21C1841.82 1012.57 1680.29 858.938 1480.94 858.938C1281.6 858.938 1120.07 1012.57 1120.07 1202.21C1120.07 1332.7 1074.16 1572.29 924.764 1756.77C878.302 1814.18 855.101 1842.86 859.455 1869.29C863.934 1895.73 888.813 1911.9 938.572 1944.24C1264.24 2155.78 1697.64 2155.78 2023.32 1944.24C2073.08 1911.9 2097.95 1895.73 2102.37 1869.29C2106.85 1842.86 2083.59 1814.18 2037.06 1756.71C1887.79 1572.29 1841.82 1332.7 1841.82 1202.21Z" stroke="#DDBF8A" stroke-width="93.298"/>
</svg>
