<svg width="1795" height="294" viewBox="0 0 1795 294" fill="none" xmlns="http://www.w3.org/2000/svg">
<path d="M417.21 188.2C413.21 188.2 410.01 187.533 407.61 186.2C406.543 185.933 406.01 185.4 406.01 184.6C406.01 184.067 406.276 183.667 406.81 183.4C407.61 183.133 408.543 183.267 409.61 183.8C411.21 184.333 412.41 184.6 413.21 184.6C416.676 184.6 420.276 183.267 424.01 180.6C427.743 177.933 430.943 174.333 433.61 169.8C436.543 165.267 438.01 160.2 438.01 154.6C438.01 151.4 437.343 147.8 436.01 143.8C434.676 140.067 432.81 136.467 430.41 133C428.01 129.267 426.01 125.667 424.41 122.2C422.276 117.667 420.676 113.533 419.61 109.8C418.81 106.067 418.41 102.467 418.41 99C418.41 90.4667 421.076 83.8 426.41 79C431.743 73.9333 438.543 70.0667 446.81 67.4C455.343 64.4667 464.276 62.3333 473.61 61C482.943 59.6667 491.476 58.4667 499.21 57.4C505.876 56.6 513.876 55.5333 523.21 54.2C532.81 52.6 542.81 51 553.21 49.4C563.61 47.5333 573.476 45.5333 582.81 43.4C592.41 41.2667 600.543 39.1333 607.21 37C614.143 34.8667 618.543 32.7333 620.41 30.6C620.943 30.0667 621.476 29.8 622.01 29.8C622.81 29.8 623.21 30.2 623.21 31C623.476 31.8 623.21 32.6 622.41 33.4C619.476 36.6 613.343 39.8 604.01 43C594.676 46.2 583.61 49.2667 570.81 52.2C558.276 55.1333 545.21 57.9333 531.61 60.6C518.01 63.2667 505.21 65.8 493.21 68.2C481.21 70.6 471.476 72.8667 464.01 75C439.743 81.6667 427.61 92.7333 427.61 108.2C427.61 114.333 429.343 120.333 432.81 126.2C436.276 131.8 439.61 137.4 442.81 143C446.276 148.6 448.01 154.333 448.01 160.2C448.01 168.467 444.543 175.267 437.61 180.6C430.943 185.667 424.143 188.2 417.21 188.2ZM412.41 260.6C401.21 260.6 391.876 258.067 384.41 253C376.943 247.667 371.343 240.867 367.61 232.6C363.876 224.333 362.01 215.4 362.01 205.8C362.01 199.4 362.81 193.267 364.41 187.4C365.21 182.067 367.076 179.4 370.01 179.4C370.81 179.4 371.21 179.933 371.21 181C371.21 182.067 370.81 183.533 370.01 185.4C369.476 187 369.343 188.067 369.61 188.6C370.41 207.8 374.943 221.933 383.21 231C391.476 239.8 401.61 244.2 413.61 244.2C430.676 244.2 448.676 236.6 467.61 221.4C474.543 215.8 481.476 209.133 488.41 201.4C495.61 193.4 502.676 184.867 509.61 175.8C506.41 176.333 503.21 177 500.01 177.8C497.076 178.6 494.143 179.4 491.21 180.2C487.476 181.267 484.01 182.2 480.81 183C477.61 183.8 474.81 184.333 472.41 184.6C471.343 184.867 470.276 185 469.21 185C468.143 185 467.21 185 466.41 185C463.476 185 461.876 184.467 461.61 183.4C461.343 182.333 461.61 181.267 462.41 180.2C464.01 178.067 466.276 176.067 469.21 174.2C472.41 172.067 475.343 170.867 478.01 170.6C483.61 169.8 489.876 168.867 496.81 167.8C503.743 166.467 510.943 165.267 518.41 164.2C528.543 150.333 538.41 136.333 548.01 122.2C557.61 108.067 566.41 95.5333 574.41 84.6C577.343 80.8667 580.01 77.4 582.41 74.2C585.076 71 587.743 67.8 590.41 64.6C593.876 60.3333 598.676 57.6667 604.81 56.6C606.143 55 608.81 52.3333 612.81 48.6C616.81 44.6 620.41 41.9333 623.61 40.6C624.676 40.0667 625.343 39.8 625.61 39.8C626.943 39.8 627.61 40.4666 627.61 41.8C627.876 42.8666 627.743 43.6667 627.21 44.2C624.81 46.0667 622.276 48.8667 619.61 52.6C616.943 56.0667 614.81 59.5333 613.21 63C606.01 78.7333 599.343 94.8667 593.21 111.4C587.076 127.933 581.343 144.6 576.01 161.4C581.876 161.667 586.276 163.267 589.21 166.2C592.41 168.867 594.01 171.667 594.01 174.6C594.01 178.333 592.81 180.467 590.41 181C588.276 181.267 587.743 180.333 588.81 178.2C589.343 177.4 589.61 176.333 589.61 175C589.61 172.867 588.143 171.133 585.21 169.8C582.276 168.467 578.543 167.667 574.01 167.4C572.143 173.267 570.01 180.733 567.61 189.8C565.476 198.867 563.743 207.533 562.41 215.8C562.143 218.2 561.876 220.467 561.61 222.6C561.61 224.467 561.61 226.2 561.61 227.8C561.61 233.933 562.543 238.333 564.41 241C566.276 243.667 568.676 245 571.61 245C575.343 245 579.476 243.533 584.01 240.6C588.81 237.4 593.476 233.667 598.01 229.4C602.543 225.133 606.276 221.133 609.21 217.4C609.743 216.867 611.21 215 613.61 211.8C616.01 208.6 618.676 205.267 621.61 201.8C624.543 198.067 626.81 195.133 628.41 193C628.676 192.467 629.343 192.467 630.41 193C631.743 193.267 632.143 193.667 631.61 194.2C625.21 203.267 618.41 212.2 611.21 221C607.743 225 603.076 230.067 597.21 236.2C591.61 242.333 585.476 247.8 578.81 252.6C572.143 257.133 565.61 259.4 559.21 259.4C558.41 259.4 557.61 259.267 556.81 259C556.01 259 555.21 258.867 554.41 258.6C550.143 257.533 547.076 254.867 545.21 250.6C543.343 246.333 542.41 241.267 542.41 235.4C542.41 232.467 542.676 229.267 543.21 225.8C543.743 222.333 544.41 218.867 545.21 215.4C547.076 208.2 549.476 200.467 552.41 192.2C555.343 183.667 558.41 175.4 561.61 167.4C560.81 167.4 560.01 167.533 559.21 167.8C558.676 167.8 558.01 167.8 557.21 167.8C550.543 168.333 543.876 169.267 537.21 170.6C530.543 171.667 525.21 172.6 521.21 173.4C511.076 188.067 500.276 202.067 488.81 215.4C477.343 228.733 465.21 239.667 452.41 248.2C439.876 256.467 426.543 260.6 412.41 260.6ZM528.41 162.6C535.076 162.067 541.343 161.667 547.21 161.4C553.343 161.133 559.076 161 564.41 161C566.543 156.2 568.41 151.8 570.01 147.8C571.876 143.533 573.343 139.8 574.41 136.6C578.943 124.867 583.076 113.933 586.81 103.8C590.543 93.6667 592.41 87.6667 592.41 85.8C592.41 85 590.81 84.8667 587.61 85.4C584.41 85.9333 580.543 88.8667 576.01 94.2C568.81 102.733 561.21 113.133 553.21 125.4C545.21 137.4 536.943 149.8 528.41 162.6ZM607.001 207.102C608.304 204.332 610.015 199.933 612.133 193.905C614.25 187.715 616.45 180.872 618.731 173.378C621.012 165.883 622.722 158.796 623.863 152.117C624.351 149.51 625.247 147.637 626.551 146.496C627.854 145.193 629.239 144.541 630.705 144.541C632.823 144.541 634.778 145.6 636.57 147.718C638.362 149.673 639.258 152.524 639.258 156.271C639.258 160.833 637.874 164.743 635.104 168.001C632.497 171.26 629.239 174.355 625.329 177.288C626.958 177.451 628.669 177.614 630.461 177.777C632.253 177.777 634.208 177.777 636.326 177.777C643.983 177.777 651.559 177.288 659.053 176.31C659.379 177.288 659.542 178.021 659.542 178.51C659.542 180.628 658.89 183.316 657.587 186.574C656.446 189.832 655.225 192.765 653.921 195.372C653.27 196.838 651.966 199.526 650.011 203.436C648.056 207.183 645.938 211.501 643.657 216.388C641.376 221.113 639.421 225.838 637.792 230.562C636.326 235.124 635.593 239.034 635.593 242.292C635.593 246.528 637.222 248.646 640.48 248.646C643.576 248.646 647.893 245.062 653.432 237.894C658.972 230.562 664.511 220.543 670.05 207.835C672.005 207.835 672.983 208.568 672.983 210.034C671.191 214.433 668.91 219.239 666.14 224.453C663.533 229.666 660.601 234.635 657.342 239.36C654.084 243.922 650.581 247.75 646.834 250.846C643.087 253.778 639.177 255.244 635.104 255.244C632.009 255.244 628.913 254.022 625.818 251.579C622.722 248.972 621.175 244.818 621.175 239.115C621.175 234.065 622.152 229.177 624.107 224.453C626.062 219.565 628.261 215.003 630.705 210.768C633.149 206.532 635.348 202.785 637.303 199.526C639.258 196.268 640.236 193.661 640.236 191.706C640.236 188.774 638.362 186.656 634.615 185.352C631.031 184.049 626.306 183.316 620.441 183.153C617.509 190.647 615.309 196.186 613.843 199.771C612.377 203.355 610.992 206.776 609.689 210.034C607.082 210.034 606.186 209.057 607.001 207.102ZM646.538 256.955C652.403 245.062 658.024 233.332 663.4 221.765C668.777 210.034 674.316 198.874 680.018 188.285C683.276 182.42 686.046 178.347 688.327 176.066C690.608 173.622 693.622 172.4 697.369 172.4C698.672 172.4 700.057 172.645 701.523 173.133C702.99 173.459 704.456 173.622 705.922 173.622C706.9 173.622 707.633 173.541 708.122 173.378C705.841 174.681 702.827 177.939 699.08 183.153C695.495 188.203 691.83 194.068 688.083 200.748C684.335 207.428 680.996 213.7 678.063 219.565C681.159 215.818 684.417 212.071 687.838 208.324C691.259 204.577 695.007 200.992 699.08 197.571C702.99 194.15 707.633 190.647 713.009 187.063C718.548 183.316 723.925 180.22 729.138 177.777C734.351 175.333 738.506 174.111 741.601 174.111C742.742 174.111 743.556 174.192 744.045 174.355C744.045 174.355 743.149 175.984 741.357 179.243C739.565 182.338 737.284 186.493 734.514 191.706C731.908 196.757 729.22 202.214 726.45 208.079C723.68 213.782 721.155 219.321 718.874 224.697C716.756 229.911 715.371 234.309 714.72 237.894C714.231 240.011 713.987 241.966 713.987 243.759C713.987 246.365 714.475 248.076 715.453 248.891C716.43 249.705 717.489 250.112 718.63 250.112C721.725 250.112 724.902 248.728 728.161 245.958C731.419 243.188 734.514 239.686 737.447 235.45C740.542 231.051 743.393 226.408 746 221.52C748.607 216.633 750.806 212.071 752.598 207.835C754.553 207.835 755.531 208.568 755.531 210.034C753.739 214.433 751.458 219.321 748.688 224.697C746.082 229.911 743.068 234.88 739.646 239.604C736.388 244.329 732.722 248.239 728.649 251.334C724.576 254.43 720.178 255.978 715.453 255.978C712.195 255.978 708.773 254.837 705.189 252.556C701.768 250.275 700.057 246.039 700.057 239.849C700.057 238.056 700.22 236.183 700.546 234.228C700.872 232.11 701.442 229.829 702.256 227.385C703.56 224.127 705.108 220.624 706.9 216.877C708.692 213.13 711.624 207.998 715.697 201.481C716.838 199.689 717.489 198.304 717.652 197.327C717.978 196.349 718.141 195.535 718.141 194.883C718.141 192.928 717.245 191.95 715.453 191.95C713.987 191.95 711.787 192.765 708.855 194.394C706.085 196.023 702.582 198.874 698.346 202.947C694.273 206.858 689.386 212.397 683.684 219.565C678.145 226.734 671.709 237.323 664.378 251.334C663.237 253.452 661.934 254.593 660.468 254.756C659.164 254.919 657.291 255.081 654.847 255.244C653.218 255.407 651.67 255.489 650.204 255.489C648.738 255.652 647.516 256.14 646.538 256.955ZM759.414 255C753.386 255 749.15 253.289 746.707 249.868C744.263 246.284 743.041 242.211 743.041 237.649C743.041 235.205 743.285 232.762 743.774 230.318C744.426 227.711 745.159 225.349 745.973 223.231L762.347 181.442C762.836 180.139 763.08 178.998 763.08 178.021C763.08 176.392 762.673 175.007 761.858 173.866C761.043 172.563 760.473 171.667 760.147 171.178L773.588 170.69C776.032 170.527 777.743 170.852 778.72 171.667C779.861 172.319 780.431 173.133 780.431 174.111C780.431 175.088 779.861 176.88 778.72 179.487C777.091 183.397 774.891 188.285 772.122 194.15C769.352 200.015 766.583 206.043 763.813 212.234C761.206 218.425 758.925 224.208 756.97 229.585C755.178 234.961 754.282 239.115 754.282 242.048C754.282 244.166 754.771 245.958 755.749 247.424C756.889 248.891 758.763 249.624 761.369 249.624C764.791 249.624 768.13 248.32 771.389 245.714C774.81 242.944 777.987 239.441 780.919 235.205C783.852 230.969 786.54 226.408 788.984 221.52C791.591 216.633 793.79 212.071 795.582 207.835C797.537 207.835 798.515 208.568 798.515 210.034C796.886 214.107 794.768 218.751 792.161 223.964C789.554 229.177 786.54 234.146 783.119 238.871C779.861 243.433 776.195 247.261 772.122 250.357C768.212 253.452 763.976 255 759.414 255ZM781.164 155.538C779.046 155.538 777.172 154.724 775.543 153.094C774.077 151.465 773.344 149.51 773.344 147.229C773.344 144.46 774.484 142.016 776.765 139.898C779.046 137.617 781.571 136.477 784.341 136.477C786.622 136.477 788.577 137.21 790.206 138.676C791.835 140.142 792.65 142.016 792.65 144.297C792.65 147.229 791.509 149.836 789.228 152.117C786.947 154.398 784.259 155.538 781.164 155.538ZM1044.87 272.2C1042.47 272.2 1040.21 270.733 1038.07 267.8C1036.21 264.867 1035.01 261.4 1034.47 257.4C1034.21 255.267 1033.94 253.133 1033.67 251C1033.67 248.6 1033.67 246.2 1033.67 243.8C1033.67 240.333 1033.81 236.733 1034.07 233C1034.61 229.267 1035.41 225.267 1036.47 221C1029.27 210.333 1021.94 199.267 1014.47 187.8C1007.27 176.067 999.674 165 991.674 154.6C983.674 144.2 975.008 135.267 965.674 127.8C964.608 127 963.674 127 962.874 127.8C962.341 128.6 962.074 129 962.074 129C960.474 133 958.074 139.133 954.874 147.4C951.941 155.4 948.208 164.6 943.674 175C939.408 185.133 934.741 195.533 929.674 206.2C924.608 216.6 919.141 226.333 913.274 235.4C907.674 244.467 902.074 251.933 896.474 257.8C888.474 265.8 879.408 269.8 869.274 269.8C862.874 269.8 856.608 267.933 850.474 264.2C844.608 260.467 839.541 255.267 835.274 248.6C831.274 241.933 828.341 234.6 826.474 226.6C824.874 218.6 823.808 211.667 823.274 205.8C823.541 203.667 824.608 202.867 826.474 203.4C827.808 209.8 829.274 215.533 830.874 220.6C832.474 225.667 835.408 230.6 839.674 235.4C848.208 245 858.074 249.8 869.274 249.8C878.608 249.8 887.541 246.333 896.074 239.4C903.008 233.8 909.008 226.733 914.074 218.2C919.408 209.667 924.208 201.267 928.474 193C930.608 188.2 933.274 181.8 936.474 173.8C939.941 165.8 943.141 157.8 946.074 149.8C949.008 141.533 951.141 135 952.474 130.2C953.008 129.133 953.274 128.2 953.274 127.4C953.274 126.333 953.274 125.267 953.274 124.2C953.274 119.4 952.074 115.4 949.674 112.2C944.341 106.333 938.208 100.067 931.274 93.4C924.608 86.7333 917.408 80.7333 909.674 75.4C901.941 69.8 893.941 66.2 885.674 64.6C884.608 64.3333 883.408 64.2 882.074 64.2C880.741 63.9333 879.408 63.8 878.074 63.8C871.141 63.8 865.141 66.4667 860.074 71.8C855.274 76.8667 852.874 85.6667 852.874 98.2C852.874 103.267 853.941 108.467 856.074 113.8C858.474 119.133 861.008 124.467 863.674 129.8C866.608 134.867 868.741 139.667 870.074 144.2C870.874 147.4 871.274 150.333 871.274 153C871.274 161.267 868.474 167.8 862.874 172.6C857.541 177.4 852.074 179.8 846.474 179.8C843.008 179.8 840.074 179 837.674 177.4C836.608 176.6 836.341 175.8 836.874 175C837.408 174.2 838.208 174.2 839.274 175C841.674 176.333 844.474 175.933 847.674 173.8C850.874 171.667 853.541 168.2 855.674 163.4C858.074 158.333 859.274 152.6 859.274 146.2C859.274 142.2 858.741 138.467 857.674 135C856.608 131.267 855.141 127.667 853.274 124.2C851.408 120.467 849.808 116.733 848.474 113C845.808 105.267 844.474 97.8 844.474 90.6C844.474 78.0667 848.341 68.0667 856.074 60.6C864.074 53.1333 873.941 49.4 885.674 49.4C894.474 49.4 903.674 52.2 913.274 57.8C922.874 63.4 931.941 70.0667 940.474 77.8C949.274 85.2667 956.608 91.8 962.474 97.4C963.274 94.7333 963.674 92.8667 963.674 91.8C963.941 90.7333 964.208 89.4 964.474 87.8C965.008 86.2 965.808 83.4 966.874 79.4C968.208 75.1333 970.208 68.6 972.874 59.8C973.941 55.5333 975.941 53.4 978.874 53.4C980.208 53.4 981.274 54.2 982.074 55.8C983.141 57.1333 983.408 59.2667 982.874 62.2C981.808 66.4667 980.208 72.2 978.074 79.4C976.208 86.6 973.541 94.7333 970.074 103.8C985.808 120.333 998.608 135.8 1008.47 150.2C1018.61 164.333 1026.21 175.933 1031.27 185C1036.34 193.8 1039.27 198.733 1040.07 199.8C1040.87 195.8 1042.47 189 1044.87 179.4C1047.54 169.8 1050.47 158.733 1053.67 146.2C1057.14 133.667 1060.74 121 1064.47 108.2C1068.47 95.1333 1072.21 83.2667 1075.67 72.6V71.8C1075.67 70.7333 1075.27 69.5333 1074.47 68.2C1073.67 66.8667 1073.41 65.8 1073.67 65C1075.54 58.8667 1077.81 53.5333 1080.47 49C1083.41 44.2 1086.07 39.5333 1088.47 35C1089.81 33.1333 1091.54 32.2 1093.67 32.2C1097.67 32.2 1100.07 33.9333 1100.87 37.4C1098.21 42.4667 1094.74 50.4667 1090.47 61.4C1086.21 72.3333 1081.67 84.8667 1076.87 99C1072.34 112.867 1067.94 127 1063.67 141.4C1059.41 155.533 1055.81 168.6 1052.87 180.6C1049.94 192.6 1048.21 201.8 1047.67 208.2C1049.81 212.467 1051.81 217.933 1053.67 224.6C1055.81 231.267 1056.87 238.2 1056.87 245.4C1056.87 252.333 1055.81 258.467 1053.67 263.8C1051.54 269.4 1048.61 272.2 1044.87 272.2ZM1156.34 255.733C1152.59 255.733 1149.25 254.674 1146.32 252.556C1143.55 250.438 1142.16 246.121 1142.16 239.604C1142.16 236.835 1142.33 234.228 1142.65 231.784C1143.14 229.34 1143.71 226.734 1144.36 223.964C1142.9 226.408 1140.86 229.422 1138.25 233.006C1135.65 236.59 1132.72 240.093 1129.46 243.514C1126.36 246.936 1123.1 249.787 1119.68 252.067C1116.42 254.348 1113.33 255.489 1110.4 255.489C1106.16 255.489 1102.74 253.615 1100.13 249.868C1097.52 245.958 1096.22 240.908 1096.22 234.717C1096.22 228.037 1097.77 220.869 1100.86 213.211C1103.96 205.554 1108.2 198.223 1113.57 191.217C1118.95 184.212 1125.14 178.51 1132.14 174.111C1139.15 169.712 1146.48 167.513 1154.14 167.513C1157.89 167.513 1161.47 168.164 1164.89 169.468C1168.31 170.608 1171.33 172.563 1173.93 175.333C1175.07 176.473 1175.64 177.777 1175.64 179.243C1175.64 180.22 1175.24 181.035 1174.42 181.687C1173.61 182.338 1172.55 182.501 1171.25 182.175C1169.45 176.473 1165.62 173.622 1159.76 173.622C1156.99 173.622 1153.81 174.518 1150.23 176.31C1145.83 178.591 1141.11 182.257 1136.05 187.307C1131.17 192.195 1126.52 197.816 1122.13 204.169C1117.89 210.36 1114.39 216.633 1111.62 222.986C1108.85 229.34 1107.46 235.124 1107.46 240.337C1107.46 245.714 1109.5 248.402 1113.57 248.402C1117.16 248.402 1120.82 246.691 1124.57 243.27C1128.48 239.849 1132.14 235.613 1135.57 230.562C1139.15 225.349 1142.41 220.217 1145.34 215.166C1148.27 210.116 1150.55 206.043 1152.18 202.947C1154.63 198.549 1156.91 194.883 1159.03 191.95C1161.14 189.018 1164.16 187.552 1168.07 187.552C1169.86 187.552 1171.65 187.796 1173.44 188.285C1175.24 188.774 1177.11 188.855 1179.07 188.529C1174.18 193.417 1169.86 199.2 1166.11 205.88C1162.53 212.56 1159.76 219.158 1157.8 225.675C1155.85 232.028 1154.87 237.405 1154.87 241.804C1154.87 246.691 1156.5 249.135 1159.76 249.135C1162.37 249.135 1165.14 247.669 1168.07 244.736C1171.16 241.804 1174.1 238.138 1176.87 233.739C1179.8 229.177 1182.49 224.616 1184.93 220.054C1187.37 215.329 1189.33 211.256 1190.8 207.835C1191.61 207.835 1192.26 207.916 1192.75 208.079C1193.4 208.242 1193.73 208.894 1193.73 210.034C1193.57 210.686 1193.24 211.419 1192.75 212.234C1192.42 212.886 1191.85 214.107 1191.04 215.899C1189.74 218.506 1187.94 222.009 1185.66 226.408C1183.38 230.807 1180.69 235.287 1177.6 239.849C1174.5 244.247 1171.16 247.994 1167.58 251.09C1164 254.185 1160.25 255.733 1156.34 255.733ZM1205.8 256.222C1199.12 256.222 1194.4 254.185 1191.63 250.112C1188.86 246.039 1187.47 241.07 1187.47 235.205C1187.47 231.132 1187.88 227.304 1188.69 223.72C1189.67 220.135 1191.06 216.062 1192.85 211.501H1192.36C1191.06 211.501 1190.4 210.849 1190.4 209.546C1190.4 208.894 1191.06 207.02 1192.36 203.925C1193.83 200.83 1195.62 197.082 1197.74 192.684C1200.02 188.285 1202.3 183.805 1204.58 179.243C1207.02 174.681 1209.22 170.608 1211.18 167.024C1214.43 160.996 1218.02 154.805 1221.93 148.451C1225.84 141.934 1229.67 135.743 1233.41 129.878C1237.32 124.013 1240.58 119.207 1243.19 115.46C1249.05 107.314 1254.51 103.241 1259.56 103.241H1260.79C1262.25 103.241 1263.88 103.486 1265.67 103.974C1267.63 104.463 1269.42 104.545 1271.05 104.219C1268.61 106.825 1264.86 111.55 1259.81 118.393C1254.92 125.072 1249.54 132.729 1243.68 141.364C1241.23 144.948 1238.14 149.754 1234.39 155.782C1230.81 161.81 1226.98 168.572 1222.91 176.066C1218.83 183.56 1215 191.217 1211.42 199.037C1208 206.695 1205.15 214.189 1202.87 221.52C1200.59 228.689 1199.45 235.124 1199.45 240.826C1199.45 244.573 1200.1 247.18 1201.4 248.646C1202.7 250.112 1204.33 250.846 1206.29 250.846C1208.73 250.846 1211.58 249.461 1214.84 246.691C1218.26 243.759 1221.68 240.011 1225.11 235.45C1228.69 230.725 1231.95 225.593 1234.88 220.054C1237.81 214.352 1240.18 208.65 1241.97 202.947C1243.92 197.082 1244.9 191.706 1244.9 186.819C1244.9 182.094 1244 178.673 1242.21 176.555C1240.58 174.437 1238.38 173.378 1235.61 173.378C1234.47 173.378 1233.33 173.704 1232.19 174.355C1231.05 174.844 1230.07 175.088 1229.26 175.088C1228.45 175.088 1228.04 174.681 1228.04 173.866C1228.04 173.052 1228.85 172.156 1230.48 171.178C1232.27 170.201 1234.88 169.712 1238.3 169.712C1241.4 169.712 1244.49 170.527 1247.59 172.156C1250.85 173.785 1253.54 176.473 1255.65 180.22C1257.77 183.805 1258.83 188.529 1258.83 194.394C1258.83 201.4 1257.2 208.568 1253.94 215.899C1250.68 223.068 1246.45 229.748 1241.23 235.939C1236.02 241.967 1230.24 246.854 1223.88 250.601C1217.69 254.348 1211.67 256.222 1205.8 256.222ZM1277.68 255C1271.66 255 1267.42 253.289 1264.98 249.868C1262.53 246.284 1261.31 242.211 1261.31 237.649C1261.31 235.205 1261.55 232.762 1262.04 230.318C1262.69 227.711 1263.43 225.349 1264.24 223.231L1280.62 181.442C1281.1 180.139 1281.35 178.998 1281.35 178.021C1281.35 176.392 1280.94 175.007 1280.13 173.866C1279.31 172.563 1278.74 171.667 1278.42 171.178L1291.86 170.69C1294.3 170.527 1296.01 170.852 1296.99 171.667C1298.13 172.319 1298.7 173.133 1298.7 174.111C1298.7 175.088 1298.13 176.88 1296.99 179.487C1295.36 183.397 1293.16 188.285 1290.39 194.15C1287.62 200.015 1284.85 206.043 1282.08 212.234C1279.48 218.425 1277.19 224.208 1275.24 229.585C1273.45 234.961 1272.55 239.115 1272.55 242.048C1272.55 244.166 1273.04 245.958 1274.02 247.424C1275.16 248.891 1277.03 249.624 1279.64 249.624C1283.06 249.624 1286.4 248.32 1289.66 245.714C1293.08 242.944 1296.26 239.441 1299.19 235.205C1302.12 230.969 1304.81 226.408 1307.25 221.52C1309.86 216.633 1312.06 212.071 1313.85 207.835C1315.81 207.835 1316.78 208.568 1316.78 210.034C1315.15 214.107 1313.04 218.751 1310.43 223.964C1307.82 229.177 1304.81 234.146 1301.39 238.871C1298.13 243.433 1294.46 247.261 1290.39 250.357C1286.48 253.452 1282.25 255 1277.68 255ZM1299.43 155.538C1297.32 155.538 1295.44 154.724 1293.81 153.094C1292.35 151.465 1291.61 149.51 1291.61 147.229C1291.61 144.46 1292.75 142.016 1295.03 139.898C1297.32 137.617 1299.84 136.477 1302.61 136.477C1304.89 136.477 1306.85 137.21 1308.48 138.676C1310.1 140.142 1310.92 142.016 1310.92 144.297C1310.92 147.229 1309.78 149.836 1307.5 152.117C1305.22 154.398 1302.53 155.538 1299.43 155.538ZM1325.28 255.733C1319.26 255.733 1314.78 253.941 1311.84 250.357C1309.07 246.61 1307.69 242.211 1307.69 237.16C1307.69 231.947 1308.42 226.571 1309.89 221.031C1311.35 215.492 1312.66 210.849 1313.8 207.102C1316.4 197.978 1319.66 188.285 1323.57 178.021C1327.65 167.594 1332.04 157.412 1336.77 147.474C1341.66 137.373 1346.46 128.331 1351.19 120.348C1354.93 113.994 1358.93 109.269 1363.16 106.174C1367.56 102.915 1371.39 101.286 1374.65 101.286C1377.25 101.286 1379.29 102.264 1380.76 104.219C1382.39 106.011 1383.2 108.78 1383.2 112.528C1383.2 115.134 1382.71 118.23 1381.74 121.814C1380.92 125.398 1379.45 129.471 1377.34 134.033C1371.63 146.74 1364.79 159.448 1356.81 172.156C1348.99 184.863 1339.05 196.757 1326.99 207.835C1325.04 212.397 1323.41 217.284 1322.11 222.498C1320.8 227.711 1320.15 231.947 1320.15 235.205C1320.15 245.306 1323.57 250.357 1330.42 250.357C1335.63 250.357 1341.41 246.61 1347.77 239.115C1354.12 231.458 1360.15 221.031 1365.85 207.835C1366.5 207.835 1367.15 207.998 1367.81 208.324C1368.46 208.487 1368.78 209.057 1368.78 210.034C1366.99 214.433 1364.71 219.321 1361.94 224.697C1359.33 229.911 1356.24 234.88 1352.65 239.604C1349.23 244.329 1345.24 248.239 1340.68 251.334C1336.12 254.267 1330.99 255.733 1325.28 255.733ZM1328.95 200.015C1334.81 193.987 1340.52 187.063 1346.06 179.243C1351.6 171.26 1356.73 163.032 1361.45 154.561C1366.34 145.926 1370.41 137.78 1373.67 130.123C1374.81 127.679 1375.71 124.991 1376.36 122.058C1377.17 119.126 1377.58 116.682 1377.58 114.727C1377.58 112.446 1377.01 111.306 1375.87 111.306C1375.22 111.306 1374.24 111.957 1372.94 113.261C1371.63 114.401 1369.92 116.438 1367.81 119.37C1364.71 123.443 1361.29 128.982 1357.54 135.988C1353.96 142.993 1350.29 150.488 1346.54 158.471C1342.8 166.454 1339.38 174.192 1336.28 181.687C1333.19 189.018 1330.74 195.127 1328.95 200.015ZM1418.85 255.733C1415.11 255.733 1411.77 254.674 1408.83 252.556C1406.06 250.438 1404.68 246.121 1404.68 239.604C1404.68 236.835 1404.84 234.228 1405.17 231.784C1405.66 229.34 1406.23 226.734 1406.88 223.964C1405.41 226.408 1403.38 229.422 1400.77 233.006C1398.16 236.59 1395.23 240.093 1391.97 243.514C1388.88 246.936 1385.62 249.787 1382.2 252.067C1378.94 254.348 1375.84 255.489 1372.91 255.489C1368.67 255.489 1365.25 253.615 1362.65 249.868C1360.04 245.958 1358.74 240.908 1358.74 234.717C1358.74 228.037 1360.28 220.869 1363.38 213.211C1366.48 205.554 1370.71 198.223 1376.09 191.217C1381.46 184.212 1387.65 178.51 1394.66 174.111C1401.67 169.712 1409 167.513 1416.65 167.513C1420.4 167.513 1423.99 168.164 1427.41 169.468C1430.83 170.608 1433.84 172.563 1436.45 175.333C1437.59 176.473 1438.16 177.777 1438.16 179.243C1438.16 180.22 1437.75 181.035 1436.94 181.687C1436.12 182.338 1435.06 182.501 1433.76 182.175C1431.97 176.473 1428.14 173.622 1422.28 173.622C1419.51 173.622 1416.33 174.518 1412.74 176.31C1408.35 178.591 1403.62 182.257 1398.57 187.307C1393.68 192.195 1389.04 197.816 1384.64 204.169C1380.41 210.36 1376.9 216.633 1374.13 222.986C1371.36 229.34 1369.98 235.124 1369.98 240.337C1369.98 245.714 1372.01 248.402 1376.09 248.402C1379.67 248.402 1383.34 246.691 1387.08 243.27C1390.99 239.849 1394.66 235.613 1398.08 230.562C1401.67 225.349 1404.92 220.217 1407.86 215.166C1410.79 210.116 1413.07 206.043 1414.7 202.947C1417.14 198.549 1419.42 194.883 1421.54 191.95C1423.66 189.018 1426.67 187.552 1430.58 187.552C1432.38 187.552 1434.17 187.796 1435.96 188.285C1437.75 188.774 1439.63 188.855 1441.58 188.529C1436.69 193.417 1432.38 199.2 1428.63 205.88C1425.04 212.56 1422.28 219.158 1420.32 225.675C1418.37 232.028 1417.39 237.405 1417.39 241.804C1417.39 246.691 1419.02 249.135 1422.28 249.135C1424.88 249.135 1427.65 247.669 1430.58 244.736C1433.68 241.804 1436.61 238.138 1439.38 233.739C1442.31 229.177 1445 224.616 1447.45 220.054C1449.89 215.329 1451.84 211.256 1453.31 207.835C1454.13 207.835 1454.78 207.916 1455.27 208.079C1455.92 208.242 1456.24 208.894 1456.24 210.034C1456.08 210.686 1455.75 211.419 1455.27 212.234C1454.94 212.886 1454.37 214.107 1453.56 215.899C1452.25 218.506 1450.46 222.009 1448.18 226.408C1445.9 230.807 1443.21 235.287 1440.11 239.849C1437.02 244.247 1433.68 247.994 1430.1 251.09C1426.51 254.185 1422.76 255.733 1418.85 255.733Z" fill="#DDBF8A"/>
</svg>
