<svg width="2445" height="1420" viewBox="0 0 2445 1420" fill="none" xmlns="http://www.w3.org/2000/svg">
<g filter="url(#filter0_f_2627_444)">
<ellipse cx="1222.01" cy="709.556" rx="869" ry="356.543" fill="white"/>
</g>
<path d="M720.047 811.213C716.047 811.213 712.847 810.546 710.447 809.213C709.381 808.946 708.847 808.413 708.847 807.613C708.847 807.08 709.114 806.68 709.647 806.413C710.447 806.146 711.381 806.28 712.447 806.813C714.047 807.346 715.247 807.613 716.047 807.613C719.514 807.613 723.114 806.28 726.847 803.613C730.581 800.946 733.781 797.346 736.447 792.813C739.381 788.28 740.847 783.213 740.847 777.613C740.847 774.413 740.181 770.813 738.847 766.813C737.514 763.08 735.647 759.48 733.247 756.013C730.847 752.28 728.847 748.68 727.247 745.213C725.114 740.68 723.514 736.546 722.447 732.813C721.647 729.08 721.247 725.48 721.247 722.013C721.247 713.48 723.914 706.813 729.247 702.013C734.581 696.946 741.381 693.08 749.647 690.413C758.181 687.48 767.114 685.346 776.447 684.013C785.781 682.68 794.314 681.48 802.047 680.413C808.714 679.613 816.714 678.546 826.047 677.213C835.647 675.613 845.647 674.013 856.047 672.413C866.447 670.546 876.314 668.546 885.647 666.413C895.247 664.28 903.381 662.146 910.047 660.013C916.981 657.88 921.381 655.746 923.247 653.613C923.781 653.08 924.314 652.813 924.847 652.813C925.647 652.813 926.047 653.213 926.047 654.013C926.314 654.813 926.047 655.613 925.247 656.413C922.314 659.613 916.181 662.813 906.847 666.013C897.514 669.213 886.447 672.28 873.647 675.213C861.114 678.146 848.047 680.946 834.447 683.613C820.847 686.28 808.047 688.813 796.047 691.213C784.047 693.613 774.314 695.88 766.847 698.013C742.581 704.68 730.447 715.746 730.447 731.213C730.447 737.346 732.181 743.346 735.647 749.213C739.114 754.813 742.447 760.413 745.647 766.013C749.114 771.613 750.847 777.346 750.847 783.213C750.847 791.48 747.381 798.28 740.447 803.613C733.781 808.68 726.981 811.213 720.047 811.213ZM715.247 883.613C704.047 883.613 694.714 881.08 687.247 876.013C679.781 870.68 674.181 863.88 670.447 855.613C666.714 847.346 664.847 838.413 664.847 828.813C664.847 822.413 665.647 816.28 667.247 810.413C668.047 805.08 669.914 802.413 672.847 802.413C673.647 802.413 674.047 802.946 674.047 804.013C674.047 805.08 673.647 806.546 672.847 808.413C672.314 810.013 672.181 811.08 672.447 811.613C673.247 830.813 677.781 844.946 686.047 854.013C694.314 862.813 704.447 867.213 716.447 867.213C733.514 867.213 751.514 859.613 770.447 844.413C777.381 838.813 784.314 832.146 791.247 824.413C798.447 816.413 805.514 807.88 812.447 798.813C809.247 799.346 806.047 800.013 802.847 800.813C799.914 801.613 796.981 802.413 794.047 803.213C790.314 804.28 786.847 805.213 783.647 806.013C780.447 806.813 777.647 807.346 775.247 807.613C774.181 807.88 773.114 808.013 772.047 808.013C770.981 808.013 770.047 808.013 769.247 808.013C766.314 808.013 764.714 807.48 764.447 806.413C764.181 805.346 764.447 804.28 765.247 803.213C766.847 801.08 769.114 799.08 772.047 797.213C775.247 795.08 778.181 793.88 780.847 793.613C786.447 792.813 792.714 791.88 799.647 790.813C806.581 789.48 813.781 788.28 821.247 787.213C831.381 773.346 841.247 759.346 850.847 745.213C860.447 731.08 869.247 718.546 877.247 707.613C880.181 703.88 882.847 700.413 885.247 697.213C887.914 694.013 890.581 690.813 893.247 687.613C896.714 683.346 901.514 680.68 907.647 679.613C908.981 678.013 911.647 675.346 915.647 671.613C919.647 667.613 923.247 664.946 926.447 663.613C927.514 663.08 928.181 662.813 928.447 662.813C929.781 662.813 930.447 663.479 930.447 664.813C930.714 665.879 930.581 666.68 930.047 667.213C927.647 669.08 925.114 671.879 922.447 675.613C919.781 679.08 917.647 682.546 916.047 686.013C908.847 701.746 902.181 717.88 896.047 734.413C889.914 750.946 884.181 767.613 878.847 784.413C884.714 784.68 889.114 786.28 892.047 789.213C895.247 791.88 896.847 794.68 896.847 797.613C896.847 801.346 895.647 803.48 893.247 804.013C891.114 804.28 890.581 803.346 891.647 801.213C892.181 800.413 892.447 799.346 892.447 798.013C892.447 795.88 890.981 794.146 888.047 792.813C885.114 791.48 881.381 790.68 876.847 790.413C874.981 796.28 872.847 803.746 870.447 812.813C868.314 821.88 866.581 830.546 865.247 838.813C864.981 841.213 864.714 843.48 864.447 845.613C864.447 847.48 864.447 849.213 864.447 850.813C864.447 856.946 865.381 861.346 867.247 864.013C869.114 866.68 871.514 868.013 874.447 868.013C878.181 868.013 882.314 866.546 886.847 863.613C891.647 860.413 896.314 856.68 900.847 852.413C905.381 848.146 909.114 844.146 912.047 840.413C912.581 839.88 914.047 838.013 916.447 834.813C918.847 831.613 921.514 828.28 924.447 824.813C927.381 821.08 929.647 818.146 931.247 816.013C931.514 815.48 932.181 815.48 933.247 816.013C934.581 816.28 934.981 816.68 934.447 817.213C928.047 826.28 921.247 835.213 914.047 844.013C910.581 848.013 905.914 853.08 900.047 859.213C894.447 865.346 888.314 870.813 881.647 875.613C874.981 880.146 868.447 882.413 862.047 882.413C861.247 882.413 860.447 882.28 859.647 882.013C858.847 882.013 858.047 881.88 857.247 881.613C852.981 880.546 849.914 877.88 848.047 873.613C846.181 869.346 845.247 864.28 845.247 858.413C845.247 855.48 845.514 852.28 846.047 848.813C846.581 845.346 847.247 841.88 848.047 838.413C849.914 831.213 852.314 823.48 855.247 815.213C858.181 806.68 861.247 798.413 864.447 790.413C863.647 790.413 862.847 790.546 862.047 790.813C861.514 790.813 860.847 790.813 860.047 790.813C853.381 791.346 846.714 792.28 840.047 793.613C833.381 794.68 828.047 795.613 824.047 796.413C813.914 811.08 803.114 825.08 791.647 838.413C780.181 851.746 768.047 862.68 755.247 871.213C742.714 879.48 729.381 883.613 715.247 883.613ZM831.247 785.613C837.914 785.08 844.181 784.68 850.047 784.413C856.181 784.146 861.914 784.013 867.247 784.013C869.381 779.213 871.247 774.813 872.847 770.813C874.714 766.546 876.181 762.813 877.247 759.613C881.781 747.88 885.914 736.946 889.647 726.813C893.381 716.68 895.247 710.68 895.247 708.813C895.247 708.013 893.647 707.88 890.447 708.413C887.247 708.946 883.381 711.88 878.847 717.213C871.647 725.746 864.047 736.146 856.047 748.413C848.047 760.413 839.781 772.813 831.247 785.613ZM909.838 830.115C911.142 827.345 912.852 822.946 914.97 816.918C917.088 810.727 919.287 803.885 921.568 796.391C923.849 788.896 925.56 781.809 926.7 775.13C927.189 772.523 928.085 770.649 929.388 769.509C930.692 768.206 932.077 767.554 933.543 767.554C935.661 767.554 937.616 768.613 939.408 770.731C941.2 772.686 942.096 775.537 942.096 779.284C942.096 783.846 940.711 787.756 937.942 791.014C935.335 794.273 932.077 797.368 928.167 800.301C929.796 800.464 931.506 800.626 933.298 800.789C935.091 800.789 937.046 800.789 939.164 800.789C946.821 800.789 954.396 800.301 961.891 799.323C962.217 800.301 962.379 801.034 962.379 801.522C962.379 803.64 961.728 806.329 960.424 809.587C959.284 812.845 958.062 815.778 956.759 818.385C956.107 819.851 954.804 822.539 952.849 826.449C950.894 830.196 948.776 834.514 946.495 839.401C944.214 844.126 942.259 848.85 940.63 853.575C939.164 858.137 938.43 862.047 938.43 865.305C938.43 869.541 940.06 871.659 943.318 871.659C946.413 871.659 950.731 868.075 956.27 860.906C961.809 853.575 967.348 843.556 972.888 830.848C974.843 830.848 975.82 831.581 975.82 833.047C974.028 837.446 971.747 842.252 968.978 847.466C966.371 852.679 963.438 857.648 960.18 862.373C956.922 866.934 953.419 870.763 949.672 873.858C945.925 876.791 942.015 878.257 937.942 878.257C934.846 878.257 931.751 877.035 928.655 874.592C925.56 871.985 924.012 867.83 924.012 862.128C924.012 857.078 924.99 852.19 926.945 847.466C928.9 842.578 931.099 838.016 933.543 833.78C935.987 829.545 938.186 825.797 940.141 822.539C942.096 819.281 943.074 816.674 943.074 814.719C943.074 811.786 941.2 809.668 937.453 808.365C933.869 807.062 929.144 806.329 923.279 806.166C920.346 813.66 918.147 819.199 916.681 822.783C915.214 826.368 913.83 829.789 912.526 833.047C909.92 833.047 909.024 832.07 909.838 830.115ZM949.376 879.968C955.241 868.075 960.862 856.345 966.238 844.777C971.614 833.047 977.154 821.887 982.856 811.298C986.114 805.433 988.884 801.36 991.165 799.079C993.445 796.635 996.459 795.413 1000.21 795.413C1001.51 795.413 1002.89 795.657 1004.36 796.146C1005.83 796.472 1007.29 796.635 1008.76 796.635C1009.74 796.635 1010.47 796.553 1010.96 796.391C1008.68 797.694 1005.66 800.952 1001.92 806.166C998.333 811.216 994.667 817.081 990.92 823.761C987.173 830.441 983.833 836.713 980.901 842.578C983.996 838.831 987.254 835.084 990.676 831.337C994.097 827.589 997.844 824.005 1001.92 820.584C1005.83 817.163 1010.47 813.66 1015.85 810.076C1021.39 806.329 1026.76 803.233 1031.98 800.789C1037.19 798.346 1041.34 797.124 1044.44 797.124C1045.58 797.124 1046.39 797.205 1046.88 797.368C1046.88 797.368 1045.99 798.997 1044.19 802.256C1042.4 805.351 1040.12 809.506 1037.35 814.719C1034.75 819.769 1032.06 825.227 1029.29 831.092C1026.52 836.794 1023.99 842.334 1021.71 847.71C1019.59 852.923 1018.21 857.322 1017.56 860.906C1017.07 863.024 1016.82 864.979 1016.82 866.771C1016.82 869.378 1017.31 871.089 1018.29 871.903C1019.27 872.718 1020.33 873.125 1021.47 873.125C1024.56 873.125 1027.74 871.74 1031 868.971C1034.26 866.201 1037.35 862.698 1040.28 858.463C1043.38 854.064 1046.23 849.421 1048.84 844.533C1051.44 839.645 1053.64 835.084 1055.44 830.848C1057.39 830.848 1058.37 831.581 1058.37 833.047C1056.58 837.446 1054.3 842.334 1051.53 847.71C1048.92 852.923 1045.91 857.892 1042.48 862.617C1039.23 867.342 1035.56 871.252 1031.49 874.347C1027.41 877.443 1023.02 878.99 1018.29 878.99C1015.03 878.99 1011.61 877.85 1008.03 875.569C1004.61 873.288 1002.89 869.052 1002.89 862.861C1002.89 861.069 1003.06 859.196 1003.38 857.241C1003.71 855.123 1004.28 852.842 1005.09 850.398C1006.4 847.14 1007.95 843.637 1009.74 839.89C1011.53 836.143 1014.46 831.011 1018.53 824.494C1019.68 822.702 1020.33 821.317 1020.49 820.34C1020.82 819.362 1020.98 818.548 1020.98 817.896C1020.98 815.941 1020.08 814.963 1018.29 814.963C1016.82 814.963 1014.62 815.778 1011.69 817.407C1008.92 819.036 1005.42 821.887 1001.18 825.96C997.111 829.87 992.223 835.41 986.521 842.578C980.982 849.746 974.547 860.336 967.215 874.347C966.075 876.465 964.772 877.606 963.305 877.768C962.002 877.931 960.128 878.094 957.685 878.257C956.056 878.42 954.508 878.502 953.042 878.502C951.575 878.665 950.353 879.153 949.376 879.968ZM1062.25 878.013C1056.22 878.013 1051.99 876.302 1049.54 872.881C1047.1 869.297 1045.88 865.224 1045.88 860.662C1045.88 858.218 1046.12 855.774 1046.61 853.331C1047.26 850.724 1048 848.362 1048.81 846.244L1065.18 804.455C1065.67 803.152 1065.92 802.011 1065.92 801.034C1065.92 799.405 1065.51 798.02 1064.7 796.879C1063.88 795.576 1063.31 794.68 1062.98 794.191L1076.43 793.702C1078.87 793.539 1080.58 793.865 1081.56 794.68C1082.7 795.332 1083.27 796.146 1083.27 797.124C1083.27 798.101 1082.7 799.893 1081.56 802.5C1079.93 806.41 1077.73 811.298 1074.96 817.163C1072.19 823.028 1069.42 829.056 1066.65 835.247C1064.04 841.438 1061.76 847.221 1059.81 852.598C1058.02 857.974 1057.12 862.128 1057.12 865.061C1057.12 867.179 1057.61 868.971 1058.59 870.437C1059.73 871.903 1061.6 872.637 1064.21 872.637C1067.63 872.637 1070.97 871.333 1074.23 868.726C1077.65 865.957 1080.82 862.454 1083.76 858.218C1086.69 853.982 1089.38 849.421 1091.82 844.533C1094.43 839.645 1096.63 835.084 1098.42 830.848C1100.37 830.848 1101.35 831.581 1101.35 833.047C1099.72 837.12 1097.61 841.763 1095 846.977C1092.39 852.19 1089.38 857.159 1085.96 861.884C1082.7 866.446 1079.03 870.274 1074.96 873.37C1071.05 876.465 1066.81 878.013 1062.25 878.013ZM1084 778.551C1081.88 778.551 1080.01 777.736 1078.38 776.107C1076.91 774.478 1076.18 772.523 1076.18 770.242C1076.18 767.472 1077.32 765.029 1079.6 762.911C1081.88 760.63 1084.41 759.489 1087.18 759.489C1089.46 759.489 1091.41 760.223 1093.04 761.689C1094.67 763.155 1095.49 765.029 1095.49 767.31C1095.49 770.242 1094.35 772.849 1092.07 775.13C1089.79 777.411 1087.1 778.551 1084 778.551ZM1347.71 895.213C1345.31 895.213 1343.05 893.746 1340.91 890.813C1339.05 887.88 1337.85 884.413 1337.31 880.413C1337.05 878.28 1336.78 876.146 1336.51 874.013C1336.51 871.613 1336.51 869.213 1336.51 866.813C1336.51 863.346 1336.65 859.746 1336.91 856.013C1337.45 852.28 1338.25 848.28 1339.31 844.013C1332.11 833.346 1324.78 822.28 1317.31 810.813C1310.11 799.08 1302.51 788.013 1294.51 777.613C1286.51 767.213 1277.85 758.28 1268.51 750.813C1267.45 750.013 1266.51 750.013 1265.71 750.813C1265.18 751.613 1264.91 752.013 1264.91 752.013C1263.31 756.013 1260.91 762.146 1257.71 770.413C1254.78 778.413 1251.05 787.613 1246.51 798.013C1242.25 808.146 1237.58 818.546 1232.51 829.213C1227.45 839.613 1221.98 849.346 1216.11 858.413C1210.51 867.48 1204.91 874.946 1199.31 880.813C1191.31 888.813 1182.25 892.813 1172.11 892.813C1165.71 892.813 1159.45 890.946 1153.31 887.213C1147.45 883.48 1142.38 878.28 1138.11 871.613C1134.11 864.946 1131.18 857.613 1129.31 849.613C1127.71 841.613 1126.65 834.68 1126.11 828.813C1126.38 826.68 1127.45 825.88 1129.31 826.413C1130.65 832.813 1132.11 838.546 1133.71 843.613C1135.31 848.68 1138.25 853.613 1142.51 858.413C1151.05 868.013 1160.91 872.813 1172.11 872.813C1181.45 872.813 1190.38 869.346 1198.91 862.413C1205.85 856.813 1211.85 849.746 1216.91 841.213C1222.25 832.68 1227.05 824.28 1231.31 816.013C1233.45 811.213 1236.11 804.813 1239.31 796.813C1242.78 788.813 1245.98 780.813 1248.91 772.813C1251.85 764.546 1253.98 758.013 1255.31 753.213C1255.85 752.146 1256.11 751.213 1256.11 750.413C1256.11 749.346 1256.11 748.28 1256.11 747.213C1256.11 742.413 1254.91 738.413 1252.51 735.213C1247.18 729.346 1241.05 723.08 1234.11 716.413C1227.45 709.746 1220.25 703.746 1212.51 698.413C1204.78 692.813 1196.78 689.213 1188.51 687.613C1187.45 687.346 1186.25 687.213 1184.91 687.213C1183.58 686.946 1182.25 686.813 1180.91 686.813C1173.98 686.813 1167.98 689.48 1162.91 694.813C1158.11 699.88 1155.71 708.68 1155.71 721.213C1155.71 726.28 1156.78 731.48 1158.91 736.813C1161.31 742.146 1163.85 747.48 1166.51 752.813C1169.45 757.88 1171.58 762.68 1172.91 767.213C1173.71 770.413 1174.11 773.346 1174.11 776.013C1174.11 784.28 1171.31 790.813 1165.71 795.613C1160.38 800.413 1154.91 802.813 1149.31 802.813C1145.85 802.813 1142.91 802.013 1140.51 800.413C1139.45 799.613 1139.18 798.813 1139.71 798.013C1140.25 797.213 1141.05 797.213 1142.11 798.013C1144.51 799.346 1147.31 798.946 1150.51 796.813C1153.71 794.68 1156.38 791.213 1158.51 786.413C1160.91 781.346 1162.11 775.613 1162.11 769.213C1162.11 765.213 1161.58 761.48 1160.51 758.013C1159.45 754.28 1157.98 750.68 1156.11 747.213C1154.25 743.48 1152.65 739.746 1151.31 736.013C1148.65 728.28 1147.31 720.813 1147.31 713.613C1147.31 701.08 1151.18 691.08 1158.91 683.613C1166.91 676.146 1176.78 672.413 1188.51 672.413C1197.31 672.413 1206.51 675.213 1216.11 680.813C1225.71 686.413 1234.78 693.08 1243.31 700.813C1252.11 708.28 1259.45 714.813 1265.31 720.413C1266.11 717.746 1266.51 715.88 1266.51 714.813C1266.78 713.746 1267.05 712.413 1267.31 710.813C1267.85 709.213 1268.65 706.413 1269.71 702.413C1271.05 698.146 1273.05 691.613 1275.71 682.813C1276.78 678.546 1278.78 676.413 1281.71 676.413C1283.05 676.413 1284.11 677.213 1284.91 678.813C1285.98 680.146 1286.25 682.28 1285.71 685.213C1284.65 689.48 1283.05 695.213 1280.91 702.413C1279.05 709.613 1276.38 717.746 1272.91 726.813C1288.65 743.346 1301.45 758.813 1311.31 773.213C1321.45 787.346 1329.05 798.946 1334.11 808.013C1339.18 816.813 1342.11 821.746 1342.91 822.813C1343.71 818.813 1345.31 812.013 1347.71 802.413C1350.38 792.813 1353.31 781.746 1356.51 769.213C1359.98 756.68 1363.58 744.013 1367.31 731.213C1371.31 718.146 1375.05 706.28 1378.51 695.613V694.813C1378.51 693.746 1378.11 692.546 1377.31 691.213C1376.51 689.88 1376.25 688.813 1376.51 688.013C1378.38 681.88 1380.65 676.546 1383.31 672.013C1386.25 667.213 1388.91 662.546 1391.31 658.013C1392.65 656.146 1394.38 655.213 1396.51 655.213C1400.51 655.213 1402.91 656.946 1403.71 660.413C1401.05 665.48 1397.58 673.48 1393.31 684.413C1389.05 695.346 1384.51 707.88 1379.71 722.013C1375.18 735.88 1370.78 750.013 1366.51 764.413C1362.25 778.546 1358.65 791.613 1355.71 803.613C1352.78 815.613 1351.05 824.813 1350.51 831.213C1352.65 835.48 1354.65 840.946 1356.51 847.613C1358.65 854.28 1359.71 861.213 1359.71 868.413C1359.71 875.346 1358.65 881.48 1356.51 886.813C1354.38 892.413 1351.45 895.213 1347.71 895.213ZM1459.18 878.746C1455.43 878.746 1452.09 877.687 1449.16 875.569C1446.39 873.451 1445 869.134 1445 862.617C1445 859.847 1445.16 857.241 1445.49 854.797C1445.98 852.353 1446.55 849.746 1447.2 846.977C1445.74 849.421 1443.7 852.435 1441.09 856.019C1438.49 859.603 1435.55 863.106 1432.29 866.527C1429.2 869.948 1425.94 872.799 1422.52 875.08C1419.26 877.361 1416.17 878.502 1413.23 878.502C1409 878.502 1405.58 876.628 1402.97 872.881C1400.36 868.971 1399.06 863.92 1399.06 857.729C1399.06 851.05 1400.61 843.881 1403.7 836.224C1406.8 828.567 1411.03 821.236 1416.41 814.23C1421.79 807.225 1427.98 801.522 1434.98 797.124C1441.99 792.725 1449.32 790.525 1456.98 790.525C1460.72 790.525 1464.31 791.177 1467.73 792.481C1471.15 793.621 1474.16 795.576 1476.77 798.346C1477.91 799.486 1478.48 800.789 1478.48 802.256C1478.48 803.233 1478.07 804.048 1477.26 804.699C1476.45 805.351 1475.39 805.514 1474.08 805.188C1472.29 799.486 1468.46 796.635 1462.6 796.635C1459.83 796.635 1456.65 797.531 1453.07 799.323C1448.67 801.604 1443.94 805.27 1438.89 810.32C1434 815.208 1429.36 820.828 1424.96 827.182C1420.73 833.373 1417.22 839.645 1414.45 845.999C1411.69 852.353 1410.3 858.137 1410.3 863.35C1410.3 868.726 1412.34 871.415 1416.41 871.415C1419.99 871.415 1423.66 869.704 1427.41 866.283C1431.32 862.861 1434.98 858.626 1438.4 853.575C1441.99 848.362 1445.25 843.23 1448.18 838.179C1451.11 833.129 1453.39 829.056 1455.02 825.96C1457.47 821.562 1459.75 817.896 1461.86 814.963C1463.98 812.031 1467 810.564 1470.91 810.564C1472.7 810.564 1474.49 810.809 1476.28 811.298C1478.07 811.786 1479.95 811.868 1481.9 811.542C1477.02 816.43 1472.7 822.213 1468.95 828.893C1465.37 835.573 1462.6 842.171 1460.64 848.687C1458.69 855.041 1457.71 860.418 1457.71 864.816C1457.71 869.704 1459.34 872.148 1462.6 872.148C1465.2 872.148 1467.97 870.682 1470.91 867.749C1474 864.816 1476.93 861.151 1479.7 856.752C1482.64 852.19 1485.32 847.629 1487.77 843.067C1490.21 838.342 1492.17 834.269 1493.63 830.848C1494.45 830.848 1495.1 830.929 1495.59 831.092C1496.24 831.255 1496.57 831.907 1496.57 833.047C1496.4 833.699 1496.08 834.432 1495.59 835.247C1495.26 835.898 1494.69 837.12 1493.88 838.912C1492.57 841.519 1490.78 845.022 1488.5 849.421C1486.22 853.819 1483.53 858.3 1480.44 862.861C1477.34 867.26 1474 871.007 1470.42 874.103C1466.83 877.198 1463.09 878.746 1459.18 878.746ZM1508.64 879.235C1501.96 879.235 1497.23 877.198 1494.46 873.125C1491.69 869.052 1490.31 864.083 1490.31 858.218C1490.31 854.145 1490.72 850.317 1491.53 846.732C1492.51 843.148 1493.89 839.075 1495.69 834.514H1495.2C1493.89 834.514 1493.24 833.862 1493.24 832.559C1493.24 831.907 1493.89 830.033 1495.2 826.938C1496.66 823.842 1498.46 820.095 1500.57 815.696C1502.85 811.298 1505.13 806.817 1507.42 802.256C1509.86 797.694 1512.06 793.621 1514.01 790.037C1517.27 784.009 1520.86 777.818 1524.77 771.464C1528.68 764.947 1532.51 758.756 1536.25 752.891C1540.16 747.026 1543.42 742.22 1546.03 738.473C1551.89 730.327 1557.35 726.254 1562.4 726.254H1563.62C1565.09 726.254 1566.72 726.498 1568.51 726.987C1570.47 727.476 1572.26 727.557 1573.89 727.232C1571.44 729.838 1567.7 734.563 1562.65 741.405C1557.76 748.085 1552.38 755.742 1546.52 764.377C1544.07 767.961 1540.98 772.767 1537.23 778.795C1533.65 784.823 1529.82 791.584 1525.74 799.079C1521.67 806.573 1517.84 814.23 1514.26 822.05C1510.84 829.707 1507.99 837.202 1505.71 844.533C1503.42 851.701 1502.28 858.137 1502.28 863.839C1502.28 867.586 1502.94 870.193 1504.24 871.659C1505.54 873.125 1507.17 873.858 1509.13 873.858C1511.57 873.858 1514.42 872.474 1517.68 869.704C1521.1 866.771 1524.52 863.024 1527.94 858.463C1531.53 853.738 1534.79 848.606 1537.72 843.067C1540.65 837.365 1543.01 831.662 1544.81 825.96C1546.76 820.095 1547.74 814.719 1547.74 809.831C1547.74 805.107 1546.84 801.685 1545.05 799.567C1543.42 797.45 1541.22 796.391 1538.45 796.391C1537.31 796.391 1536.17 796.716 1535.03 797.368C1533.89 797.857 1532.91 798.101 1532.1 798.101C1531.28 798.101 1530.88 797.694 1530.88 796.879C1530.88 796.065 1531.69 795.169 1533.32 794.191C1535.11 793.214 1537.72 792.725 1541.14 792.725C1544.24 792.725 1547.33 793.539 1550.43 795.169C1553.68 796.798 1556.37 799.486 1558.49 803.233C1560.61 806.817 1561.67 811.542 1561.67 817.407C1561.67 824.413 1560.04 831.581 1556.78 838.912C1553.52 846.081 1549.29 852.76 1544.07 858.951C1538.86 864.979 1533.08 869.867 1526.72 873.614C1520.53 877.361 1514.5 879.235 1508.64 879.235ZM1580.52 878.013C1574.49 878.013 1570.26 876.302 1567.81 872.881C1565.37 869.297 1564.15 865.224 1564.15 860.662C1564.15 858.218 1564.39 855.774 1564.88 853.331C1565.53 850.724 1566.27 848.362 1567.08 846.244L1583.45 804.455C1583.94 803.152 1584.19 802.011 1584.19 801.034C1584.19 799.405 1583.78 798.02 1582.96 796.879C1582.15 795.576 1581.58 794.68 1581.25 794.191L1594.69 793.702C1597.14 793.539 1598.85 793.865 1599.83 794.68C1600.97 795.332 1601.54 796.146 1601.54 797.124C1601.54 798.101 1600.97 799.893 1599.83 802.5C1598.2 806.41 1596 811.298 1593.23 817.163C1590.46 823.028 1587.69 829.056 1584.92 835.247C1582.31 841.438 1580.03 847.221 1578.08 852.598C1576.29 857.974 1575.39 862.128 1575.39 865.061C1575.39 867.179 1575.88 868.971 1576.86 870.437C1578 871.903 1579.87 872.637 1582.48 872.637C1585.9 872.637 1589.24 871.333 1592.5 868.726C1595.92 865.957 1599.09 862.454 1602.03 858.218C1604.96 853.982 1607.65 849.421 1610.09 844.533C1612.7 839.645 1614.9 835.084 1616.69 830.848C1618.64 830.848 1619.62 831.581 1619.62 833.047C1617.99 837.12 1615.87 841.763 1613.27 846.977C1610.66 852.19 1607.65 857.159 1604.23 861.884C1600.97 866.446 1597.3 870.274 1593.23 873.37C1589.32 876.465 1585.08 878.013 1580.52 878.013ZM1602.27 778.551C1600.15 778.551 1598.28 777.736 1596.65 776.107C1595.18 774.478 1594.45 772.523 1594.45 770.242C1594.45 767.472 1595.59 765.029 1597.87 762.911C1600.15 760.63 1602.68 759.489 1605.45 759.489C1607.73 759.489 1609.68 760.223 1611.31 761.689C1612.94 763.155 1613.76 765.029 1613.76 767.31C1613.76 770.242 1612.62 772.849 1610.34 775.13C1608.05 777.411 1605.37 778.551 1602.27 778.551ZM1628.12 878.746C1622.09 878.746 1617.61 876.954 1614.68 873.37C1611.91 869.623 1610.53 865.224 1610.53 860.173C1610.53 854.96 1611.26 849.584 1612.73 844.044C1614.19 838.505 1615.5 833.862 1616.64 830.115C1619.24 820.991 1622.5 811.298 1626.41 801.034C1630.48 790.607 1634.88 780.425 1639.61 770.486C1644.49 760.386 1649.3 751.344 1654.03 743.361C1657.77 737.007 1661.76 732.282 1666 729.187C1670.4 725.928 1674.23 724.299 1677.49 724.299C1680.09 724.299 1682.13 725.277 1683.6 727.232C1685.22 729.024 1686.04 731.793 1686.04 735.54C1686.04 738.147 1685.55 741.243 1684.57 744.827C1683.76 748.411 1682.29 752.484 1680.17 757.046C1674.47 769.753 1667.63 782.461 1659.65 795.169C1651.83 807.876 1641.89 819.769 1629.83 830.848C1627.88 835.41 1626.25 840.297 1624.94 845.511C1623.64 850.724 1622.99 854.96 1622.99 858.218C1622.99 868.319 1626.41 873.37 1633.25 873.37C1638.47 873.37 1644.25 869.623 1650.6 862.128C1656.96 854.471 1662.99 844.044 1668.69 830.848C1669.34 830.848 1669.99 831.011 1670.64 831.337C1671.29 831.5 1671.62 832.07 1671.62 833.047C1669.83 837.446 1667.55 842.334 1664.78 847.71C1662.17 852.923 1659.08 857.892 1655.49 862.617C1652.07 867.342 1648.08 871.252 1643.52 874.347C1638.96 877.28 1633.82 878.746 1628.12 878.746ZM1631.79 823.028C1637.65 817 1643.35 810.076 1648.89 802.256C1654.43 794.273 1659.56 786.045 1664.29 777.573C1669.18 768.939 1673.25 760.793 1676.51 753.136C1677.65 750.692 1678.54 748.004 1679.2 745.071C1680.01 742.139 1680.42 739.695 1680.42 737.74C1680.42 735.459 1679.85 734.319 1678.71 734.319C1678.06 734.319 1677.08 734.97 1675.78 736.274C1674.47 737.414 1672.76 739.45 1670.64 742.383C1667.55 746.456 1664.13 751.995 1660.38 759.001C1656.8 766.006 1653.13 773.5 1649.38 781.483C1645.64 789.467 1642.21 797.205 1639.12 804.699C1636.02 812.031 1633.58 818.14 1631.79 823.028ZM1721.69 878.746C1717.94 878.746 1714.6 877.687 1711.67 875.569C1708.9 873.451 1707.52 869.134 1707.52 862.617C1707.52 859.847 1707.68 857.241 1708.01 854.797C1708.49 852.353 1709.07 849.746 1709.72 846.977C1708.25 849.421 1706.21 852.435 1703.61 856.019C1701 859.603 1698.07 863.106 1694.81 866.527C1691.71 869.948 1688.46 872.799 1685.03 875.08C1681.78 877.361 1678.68 878.502 1675.75 878.502C1671.51 878.502 1668.09 876.628 1665.48 872.881C1662.88 868.971 1661.57 863.92 1661.57 857.729C1661.57 851.05 1663.12 843.881 1666.22 836.224C1669.31 828.567 1673.55 821.236 1678.93 814.23C1684.3 807.225 1690.49 801.522 1697.5 797.124C1704.5 792.725 1711.83 790.525 1719.49 790.525C1723.24 790.525 1726.82 791.177 1730.24 792.481C1733.67 793.621 1736.68 795.576 1739.29 798.346C1740.43 799.486 1741 800.789 1741 802.256C1741 803.233 1740.59 804.048 1739.78 804.699C1738.96 805.351 1737.9 805.514 1736.6 805.188C1734.81 799.486 1730.98 796.635 1725.11 796.635C1722.34 796.635 1719.17 797.531 1715.58 799.323C1711.18 801.604 1706.46 805.27 1701.41 810.32C1696.52 815.208 1691.88 820.828 1687.48 827.182C1683.24 833.373 1679.74 839.645 1676.97 845.999C1674.2 852.353 1672.82 858.137 1672.82 863.35C1672.82 868.726 1674.85 871.415 1678.93 871.415C1682.51 871.415 1686.18 869.704 1689.92 866.283C1693.83 862.861 1697.5 858.626 1700.92 853.575C1704.5 848.362 1707.76 843.23 1710.69 838.179C1713.63 833.129 1715.91 829.056 1717.54 825.96C1719.98 821.562 1722.26 817.896 1724.38 814.963C1726.5 812.031 1729.51 810.564 1733.42 810.564C1735.21 810.564 1737.01 810.809 1738.8 811.298C1740.59 811.786 1742.46 811.868 1744.42 811.542C1739.53 816.43 1735.21 822.213 1731.47 828.893C1727.88 835.573 1725.11 842.171 1723.16 848.687C1721.2 855.041 1720.23 860.418 1720.23 864.816C1720.23 869.704 1721.85 872.148 1725.11 872.148C1727.72 872.148 1730.49 870.682 1733.42 867.749C1736.52 864.816 1739.45 861.151 1742.22 856.752C1745.15 852.19 1747.84 847.629 1750.28 843.067C1752.73 838.342 1754.68 834.269 1756.15 830.848C1756.96 830.848 1757.61 830.929 1758.1 831.092C1758.76 831.255 1759.08 831.907 1759.08 833.047C1758.92 833.699 1758.59 834.432 1758.1 835.247C1757.78 835.898 1757.21 837.12 1756.39 838.912C1755.09 841.519 1753.3 845.022 1751.02 849.421C1748.74 853.819 1746.05 858.3 1742.95 862.861C1739.86 867.26 1736.52 871.007 1732.93 874.103C1729.35 877.198 1725.6 878.746 1721.69 878.746Z" fill="#DDBF8A"/>
<defs>
<filter id="filter0_f_2627_444" x="-0.00112915" y="0" width="2444.03" height="1419.11" filterUnits="userSpaceOnUse" color-interpolation-filters="sRGB">
<feFlood flood-opacity="0" result="BackgroundImageFix"/>
<feBlend mode="normal" in="SourceGraphic" in2="BackgroundImageFix" result="shape"/>
<feGaussianBlur stdDeviation="176.506" result="effect1_foregroundBlur_2627_444"/>
</filter>
</defs>
</svg>
