<svg width="6036" height="1277" viewBox="0 0 6036 1277" fill="none" xmlns="http://www.w3.org/2000/svg">
<rect x="155.1" y="613.812" width="2352.49" height="51.7032" fill="#DDBF8A"/>
<circle cx="148.151" cy="658.527" r="109.469" fill="#DDBF8A"/>
<circle cx="148.105" cy="658.503" r="141.665" stroke="#DDBF8A" stroke-width="12.8787"/>
<rect width="2352.49" height="51.7032" transform="matrix(-1 0 0 1 5880.9 613.812)" fill="#DDBF8A"/>
<circle cx="109.469" cy="109.469" r="109.469" transform="matrix(-1 0 0 1 5997.32 549.059)" fill="#DDBF8A"/>
<circle cx="148.105" cy="148.105" r="141.665" transform="matrix(-1 0 0 1 6036 510.398)" stroke="#DDBF8A" stroke-width="12.8787"/>
<path d="M2957.74 1016.57C2993.96 1016.57 3023.43 1005.91 3046.15 984.611C3068.88 962.597 3082.01 934.192 3085.56 899.397C3089.82 864.601 3081.66 827.675 3061.07 788.618L3130.3 744.946L3261.32 966.503C3272.68 986.386 3280.85 998.103 3285.82 1001.65C3290.79 1004.49 3298.95 1006.62 3310.32 1008.04L3362.51 1013.37V1040H3206.99L3121.78 891.94C3121.07 935.258 3105.8 972.539 3075.98 1003.78C3046.86 1035.03 3004.97 1050.65 2950.29 1050.65C2889.93 1050.65 2840.22 1036.45 2801.16 1008.04C2762.11 978.93 2742.58 937.388 2742.58 883.419C2742.58 838.682 2757.84 799.625 2788.38 766.25C2819.63 732.164 2863.3 698.078 2919.4 663.993L2931.11 656.536C2881.41 628.842 2844.48 599.372 2820.34 568.127C2796.19 536.882 2784.12 503.861 2784.12 469.065C2784.12 441.371 2791.58 415.096 2806.49 390.242C2821.4 364.678 2842.7 344.085 2870.4 328.462C2898.8 312.84 2931.82 305.028 2969.46 305.028C3008.52 305.028 3041.54 312.84 3068.52 328.462C3096.22 343.375 3117.52 363.258 3132.43 388.112C3147.34 412.966 3154.8 439.951 3154.8 469.065C3154.8 497.47 3148.05 522.324 3134.56 543.628C3121.78 564.931 3104.03 584.104 3081.3 601.147C3059.29 617.48 3034.79 634.168 3007.81 651.211L2948.16 689.557C2913.36 711.571 2885.67 737.845 2865.07 768.38C2845.19 798.205 2835.25 835.131 2835.25 879.158C2835.25 928.156 2847.32 963.307 2871.46 984.611C2896.32 1005.91 2925.08 1016.57 2957.74 1016.57ZM2876.79 463.74C2876.79 490.014 2882.12 518.419 2892.77 548.954C2903.42 578.779 2926.14 608.248 2960.94 637.363L2981.18 623.516C3007.45 607.183 3027.33 586.235 3040.83 560.671C3055.03 535.106 3062.13 503.861 3062.13 466.935C3062.13 423.618 3053.61 391.663 3036.57 371.069C3019.52 349.766 2997.51 339.114 2970.53 339.114C2943.54 339.114 2921.17 349.056 2903.42 368.939C2885.67 388.112 2876.79 419.712 2876.79 463.74Z" fill="#DDBF8A"/>
</svg>
