<svg width="6036" height="1334" viewBox="0 0 6036 1334" fill="none" xmlns="http://www.w3.org/2000/svg">
<rect x="155.1" y="613.812" width="2352.49" height="51.7032" fill="#DDBF8A"/>
<circle cx="148.151" cy="658.527" r="109.469" fill="#DDBF8A"/>
<circle cx="148.105" cy="658.503" r="141.665" stroke="#DDBF8A" stroke-width="12.8787"/>
<rect width="2352.49" height="51.7032" transform="matrix(-1 0 0 1 5880.9 613.812)" fill="#DDBF8A"/>
<circle cx="109.469" cy="109.469" r="109.469" transform="matrix(-1 0 0 1 5997.32 549.059)" fill="#DDBF8A"/>
<circle cx="148.105" cy="148.105" r="141.665" transform="matrix(-1 0 0 1 6036 510.398)" stroke="#DDBF8A" stroke-width="12.8787"/>
<path d="M2973.08 954.933C2912.72 954.933 2862.65 945.346 2822.89 926.173C2783.12 907.71 2753.29 883.211 2733.41 852.676C2714.24 821.431 2704.65 788.41 2704.65 753.615C2704.65 714.558 2716.37 675.857 2739.8 637.51C2763.24 598.454 2798.03 565.078 2844.19 537.384C2891.06 508.979 2948.22 491.226 3015.68 484.125C3005.74 470.633 2998.28 455.365 2993.31 438.322C2988.34 420.569 2985.86 403.882 2985.86 388.259C2986.57 350.623 2997.22 317.602 3017.81 289.198C3038.41 260.083 3064.68 235.584 3096.64 215.7C3129.3 195.817 3164.1 180.905 3201.02 170.963C3237.95 160.311 3272.75 154.985 3305.41 154.985C3325.29 154.985 3345.53 157.826 3366.13 163.507C3386.72 168.478 3404.12 177.709 3418.32 191.201C3432.52 204.694 3439.62 223.867 3439.62 248.721C3439.62 269.314 3433.23 287.777 3420.45 304.11C3407.67 320.443 3392.05 328.609 3373.58 328.609C3360.09 328.609 3348.37 323.638 3338.43 313.697C3328.49 303.755 3323.52 292.393 3323.52 279.611C3323.52 264.699 3328.13 252.627 3337.37 243.395C3347.31 233.453 3359.38 228.483 3373.58 228.483C3379.97 228.483 3387.07 230.613 3394.89 234.874C3403.41 239.134 3408.73 243.395 3410.86 247.656C3411.57 244.815 3411.93 240.91 3411.93 235.939C3411.93 216.766 3404.12 203.273 3388.49 195.462C3372.87 187.651 3356.18 183.745 3338.43 183.745C3310.03 183.745 3277.01 190.846 3239.37 205.049C3201.73 218.541 3165.16 240.91 3129.66 272.155C3116.87 283.517 3103.74 298.429 3090.25 316.892C3076.75 335.355 3065.39 355.239 3056.16 376.542C3046.93 397.136 3042.31 418.084 3042.31 439.388C3042.31 455.72 3045.15 469.923 3050.83 481.995C3061.49 481.995 3073.56 481.64 3087.05 480.929C3101.25 479.509 3115.81 478.799 3130.72 478.799C3149.18 478.799 3163.74 482.705 3174.39 490.516C3185.05 498.327 3190.37 507.204 3190.37 517.145C3190.37 524.247 3186.11 530.993 3177.59 537.384C3169.07 543.775 3155.58 546.97 3137.11 546.97C3113.68 546.97 3092.38 542 3073.2 532.058C3054.74 521.406 3040.18 510.754 3029.53 500.103C2982.66 506.494 2942.9 523.892 2910.23 552.296C2877.56 580.701 2852.71 614.432 2835.67 653.488C2818.63 691.834 2810.1 730.181 2810.1 768.527C2810.1 799.062 2815.78 827.467 2827.15 853.741C2839.22 880.016 2857.33 900.964 2881.47 916.587C2905.61 932.919 2936.15 941.086 2973.08 941.086C3011.42 941.086 3046.22 933.984 3077.46 919.782C3109.42 906.29 3136.76 888.537 3159.48 866.523C3182.21 844.51 3199.6 821.431 3211.68 797.287C3224.46 772.433 3230.85 749.354 3230.85 728.05C3230.85 709.587 3224.1 694.32 3210.61 682.248C3197.83 669.466 3180.79 660.234 3159.48 654.553C3138.18 648.162 3115.45 644.967 3091.31 644.967C3066.46 644.967 3041.6 648.517 3016.75 655.618C2992.6 662.009 2972.01 672.306 2954.97 686.508C2937.92 700.001 2927.63 717.399 2924.08 738.702C2924.08 740.122 2923.72 741.898 2923.01 744.028C2923.01 745.448 2923.01 746.868 2923.01 748.289C2923.01 763.911 2928.69 779.534 2940.06 795.156C2952.13 810.069 2970.59 823.916 2995.44 836.698C3001.84 839.539 3005.03 844.865 3005.03 852.676C3005.03 860.487 3001.48 862.618 2994.38 859.067C2955.32 838.474 2926.56 816.105 2908.1 791.961C2890.35 767.107 2881.47 743.673 2881.47 721.659C2881.47 689.704 2898.51 662.364 2932.6 639.641C2967.39 616.207 3016.75 604.49 3080.66 604.49H3269.19C3280.56 604.49 3297.24 602.004 3319.26 597.034C3341.98 592.063 3365.06 584.962 3388.49 575.73C3411.93 565.788 3431.81 554.427 3448.14 541.644C3465.19 528.152 3473.71 512.885 3473.71 495.842C3473.71 486.61 3470.51 476.669 3464.12 466.017C3462.7 463.887 3461.99 461.401 3461.99 458.561C3461.99 454.3 3463.77 452.17 3467.32 452.17C3470.16 452.17 3472.64 453.945 3474.77 457.496C3485.43 473.118 3490.75 489.096 3490.75 505.428C3490.75 524.602 3483.65 542.355 3469.45 558.687C3455.96 575.02 3437.49 589.577 3414.06 602.36C3390.62 614.432 3364.35 623.663 3335.24 630.054C3306.83 636.445 3277.72 639.286 3247.89 638.576C3261.38 649.937 3271.33 662.72 3277.72 676.922C3284.11 691.124 3287.3 706.037 3287.3 721.659C3287.3 747.934 3279.49 774.918 3263.87 802.613C3248.25 829.597 3226.23 854.806 3197.83 878.24C3169.42 900.964 3136.05 919.427 3097.7 933.629C3060.07 947.832 3018.52 954.933 2973.08 954.933ZM3137.11 528.862C3160.55 528.862 3172.26 524.247 3172.26 515.015C3172.26 511.464 3169.07 507.914 3162.68 504.363C3157 500.103 3149.18 497.617 3139.24 496.907C3134.98 496.197 3127.88 495.842 3117.94 495.842C3108 495.842 3097.35 495.842 3085.98 495.842C3075.33 495.842 3066.46 495.842 3059.35 495.842C3077.11 517.856 3103.03 528.862 3137.11 528.862Z" fill="#DDBF8A"/>
</svg>
