<svg width="1984" height="580" viewBox="0 0 1984 580" fill="none" xmlns="http://www.w3.org/2000/svg">
<path d="M518.509 248.264C513.947 248.264 509.385 247.205 504.823 245.087C500.425 242.969 496.27 239.874 492.36 235.801C486.658 229.936 481.689 222.93 477.453 214.784C473.38 206.475 469.877 198.003 466.945 189.369C464.012 180.571 461.731 172.588 460.102 165.42C458.473 158.088 457.333 152.468 456.681 148.558C450.653 160.125 444.381 171.611 437.864 183.015C431.51 194.256 423.364 205.335 413.426 216.25C403.977 226.514 393.631 234.253 382.39 239.466C371.149 244.843 359.5 247.531 347.444 247.531C343.697 247.531 339.868 247.286 335.958 246.798C325.205 245.494 317.304 242.399 312.253 237.511C307.203 232.624 304.678 227.41 304.678 221.871C304.678 215.843 307.366 210.385 312.742 205.498C318.119 200.61 325.776 198.166 335.714 198.166C338.972 198.166 342.475 198.492 346.222 199.144C349.969 199.796 353.879 200.855 357.952 202.321C359.744 202.972 360.64 203.706 360.64 204.52C360.64 205.172 359.989 205.498 358.685 205.498C357.871 205.498 357.219 205.416 356.73 205.253C351.354 203.298 346.548 202.321 342.312 202.321C335.469 202.321 330.256 204.357 326.672 208.43C323.088 212.34 321.295 216.658 321.295 221.382C321.295 225.944 323.25 230.18 327.161 234.09C331.071 238 337.099 239.955 345.244 239.955C355.508 239.955 364.958 237.593 373.592 232.868C382.227 227.98 390.292 221.382 397.786 213.073C405.28 204.602 412.448 195.071 419.291 184.481C426.134 173.729 432.813 162.569 439.33 151.001C450.246 131.614 460.102 114.019 468.9 98.2157C477.86 82.2497 487.31 68.7274 497.248 57.6489C492.849 57.1602 488.369 56.8343 483.807 56.6714C479.245 56.5085 474.602 56.4271 469.877 56.4271C459.613 56.4271 448.942 56.9973 437.864 58.1377C426.948 59.1152 416.359 60.7444 406.095 63.0253C392.247 65.9578 380.353 70.3566 370.415 76.2217C360.477 81.9238 352.576 88.3591 346.711 95.5276C341.009 102.533 337.424 109.62 335.958 116.788C335.469 119.395 335.225 121.92 335.225 124.364C335.225 132.673 337.995 139.108 343.534 143.67C349.073 148.232 355.427 150.513 362.595 150.513C367.157 150.513 371.719 149.617 376.281 147.824C381.005 145.869 385.241 142.855 388.988 138.782C392.084 135.524 394.365 132.51 395.831 129.74C397.297 126.808 398.112 124.609 398.275 123.142C398.437 120.861 398.926 119.721 399.741 119.721C400.23 119.721 400.637 120.128 400.963 120.943C401.451 121.757 401.614 122.572 401.451 123.387C400.8 127.134 399.659 130.799 398.03 134.384C396.401 137.968 394.446 140.982 392.165 143.426C387.603 148.15 382.39 151.653 376.525 153.934C370.66 156.215 365.039 157.355 359.663 157.355C353.309 157.355 347.281 155.97 341.579 153.201C336.04 150.431 331.559 146.44 328.138 141.226C324.717 135.85 323.006 129.252 323.006 121.432C323.006 112.308 326.183 103.022 332.537 93.5725C338.891 83.9603 348.421 75.4885 361.129 68.1572C374 60.8259 389.966 55.7754 409.027 53.0058C418.639 51.7024 427.926 50.7249 436.886 50.0732C446.01 49.2586 454.807 48.8513 463.279 48.8513C470.122 48.8513 476.801 49.0957 483.318 49.5845C489.835 50.0732 496.27 50.7249 502.624 51.5395C506.86 47.1407 509.711 44.9413 511.177 44.9413C512.318 44.9413 512.888 45.8373 512.888 47.6294C512.888 48.2811 512.806 49.0957 512.644 50.0732C512.481 51.0507 512.236 52.0283 511.91 53.0058C516.309 53.6574 520.545 54.3906 524.618 55.2052C528.854 55.8568 532.601 56.6714 535.859 57.6489C548.73 61.2332 558.098 65.9578 563.963 71.8229C569.991 77.525 573.005 83.7159 573.005 90.3956C573.005 97.564 569.747 104.732 563.23 111.901C556.876 119.069 547.834 125.423 536.104 130.962C524.537 136.502 510.933 140.575 495.293 143.181C490.242 143.996 485.762 144.566 481.852 144.892C478.105 145.218 474.846 145.462 472.077 145.625C472.403 147.254 473.136 150.676 474.276 155.889C475.417 161.102 477.046 167.293 479.164 174.462C481.282 181.467 483.97 188.88 487.228 196.7C490.649 204.52 494.722 211.933 499.447 218.939C503.194 224.478 507.023 229.039 510.933 232.624C514.843 236.208 518.997 238 523.396 238C526.166 238 529.017 237.267 531.949 235.801C535.045 234.334 538.222 231.972 541.48 228.714C545.39 224.804 548.974 220.405 552.233 215.517C555.491 210.63 558.261 205.986 560.542 201.588C562.822 197.026 564.533 193.442 565.674 190.835C566.651 190.835 567.384 190.916 567.873 191.079C568.362 191.242 568.606 191.894 568.606 193.034C567.954 194.664 566.814 197.27 565.185 200.855C563.556 204.276 561.601 208.186 559.32 212.585C557.202 216.821 554.839 221.056 552.233 225.292C549.626 229.528 547.019 233.112 544.413 236.045C540.666 240.118 536.43 243.132 531.705 245.087C527.143 247.205 522.744 248.264 518.509 248.264ZM461.813 139.027C466.538 138.212 471.588 137.642 476.964 137.316C482.341 136.99 487.635 136.502 492.849 135.85C501.321 134.71 509.304 132.51 516.798 129.252C524.292 125.83 530.89 121.757 536.593 117.033C542.458 112.308 547.019 107.339 550.278 102.126C553.536 96.7494 555.165 91.6175 555.165 86.7299C555.165 75.6515 547.753 67.9943 532.927 63.7584C529.994 62.9438 526.166 62.1292 521.441 61.3146C516.879 60.5 512.725 59.7669 508.978 59.1152C501.158 72.4745 493.093 85.5895 484.784 98.4601C476.638 111.331 468.981 124.853 461.813 139.027ZM572.594 238C566.566 238 562.331 236.289 559.887 232.868C557.443 229.284 556.221 225.211 556.221 220.649C556.221 218.205 556.465 215.762 556.954 213.318C557.606 210.711 558.339 208.349 559.154 206.231L575.527 164.442C576.016 163.139 576.26 161.998 576.26 161.021C576.26 159.392 575.853 158.007 575.038 156.866C574.224 155.563 573.653 154.667 573.328 154.178L586.768 153.69C589.212 153.527 590.923 153.852 591.9 154.667C593.041 155.319 593.611 156.133 593.611 157.111C593.611 158.088 593.041 159.88 591.9 162.487C590.271 166.397 588.072 171.285 585.302 177.15C582.532 183.015 579.763 189.043 576.993 195.234C574.387 201.425 572.106 207.208 570.151 212.585C568.359 217.961 567.462 222.115 567.462 225.048C567.462 227.166 567.951 228.958 568.929 230.424C570.069 231.891 571.943 232.624 574.549 232.624C577.971 232.624 581.311 231.32 584.569 228.714C587.99 225.944 591.167 222.441 594.1 218.205C597.032 213.969 599.72 209.408 602.164 204.52C604.771 199.633 606.97 195.071 608.762 190.835C610.717 190.835 611.695 191.568 611.695 193.034C610.066 197.107 607.948 201.751 605.341 206.964C602.734 212.177 599.72 217.146 596.299 221.871C593.041 226.433 589.375 230.261 585.302 233.357C581.392 236.452 577.156 238 572.594 238ZM594.344 138.538C592.226 138.538 590.353 137.724 588.723 136.094C587.257 134.465 586.524 132.51 586.524 130.229C586.524 127.46 587.664 125.016 589.945 122.898C592.226 120.617 594.751 119.477 597.521 119.477C599.802 119.477 601.757 120.21 603.386 121.676C605.015 123.142 605.83 125.016 605.83 127.297C605.83 130.229 604.689 132.836 602.409 135.117C600.128 137.398 597.44 138.538 594.344 138.538ZM613.841 238.978C607.161 238.978 601.703 236.941 597.468 232.868C593.395 228.632 591.358 224.233 591.358 219.672C591.358 215.925 592.336 212.503 594.291 209.408C596.083 206.149 598.527 204.52 601.622 204.52L601.866 204.031C605.451 197.515 608.872 190.916 612.13 184.237C615.552 177.394 619.299 170.144 623.372 162.487C626.793 156.133 630.459 150.92 634.369 146.847C638.442 142.774 643.166 140.738 648.543 140.738C649.846 140.738 651.638 141.063 653.919 141.715C656.2 142.204 657.34 143.344 657.34 145.136C657.34 146.44 656.607 147.091 655.141 147.091C654 147.091 652.697 146.766 651.231 146.114C649.927 145.462 648.868 145.136 648.054 145.136C644.958 145.136 642.352 146.928 640.234 150.513C638.116 154.097 637.057 157.925 637.057 161.998C637.057 166.397 637.79 170.389 639.256 173.973C640.722 177.394 642.433 180.734 644.388 183.992C646.343 187.251 648.054 190.591 649.52 194.012C650.986 197.27 651.719 200.855 651.719 204.765C651.719 212.585 650.172 218.939 647.076 223.826C644.144 228.551 640.234 232.135 635.346 234.579H635.591C644.225 234.579 651.312 230.587 656.851 222.604C662.554 214.458 668.174 203.869 673.714 190.835C675.669 190.835 676.646 191.568 676.646 193.034C673.551 200.366 670.129 207.534 666.382 214.54C662.635 221.545 658.236 227.329 653.186 231.891C648.135 236.452 641.944 238.733 634.613 238.733C631.518 238.733 628.666 238.407 626.06 237.756C622.313 238.57 618.24 238.978 613.841 238.978ZM610.175 213.073C610.175 216.983 611.071 220.731 612.863 224.315C614.655 227.899 617.914 230.587 622.638 232.379C626.874 229.936 630.133 226.188 632.414 221.138C634.857 215.925 636.079 210.548 636.079 205.009C636.079 200.447 635.591 195.804 634.613 191.079C633.635 186.355 632.577 181.712 631.436 177.15C630.459 172.588 629.97 168.515 629.97 164.931C629.97 163.791 629.97 162.813 629.97 161.998C630.133 161.021 630.296 160.125 630.459 159.31C627.526 163.709 624.512 168.841 621.417 174.706C618.484 180.571 615.633 186.192 612.863 191.568C610.094 196.944 607.568 201.343 605.288 204.765C608.546 205.253 610.175 208.023 610.175 213.073ZM602.111 225.292C602.111 227.899 603.007 230.18 604.799 232.135C606.591 234.09 609.279 235.067 612.863 235.067C614.493 235.067 616.04 234.905 617.507 234.579C614.085 232.461 611.316 229.773 609.198 226.514C607.243 223.256 606.265 219.509 606.265 215.273C604.799 216.902 603.74 218.613 603.088 220.405C602.437 222.034 602.111 223.663 602.111 225.292ZM727.624 238.489C726.646 238.489 725.75 238.407 724.936 238.244C724.284 238.244 723.388 238.163 722.247 238C718.174 237.185 715.323 234.986 713.694 231.402C712.228 227.655 711.495 223.663 711.495 219.427C711.495 216.821 711.658 214.295 711.983 211.852C712.472 209.245 713.042 206.964 713.694 205.009C712.228 207.616 710.354 210.793 708.073 214.54C705.793 218.124 703.186 221.708 700.253 225.292C697.321 228.877 694.225 231.891 690.967 234.334C687.709 236.778 684.369 238 680.947 238C677.526 238 674.349 237.022 671.417 235.067C668.484 233.112 666.611 230.343 665.796 226.759C665.633 225.944 665.47 225.211 665.307 224.559C665.307 223.745 665.307 223.011 665.307 222.36C665.307 218.124 666.448 213.807 668.729 209.408C671.009 205.009 673.698 199.551 676.793 193.034C675.978 193.034 675.245 192.953 674.594 192.79C674.105 192.627 673.861 191.975 673.861 190.835C677.608 182.363 680.785 175.521 683.391 170.307C686.161 164.931 688.197 161.102 689.501 158.821C691.619 155.237 694.958 153.445 699.52 153.445H714.672C711.902 155.563 709.377 157.925 707.096 160.532C704.978 162.976 702.29 167.538 699.031 174.217C699.031 174.217 698.461 175.358 697.321 177.639C696.18 179.919 694.714 182.771 692.922 186.192C691.293 189.613 689.582 193.116 687.79 196.7C686.161 200.284 684.776 203.38 683.636 205.986C682.006 209.571 680.785 212.911 679.97 216.006C679.155 219.101 678.748 221.79 678.748 224.07C678.748 229.773 680.622 232.624 684.369 232.624C686.975 232.624 689.908 230.994 693.166 227.736C696.914 224.152 700.742 219.183 704.652 212.829C708.725 206.312 712.635 199.47 716.382 192.301C720.129 185.133 723.469 178.535 726.402 172.507C729.334 166.316 731.534 161.754 733 158.821C733.815 157.029 734.874 155.726 736.177 154.911C737.643 153.934 739.68 153.445 742.286 153.445H757.193C756.216 154.423 754.75 155.482 752.795 156.622C751.003 157.763 749.21 159.799 747.418 162.732C745.137 166.642 743.101 170.307 741.309 173.729C739.517 176.987 737.073 181.956 733.978 188.636C733.326 190.102 732.023 192.953 730.067 197.189C728.275 201.425 726.565 206.068 724.936 211.118C723.306 216.169 722.492 220.731 722.492 224.804C722.492 227.41 723.062 229.528 724.202 231.157C725.343 232.787 727.216 233.601 729.823 233.601C734.385 233.601 738.702 231.728 742.775 227.98C747.011 224.233 750.758 219.672 754.017 214.295C757.438 208.919 760.207 203.706 762.325 198.655C762.162 197.352 761.918 195.478 761.592 193.034C761.429 190.428 761.348 188.228 761.348 186.436C761.348 175.846 762.977 166.886 766.235 159.555C769.657 152.06 774.137 148.313 779.676 148.313C782.772 148.313 784.319 149.698 784.319 152.468C784.319 152.956 783.749 154.911 782.609 158.333C781.631 161.591 780.246 165.664 778.454 170.552C776.825 175.439 774.952 180.571 772.834 185.947C770.716 191.324 768.598 196.374 766.48 201.099C766.969 203.869 768.109 206.149 769.901 207.941C771.693 209.734 773.974 210.63 776.744 210.63C780.002 210.63 783.016 209.163 785.786 206.231C788.718 203.135 791.732 198.003 794.828 190.835C796.783 190.835 797.76 191.568 797.76 193.034C795.154 199.551 791.977 204.765 788.229 208.675C784.645 212.585 780.572 214.54 776.011 214.54C770.471 214.54 766.48 211.689 764.036 205.986C759.637 214.784 754.342 222.441 748.151 228.958C742.123 235.312 735.281 238.489 727.624 238.489ZM847.886 238.733C844.139 238.733 840.799 237.674 837.867 235.556C835.097 233.438 833.712 229.121 833.712 222.604C833.712 219.835 833.875 217.228 834.201 214.784C834.69 212.34 835.26 209.734 835.912 206.964C834.446 209.408 832.409 212.422 829.802 216.006C827.196 219.59 824.263 223.093 821.005 226.514C817.909 229.936 814.651 232.787 811.23 235.067C807.971 237.348 804.876 238.489 801.943 238.489C797.707 238.489 794.286 236.615 791.679 232.868C789.073 228.958 787.769 223.908 787.769 217.717C787.769 211.037 789.317 203.869 792.413 196.211C795.508 188.554 799.744 181.223 805.12 174.217C810.496 167.212 816.687 161.51 823.693 157.111C830.698 152.712 838.03 150.513 845.687 150.513C849.434 150.513 853.018 151.164 856.44 152.468C859.861 153.608 862.875 155.563 865.482 158.333C866.622 159.473 867.192 160.777 867.192 162.243C867.192 163.22 866.785 164.035 865.97 164.687C865.156 165.338 864.097 165.501 862.793 165.175C861.001 159.473 857.173 156.622 851.308 156.622C848.538 156.622 845.361 157.518 841.777 159.31C837.378 161.591 832.653 165.257 827.603 170.307C822.715 175.195 818.072 180.816 813.673 187.169C809.438 193.36 805.935 199.633 803.165 205.986C800.396 212.34 799.011 218.124 799.011 223.337C799.011 228.714 801.047 231.402 805.12 231.402C808.704 231.402 812.37 229.691 816.117 226.27C820.027 222.849 823.693 218.613 827.114 213.562C830.698 208.349 833.957 203.217 836.889 198.166C839.822 193.116 842.103 189.043 843.732 185.947C846.176 181.549 848.457 177.883 850.575 174.95C852.692 172.018 855.706 170.552 859.616 170.552C861.409 170.552 863.201 170.796 864.993 171.285C866.785 171.774 868.658 171.855 870.614 171.529C865.726 176.417 861.409 182.2 857.661 188.88C854.077 195.56 851.308 202.158 849.353 208.675C847.398 215.028 846.42 220.405 846.42 224.804C846.42 229.691 848.049 232.135 851.308 232.135C853.914 232.135 856.684 230.669 859.616 227.736C862.712 224.804 865.644 221.138 868.414 216.739C871.347 212.177 874.035 207.616 876.479 203.054C878.922 198.329 880.877 194.256 882.344 190.835C883.158 190.835 883.81 190.916 884.299 191.079C884.95 191.242 885.276 191.894 885.276 193.034C885.113 193.686 884.787 194.419 884.299 195.234C883.973 195.886 883.403 197.107 882.588 198.899C881.285 201.506 879.493 205.009 877.212 209.408C874.931 213.807 872.243 218.287 869.147 222.849C866.052 227.247 862.712 230.994 859.128 234.09C855.544 237.185 851.796 238.733 847.886 238.733ZM858.981 239.955C864.846 228.062 870.467 216.332 875.843 204.765C881.219 193.034 886.758 181.874 892.461 171.285C895.719 165.42 898.489 161.347 900.769 159.066C903.05 156.622 906.064 155.4 909.811 155.4C911.115 155.4 912.5 155.645 913.966 156.133C915.432 156.459 916.898 156.622 918.365 156.622C919.342 156.622 920.075 156.541 920.564 156.378C918.283 157.681 915.269 160.939 911.522 166.153C907.938 171.203 904.272 177.068 900.525 183.748C896.778 190.428 893.438 196.7 890.506 202.565C893.601 198.818 896.859 195.071 900.281 191.324C903.702 187.577 907.449 183.992 911.522 180.571C915.432 177.15 920.075 173.647 925.452 170.063C930.991 166.316 936.367 163.22 941.581 160.777C946.794 158.333 950.948 157.111 954.044 157.111C955.184 157.111 955.999 157.192 956.488 157.355C956.488 157.355 955.592 158.984 953.799 162.243C952.007 165.338 949.727 169.493 946.957 174.706C944.35 179.757 941.662 185.214 938.892 191.079C936.123 196.782 933.598 202.321 931.317 207.697C929.199 212.911 927.814 217.309 927.162 220.894C926.674 223.011 926.429 224.966 926.429 226.759C926.429 229.365 926.918 231.076 927.895 231.891C928.873 232.705 929.932 233.112 931.072 233.112C934.168 233.112 937.345 231.728 940.603 228.958C943.861 226.188 946.957 222.686 949.889 218.45C952.985 214.051 955.836 209.408 958.443 204.52C961.049 199.633 963.249 195.071 965.041 190.835C966.996 190.835 967.973 191.568 967.973 193.034C966.181 197.433 963.9 202.321 961.131 207.697C958.524 212.911 955.51 217.88 952.089 222.604C948.83 227.329 945.165 231.239 941.092 234.334C937.019 237.43 932.62 238.978 927.895 238.978C924.637 238.978 921.216 237.837 917.632 235.556C914.21 233.275 912.5 229.039 912.5 222.849C912.5 221.056 912.663 219.183 912.988 217.228C913.314 215.11 913.884 212.829 914.699 210.385C916.002 207.127 917.55 203.624 919.342 199.877C921.134 196.13 924.067 190.998 928.14 184.481C929.28 182.689 929.932 181.304 930.095 180.327C930.421 179.349 930.584 178.535 930.584 177.883C930.584 175.928 929.688 174.95 927.895 174.95C926.429 174.95 924.23 175.765 921.297 177.394C918.528 179.023 915.025 181.874 910.789 185.947C906.716 189.858 901.828 195.397 896.126 202.565C890.587 209.734 884.152 220.323 876.82 234.334C875.68 236.452 874.377 237.593 872.91 237.756C871.607 237.919 869.733 238.081 867.29 238.244C865.66 238.407 864.113 238.489 862.646 238.489C861.18 238.652 859.958 239.14 858.981 239.955ZM1093.29 260.483C1077.32 260.483 1062.66 258.12 1049.3 253.396C1036.1 248.671 1025.43 241.747 1017.29 232.624C1009.14 223.337 1004.66 211.933 1003.85 198.411C1003.52 192.872 1004.42 186.762 1006.53 180.082C1008.65 173.403 1011.58 166.805 1015.33 160.288C1019.24 153.608 1023.8 147.662 1029.02 142.448C1034.39 137.072 1040.09 132.999 1046.12 130.229C1046.61 129.903 1047.34 129.659 1048.32 129.496C1049.46 129.333 1050.28 129.252 1050.77 129.252C1051.74 129.252 1052.23 129.496 1052.23 129.985C1052.23 130.799 1051.01 132.103 1048.57 133.895C1041.72 139.271 1036.1 145.462 1031.7 152.468C1027.14 159.473 1023.72 166.967 1021.44 174.95C1019.16 182.933 1018.02 190.998 1018.02 199.144C1018.02 208.756 1020.06 217.065 1024.13 224.07C1028.36 230.913 1033.99 236.534 1040.99 240.933C1048 245.494 1055.98 248.834 1064.94 250.952C1073.9 253.07 1083.27 254.129 1093.04 254.129C1103.96 254.129 1114.71 252.907 1125.3 250.463C1136.05 248.02 1145.83 244.517 1154.63 239.955C1168.15 232.787 1178.82 223.908 1186.64 213.318C1194.62 202.728 1198.61 192.22 1198.61 181.793C1198.61 176.254 1197.39 170.959 1194.95 165.908C1192.67 160.858 1188.92 156.296 1183.71 152.223C1179.8 149.128 1174.99 146.195 1169.29 143.426C1163.75 140.656 1157.8 137.968 1151.45 135.361C1145.26 132.754 1139.15 130.148 1133.12 127.541C1127.09 124.771 1121.8 121.839 1117.24 118.743C1110.72 114.345 1105.91 109.62 1102.82 104.57C1099.89 99.5191 1098.42 94.4686 1098.42 89.4181C1098.42 83.3901 1100.13 77.525 1103.55 71.8229C1107.14 66.1207 1111.94 60.9888 1117.97 56.4271C1124.16 51.7024 1131.08 48.0367 1138.74 45.43C1145.42 43.1492 1152.67 41.3571 1160.49 40.0537C1168.47 38.7504 1176.29 38.0987 1183.95 38.0987C1190.31 38.0987 1196.33 38.5875 1202.04 39.565C1207.9 40.3796 1213.03 41.9273 1217.43 44.2081C1222.97 46.8149 1227.21 50.3176 1230.14 54.7164C1233.07 58.9523 1234.54 63.4326 1234.54 68.1572C1234.54 74.674 1231.61 80.3761 1225.74 85.2637C1223.62 86.8929 1221.26 88.4406 1218.65 89.9069C1216.05 91.2102 1212.95 92.3506 1209.37 93.3282C1208.72 93.4911 1207.98 93.5725 1207.17 93.5725C1205.21 93.5725 1204.24 93.0023 1204.24 91.8619C1204.24 91.2102 1204.72 90.5585 1205.7 89.9069C1206.84 89.0923 1208.47 88.6035 1210.59 88.4406C1215.48 87.7889 1219.14 85.9153 1221.59 82.8199C1224.19 79.7244 1225.5 76.1402 1225.5 72.0673C1225.5 67.8314 1224.03 63.6769 1221.1 59.604C1218.33 55.3681 1214.01 51.8653 1208.15 49.0957C1202.28 46.1632 1194.79 44.6969 1185.66 44.6969C1180.45 44.6969 1174.67 45.2671 1168.31 46.4076C1162.12 47.548 1155.36 49.4216 1148.03 52.0282C1139.07 55.1237 1131.57 59.6854 1125.55 65.7134C1119.68 71.7414 1116.75 78.1767 1116.75 85.0193C1116.75 89.2552 1118.13 93.5725 1120.9 97.9713C1123.84 102.207 1128.48 106.28 1134.83 110.19C1140.21 113.449 1146.32 116.707 1153.16 119.965C1160 123.061 1166.93 126.238 1173.93 129.496C1180.94 132.592 1187.29 135.931 1192.99 139.516C1201.95 145.055 1208.39 151.001 1212.3 157.355C1216.21 163.709 1218.17 170.226 1218.17 176.905C1218.17 184.726 1215.8 192.627 1211.08 200.61C1206.52 208.43 1200.49 215.843 1192.99 222.849C1185.5 229.691 1177.27 235.801 1168.31 241.177C1157.89 247.368 1146.07 252.092 1132.88 255.351C1119.84 258.772 1106.65 260.483 1093.29 260.483ZM1240.82 238C1239.03 238 1236.83 237.593 1234.22 236.778C1231.78 235.964 1229.58 234.497 1227.63 232.379C1225.83 230.098 1224.94 226.759 1224.94 222.36C1224.94 218.124 1226.32 213.236 1229.09 207.697C1231.86 202.158 1234.3 197.27 1236.42 193.034C1234.63 193.034 1233.73 192.301 1233.73 190.835C1233.9 190.346 1234.63 188.799 1235.93 186.192C1237.24 183.585 1238.79 180.49 1240.58 176.905C1242.37 173.321 1244.08 169.9 1245.71 166.642C1247.5 163.22 1248.89 160.614 1249.86 158.821C1251.82 155.237 1254.91 153.445 1259.15 153.445H1274.3C1271.53 155.563 1269.01 157.925 1266.73 160.532C1264.61 162.976 1261.92 167.538 1258.66 174.217C1258.66 174.217 1258.09 175.358 1256.95 177.639C1255.81 179.919 1254.34 182.852 1252.55 186.436C1250.92 189.858 1249.21 193.36 1247.42 196.944C1245.79 200.529 1244.41 203.543 1243.27 205.986C1241.15 210.548 1239.76 214.214 1239.11 216.983C1238.46 219.59 1238.13 222.034 1238.13 224.315C1238.13 229.691 1239.93 232.379 1243.51 232.379C1247.42 232.379 1252.14 229.202 1257.68 222.849C1262.25 217.472 1266.73 211.037 1271.12 203.543C1275.52 196.048 1279.68 188.31 1283.59 180.327C1287.66 172.344 1291.24 165.175 1294.34 158.821C1296.13 155.237 1299.31 153.445 1303.87 153.445H1317.31C1313.73 156.378 1310.06 160.777 1306.31 166.642C1302.73 172.507 1298.74 180.001 1294.34 189.124C1293.2 191.568 1291.73 194.664 1289.94 198.411C1288.15 202.158 1286.52 206.149 1285.05 210.385C1283.75 214.621 1283.1 218.857 1283.1 223.093C1283.1 228.795 1285.14 231.646 1289.21 231.646C1294.75 231.646 1300.12 227.818 1305.34 220.16C1310.55 212.503 1315.68 202.728 1320.73 190.835C1322.04 190.835 1322.77 190.916 1322.93 191.079C1323.26 191.242 1323.5 191.894 1323.67 193.034C1321.87 197.433 1319.67 202.239 1317.07 207.453C1314.62 212.503 1311.77 217.391 1308.51 222.115C1305.42 226.84 1301.92 230.669 1298.01 233.601C1294.26 236.534 1290.1 238 1285.54 238C1281.47 238 1278.13 236.534 1275.52 233.601C1272.92 230.506 1271.61 226.188 1271.61 220.649C1271.61 216.25 1272.43 211.526 1274.06 206.475C1271.29 211.363 1268.11 216.25 1264.53 221.138C1260.94 226.025 1257.11 230.098 1253.04 233.357C1248.97 236.452 1244.89 238 1240.82 238ZM1297.14 239.955C1303.98 225.944 1311.07 211.281 1318.4 195.967C1325.89 180.49 1333.55 164.931 1341.37 149.291C1349.19 133.651 1356.93 118.743 1364.59 104.57C1367.36 99.682 1369.88 95.8534 1372.16 93.0838C1374.61 90.3142 1377.78 88.9293 1381.69 88.9293C1383.16 88.9293 1384.87 89.1737 1386.82 89.6625C1388.78 90.1512 1390.65 90.2327 1392.44 89.9069C1390.33 92.1877 1387.39 96.1792 1383.65 101.881C1380.06 107.584 1375.99 114.426 1371.43 122.409C1367.03 130.392 1362.3 139.027 1357.25 148.313C1352.37 157.437 1347.48 166.723 1342.59 176.172C1337.87 185.459 1333.47 194.175 1329.4 202.321C1332.65 198.085 1335.99 194.093 1339.41 190.346C1342.84 186.599 1346.18 183.341 1349.43 180.571C1353.02 177.313 1357.5 173.891 1362.88 170.307C1368.41 166.723 1373.87 163.628 1379.25 161.021C1384.79 158.414 1389.19 157.111 1392.44 157.111C1393.59 157.111 1394.4 157.192 1394.89 157.355C1394.89 157.355 1393.99 158.984 1392.2 162.243C1390.41 165.501 1388.13 169.656 1385.36 174.706C1382.75 179.757 1379.98 185.214 1377.05 191.079C1374.28 196.944 1371.84 202.565 1369.72 207.941C1367.6 213.155 1366.21 217.472 1365.56 220.894C1365.07 223.5 1364.83 225.7 1364.83 227.492C1364.83 230.098 1365.32 231.891 1366.3 232.868C1367.27 233.683 1368.33 234.09 1369.47 234.09C1372.24 234.09 1375.18 232.705 1378.27 229.936C1381.53 227.003 1384.71 223.337 1387.8 218.939C1390.9 214.54 1393.75 209.897 1396.35 205.009C1399.12 199.958 1401.32 195.234 1402.95 190.835C1404.91 190.835 1405.89 191.568 1405.89 193.034C1404.09 197.433 1401.81 202.321 1399.04 207.697C1396.44 212.911 1393.42 217.88 1390 222.604C1386.58 227.329 1382.83 231.239 1378.76 234.334C1374.69 237.43 1370.37 238.978 1365.81 238.978C1362.55 238.978 1359.21 237.837 1355.79 235.556C1352.37 233.275 1350.66 229.121 1350.66 223.093C1350.66 221.301 1350.82 219.427 1351.14 217.472C1351.47 215.354 1352.04 212.992 1352.86 210.385C1353.83 207.127 1355.46 203.543 1357.74 199.633C1360.02 195.56 1362.96 190.509 1366.54 184.481C1368.17 181.712 1368.98 179.512 1368.98 177.883C1368.98 175.928 1368.01 174.95 1366.05 174.95C1364.42 174.95 1362.22 175.765 1359.45 177.394C1356.68 179.023 1353.18 181.874 1348.95 185.947C1344.87 189.858 1339.82 195.56 1333.79 203.054C1327.77 210.548 1321.33 221.056 1314.49 234.579C1313.35 236.697 1312.04 237.837 1310.58 238C1309.27 238 1307.48 238.081 1305.2 238.244C1303.74 238.407 1302.27 238.489 1300.8 238.489C1299.34 238.652 1298.11 239.14 1297.14 239.955ZM1420.53 238.978C1414.5 238.978 1409.05 237.022 1404.16 233.112C1399.43 229.202 1397.07 223.256 1397.07 215.273C1397.07 207.941 1398.86 200.121 1402.45 191.813C1406.03 183.341 1410.59 175.928 1416.13 169.574C1420.86 164.035 1426.15 159.473 1432.02 155.889C1437.88 152.305 1443.42 150.513 1448.64 150.513C1452.22 150.513 1455.32 151.49 1457.92 153.445C1460.69 155.563 1462.08 158.577 1462.08 162.487C1462.08 166.56 1460.53 171.04 1457.43 175.928C1454.34 180.816 1449.94 185.377 1444.24 189.613C1441.79 191.405 1438.7 193.116 1434.95 194.745C1431.2 196.374 1427.46 197.759 1423.71 198.899C1419.96 199.877 1416.87 200.366 1414.42 200.366C1413.61 202.321 1412.79 204.927 1411.98 208.186C1411.33 211.444 1411 214.784 1411 218.205C1411 222.278 1411.82 225.944 1413.45 229.202C1415.08 232.461 1418.09 234.09 1422.49 234.09C1428.19 234.09 1434.06 232.216 1440.08 228.469C1446.11 224.559 1451.81 219.753 1457.19 214.051C1462.57 208.186 1467.05 202.402 1470.63 196.7C1472.75 192.301 1474.87 187.984 1476.98 183.748C1479.1 179.512 1481.22 175.358 1483.34 171.285C1486.6 165.42 1489.28 161.347 1491.4 159.066C1493.68 156.622 1496.7 155.4 1500.44 155.4C1501.75 155.4 1503.13 155.645 1504.6 156.133C1506.07 156.459 1507.53 156.622 1509 156.622C1509.98 156.622 1510.71 156.541 1511.2 156.378C1508.92 157.681 1505.98 160.939 1502.4 166.153C1498.82 171.203 1495.15 177.068 1491.4 183.748C1487.66 190.428 1484.32 196.7 1481.38 202.565C1484.48 198.818 1487.66 195.071 1490.91 191.324C1494.34 187.577 1498.08 183.992 1502.16 180.571C1505.74 177.476 1509.49 174.136 1513.4 170.552C1517.47 166.805 1521.46 163.628 1525.37 161.021C1529.28 158.414 1532.7 157.111 1535.64 157.111C1536.78 157.111 1537.51 157.192 1537.83 157.355C1540.93 158.659 1542.48 160.777 1542.48 163.709C1542.48 164.687 1542.07 166.153 1541.26 168.108C1539.14 173.647 1536.37 179.349 1532.95 185.214C1529.69 190.916 1526.59 196.7 1523.66 202.565C1526.1 199.633 1529.12 196.048 1532.7 191.813C1536.45 187.577 1540.2 183.83 1543.94 180.571C1547.53 177.313 1552.09 173.891 1557.63 170.307C1563.17 166.723 1568.63 163.628 1574 161.021C1579.38 158.414 1583.7 157.111 1586.95 157.111C1588.09 157.111 1588.91 157.192 1589.4 157.355C1589.4 157.355 1588.5 158.984 1586.71 162.243C1584.92 165.338 1582.64 169.493 1579.87 174.706C1577.26 179.757 1574.57 185.214 1571.8 191.079C1569.03 196.782 1566.51 202.321 1564.23 207.697C1562.11 212.911 1560.72 217.309 1560.07 220.894C1559.58 223.011 1559.34 224.966 1559.34 226.759C1559.34 229.365 1559.83 231.076 1560.81 231.891C1561.78 232.705 1562.84 233.112 1563.98 233.112C1567.24 233.112 1570.42 231.728 1573.51 228.958C1576.77 226.188 1579.95 222.686 1583.04 218.45C1586.14 214.051 1588.91 209.408 1591.35 204.52C1593.96 199.633 1596.16 195.071 1597.95 190.835C1599.91 190.835 1600.88 191.568 1600.88 193.034C1599.09 197.433 1596.81 202.321 1594.04 207.697C1591.43 212.911 1588.42 217.88 1585 222.604C1581.58 227.329 1577.83 231.239 1573.76 234.334C1569.69 237.43 1565.29 238.978 1560.56 238.978C1557.14 238.978 1553.88 237.837 1550.79 235.556C1547.85 233.275 1546.39 229.039 1546.39 222.849C1546.39 216.169 1547.94 209.489 1551.03 202.81C1554.29 196.13 1557.63 190.02 1561.05 184.481C1562.68 181.712 1563.49 179.512 1563.49 177.883C1563.49 175.928 1562.52 174.95 1560.56 174.95C1558.93 174.95 1556.65 175.765 1553.72 177.394C1550.95 179.023 1547.45 181.874 1543.21 185.947C1540.6 188.391 1537.51 191.813 1533.92 196.211C1530.5 200.447 1527 205.09 1523.42 210.141C1519.83 215.191 1516.74 220.16 1514.13 225.048C1511.52 229.936 1509.81 234.253 1509 238C1506.55 238 1504.6 237.022 1503.13 235.067C1501.67 232.95 1500.93 230.506 1500.93 227.736C1500.93 227.247 1500.93 226.759 1500.93 226.27C1500.93 225.781 1501.01 225.211 1501.18 224.559C1501.99 219.509 1503.3 215.273 1505.09 211.852C1506.88 208.267 1508.92 204.113 1511.2 199.388C1512.34 197.27 1513.64 194.827 1515.11 192.057C1516.57 189.124 1517.88 186.355 1519.02 183.748C1520.16 180.978 1520.73 178.698 1520.73 176.905C1520.73 175.276 1520.08 174.462 1518.77 174.462C1517.31 174.462 1515.35 175.195 1512.91 176.661C1510.63 178.127 1508.43 179.838 1506.31 181.793C1504.19 183.585 1502.56 184.97 1501.42 185.947C1497.35 189.858 1492.38 195.478 1486.52 202.81C1480.81 210.141 1474.54 220.568 1467.7 234.09C1466.72 235.882 1465.58 237.022 1464.28 237.511C1462.97 237.837 1460.94 238 1458.17 238C1456.38 238 1454.83 238 1453.52 238C1452.38 238.163 1451.16 238.57 1449.86 239.222L1460.86 217.228C1455.32 223.256 1449.04 228.388 1442.04 232.624C1435.2 236.86 1428.03 238.978 1420.53 238.978ZM1416.13 195.967C1418.41 195.967 1422.24 195.152 1427.62 193.523C1433 191.731 1437.88 188.961 1442.28 185.214C1446.52 181.467 1449.78 177.394 1452.06 172.995C1454.34 168.434 1455.48 164.605 1455.48 161.51C1455.48 157.925 1454.18 156.133 1451.57 156.133C1449.61 156.133 1446.93 157.437 1443.5 160.043C1440.08 162.65 1435.85 167.049 1430.8 173.24C1427.7 177.15 1424.77 181.386 1422 185.947C1419.23 190.509 1417.27 193.849 1416.13 195.967ZM1564.19 315.957C1555.72 315.957 1549.69 314.246 1546.11 310.825C1542.52 307.566 1540.73 303.656 1540.73 299.095C1540.73 292.089 1543.34 285.572 1548.55 279.544C1553.6 273.679 1559.87 268.955 1567.37 265.37C1575.84 261.46 1585.45 258.283 1596.2 255.84C1607.12 253.396 1617.55 250.708 1627.49 247.775C1630.58 242.399 1633.43 236.289 1636.04 229.447C1638.64 222.441 1641.01 215.68 1643.13 209.163C1645.24 202.484 1646.95 197.026 1648.26 192.79C1646.3 196.374 1643.78 200.773 1640.68 205.986C1637.75 211.037 1634.41 216.006 1630.66 220.894C1626.91 225.781 1622.84 229.854 1618.44 233.112C1614.21 236.371 1609.73 238 1605 238C1603.21 238 1601.01 237.593 1598.4 236.778C1595.96 235.964 1593.76 234.497 1591.81 232.379C1590.01 230.098 1589.12 226.759 1589.12 222.36C1589.12 218.124 1590.42 213.481 1593.03 208.43C1595.63 203.217 1598.24 198.085 1600.85 193.034C1600.03 193.034 1599.3 192.953 1598.65 192.79C1598.16 192.627 1597.92 191.975 1597.92 190.835C1598.4 189.858 1599.38 187.74 1600.85 184.481C1602.31 181.223 1603.94 177.639 1605.74 173.729C1607.69 169.819 1609.4 166.397 1610.87 163.465C1612.66 159.718 1614.61 157.111 1616.73 155.645C1619.01 154.178 1621.21 153.445 1623.33 153.445H1638.48C1637.34 154.423 1635.88 155.563 1634.08 156.866C1632.45 158.007 1630.91 159.799 1629.44 162.243C1625.04 169.737 1621.21 176.987 1617.95 183.992C1614.7 190.835 1611.19 198.166 1607.45 205.986C1605.65 209.734 1604.35 213.155 1603.54 216.25C1602.72 219.346 1602.31 222.034 1602.31 224.315C1602.31 229.691 1604.11 232.379 1607.69 232.379C1611.6 232.379 1616.33 229.202 1621.86 222.849C1626.43 217.472 1630.99 211.118 1635.55 203.787C1640.27 196.293 1644.75 188.636 1648.99 180.816C1653.39 172.832 1657.22 165.501 1660.48 158.821C1662.27 155.237 1665.45 153.445 1670.01 153.445H1683.45C1678.72 156.704 1675.06 160.939 1672.45 166.153C1670.01 171.366 1667.24 178.046 1664.14 186.192C1660.72 195.152 1657.46 204.439 1654.37 214.051C1651.27 223.663 1647.85 233.52 1644.1 243.621C1652.09 240.851 1658.77 237.267 1664.14 232.868C1669.52 228.469 1674.24 222.849 1678.32 216.006C1682.55 209 1686.79 200.61 1691.02 190.835C1692.98 190.835 1693.96 191.568 1693.96 193.034C1690.37 200.529 1687.11 207.127 1684.18 212.829C1681.25 218.531 1677.99 223.582 1674.41 227.98C1670.82 232.216 1666.34 236.126 1660.96 239.711C1655.59 243.458 1648.66 247.042 1640.19 250.463C1636.28 257.469 1631.8 264.719 1626.75 272.213C1621.86 279.87 1616.24 286.957 1609.89 293.474C1603.7 300.154 1596.77 305.53 1589.12 309.603C1581.62 313.839 1573.31 315.957 1564.19 315.957ZM1558.33 311.069C1563.7 311.069 1569.24 309.44 1574.94 306.181C1580.65 302.923 1586.19 298.769 1591.56 293.718C1596.94 288.831 1601.83 283.78 1606.22 278.567C1610.79 273.516 1614.45 269.036 1617.22 265.126C1618.04 263.986 1618.93 262.519 1619.91 260.727C1620.89 258.935 1621.86 257.224 1622.84 255.595C1614.86 257.713 1606.06 259.994 1596.45 262.438C1587 265.045 1578.77 267.896 1571.77 270.991C1563.95 274.249 1557.84 278.893 1553.44 284.921C1548.88 290.949 1546.6 296.325 1546.6 301.05C1546.6 303.982 1547.57 306.344 1549.53 308.137C1551.32 310.092 1554.25 311.069 1558.33 311.069ZM635.642 553.531C632.058 553.531 627.903 553.123 623.179 552.309C618.617 551.657 614.137 550.435 609.738 548.643C605.502 546.851 601.918 544.326 598.985 541.067C596.216 537.646 594.831 533.41 594.831 528.36C594.831 522.332 597.519 516.874 602.895 511.986C608.272 506.936 615.847 504.411 625.623 504.411C632.791 504.411 639.471 505.633 645.662 508.076C651.852 510.357 657.88 513.208 663.746 516.63C669.774 519.888 675.964 523.146 682.318 526.405C690.464 518.585 697.877 508.891 704.557 497.324C711.399 485.757 718.16 473.375 724.84 460.178C731.683 446.819 739.014 433.46 746.834 420.1C754.817 406.741 764.022 394.196 774.449 382.466L788.623 366.581C782.595 365.604 776.322 364.871 769.806 364.382C763.289 363.73 756.528 363.405 749.522 363.405C739.91 363.405 729.402 364.219 717.998 365.848C706.756 367.478 695.515 370.003 684.273 373.424C673.195 376.845 663.012 381.163 653.726 386.376C644.603 391.59 637.271 397.78 631.732 404.949C626.193 412.117 623.423 420.345 623.423 429.631C623.423 435.985 624.808 441.035 627.578 444.782C630.51 448.53 634.094 451.299 638.33 453.091C642.729 454.721 647.128 455.535 651.527 455.535C658.858 455.535 665.049 453.906 670.099 450.648C675.15 447.226 678.897 443.316 681.341 438.917C683.947 434.519 685.251 430.609 685.251 427.187C685.251 426.047 686.065 425.477 687.695 425.477C689.324 425.477 690.138 426.78 690.138 429.387C690.138 436.066 688.102 441.85 684.029 446.738C679.956 451.625 674.824 455.372 668.633 457.979C662.605 460.586 656.496 461.889 650.305 461.889C644.603 461.889 638.738 460.504 632.71 457.735C626.844 454.965 621.957 450.81 618.047 445.271C614.137 439.732 612.182 432.889 612.182 424.743C612.182 414.968 614.951 406.334 620.491 398.839C626.03 391.182 633.443 384.665 642.729 379.289C652.015 373.913 662.361 369.514 673.765 366.093C685.169 362.509 696.655 359.902 708.222 358.273C719.953 356.643 730.95 355.829 741.213 355.829C750.663 355.829 759.868 356.318 768.828 357.295C777.952 358.11 786.505 359.413 794.488 361.205C796.769 359.25 799.05 357.539 801.33 356.073C803.774 354.607 805.974 353.467 807.929 352.652C809.721 351.837 811.187 351.43 812.327 351.43C813.631 351.43 814.282 351.919 814.282 352.896C814.282 353.385 813.386 354.281 811.594 355.584C809.476 357.214 807.603 358.761 805.974 360.228C804.507 361.531 803.611 362.509 803.285 363.16C819.903 367.396 833.344 373.261 843.608 380.755C854.035 388.087 859.248 396.803 859.248 406.904C859.248 415.213 856.397 422.544 850.695 428.898C844.993 435.089 837.498 439.976 828.212 443.561C819.089 447.145 809.313 449.181 798.887 449.67C813.549 454.395 825.198 460.504 833.833 467.998C842.63 475.493 847.029 485.023 847.029 496.591C847.029 505.225 844.504 513.045 839.453 520.051C834.566 527.056 827.968 533.084 819.659 538.135C811.513 543.022 802.552 546.77 792.777 549.376C783.002 552.146 773.308 553.531 763.696 553.531C748.545 553.531 735.104 551.983 723.374 548.888C711.807 545.792 699.751 541.393 687.206 535.691C671.403 547.584 654.215 553.531 635.642 553.531ZM760.275 546.444C770.376 546.444 779.581 544.896 787.89 541.801C796.198 538.705 803.367 534.632 809.395 529.582C815.586 524.531 820.31 518.911 823.569 512.72C826.99 506.529 828.701 500.419 828.701 494.391C828.701 488.689 826.99 483.231 823.569 478.018C820.148 472.642 814.771 468.161 807.44 464.577C797.991 459.852 789.682 456.594 782.513 454.802C775.345 452.847 769.643 451.055 765.407 449.426C763.778 448.611 762.719 448.041 762.23 447.715C761.741 447.389 761.497 447.063 761.497 446.738C761.497 445.108 762.311 443.805 763.941 442.827C765.57 441.85 767.443 441.361 769.561 441.361C772.82 441.361 776.322 441.606 780.07 442.094C783.817 442.583 787.808 442.827 792.044 442.827C802.634 442.827 811.757 440.71 819.414 436.474C827.072 432.238 832.937 426.943 837.01 420.589C841.246 414.235 843.363 407.963 843.363 401.772C843.363 394.766 840.268 388.657 834.077 383.444C827.886 378.067 816.645 373.261 800.353 369.025C792.207 380.267 784.061 392.893 775.915 406.904C767.769 420.752 759.623 434.844 751.477 449.181C743.331 463.355 735.104 476.796 726.795 489.504C718.486 502.211 710.177 513.127 701.869 522.25C699.914 524.368 698.366 525.997 697.225 527.138C696.085 528.115 694.537 529.5 692.582 531.292C702.357 535.365 713.11 538.95 724.84 542.045C736.57 544.978 748.382 546.444 760.275 546.444ZM630.755 545.955C639.878 546.444 648.187 545.385 655.681 542.778C663.338 540.008 670.425 536.18 676.942 531.292C673.032 529.337 668.063 526.812 662.035 523.717C656.007 520.621 649.897 517.933 643.707 515.652C637.516 513.208 632.139 511.986 627.578 511.986C621.55 511.986 616.988 513.616 613.892 516.874C610.797 519.969 609.249 523.554 609.249 527.627C609.249 531.863 611.041 535.936 614.626 539.846C618.21 543.593 623.586 545.629 630.755 545.955ZM917.095 544.733C913.348 544.733 910.008 543.674 907.075 541.556C904.306 539.438 902.921 535.121 902.921 528.604C902.921 525.835 903.084 523.228 903.41 520.784C903.899 518.34 904.469 515.734 905.12 512.964C903.654 515.408 901.618 518.422 899.011 522.006C896.404 525.59 893.472 529.093 890.213 532.514C887.118 535.936 883.86 538.787 880.438 541.067C877.18 543.348 874.084 544.489 871.152 544.489C866.916 544.489 863.495 542.615 860.888 538.868C858.281 534.958 856.978 529.908 856.978 523.717C856.978 517.037 858.526 509.869 861.621 502.211C864.717 494.554 868.952 487.223 874.329 480.217C879.705 473.212 885.896 467.51 892.902 463.111C899.907 458.712 907.238 456.513 914.896 456.513C918.643 456.513 922.227 457.164 925.648 458.468C929.069 459.608 932.083 461.563 934.69 464.333C935.831 465.473 936.401 466.777 936.401 468.243C936.401 469.22 935.994 470.035 935.179 470.687C934.364 471.338 933.305 471.501 932.002 471.175C930.21 465.473 926.381 462.622 920.516 462.622C917.747 462.622 914.57 463.518 910.986 465.31C906.587 467.591 901.862 471.257 896.812 476.307C891.924 481.195 887.281 486.816 882.882 493.169C878.646 499.36 875.143 505.633 872.374 511.986C869.604 518.34 868.219 524.124 868.219 529.337C868.219 534.714 870.256 537.402 874.329 537.402C877.913 537.402 881.579 535.691 885.326 532.27C889.236 528.849 892.902 524.613 896.323 519.562C899.907 514.349 903.165 509.217 906.098 504.166C909.03 499.116 911.311 495.043 912.941 491.947C915.384 487.549 917.665 483.883 919.783 480.95C921.901 478.018 924.915 476.552 928.825 476.552C930.617 476.552 932.409 476.796 934.201 477.285C935.994 477.774 937.867 477.855 939.822 477.529C934.935 482.417 930.617 488.2 926.87 494.88C923.286 501.56 920.516 508.158 918.561 514.675C916.606 521.028 915.629 526.405 915.629 530.804C915.629 535.691 917.258 538.135 920.516 538.135C923.123 538.135 925.893 536.669 928.825 533.736C931.921 530.804 934.853 527.138 937.623 522.739C940.555 518.177 943.243 513.616 945.687 509.054C948.131 504.329 950.086 500.256 951.552 496.835C952.367 496.835 953.019 496.916 953.507 497.079C954.159 497.242 954.485 497.894 954.485 499.034C954.322 499.686 953.996 500.419 953.507 501.234C953.181 501.886 952.611 503.107 951.797 504.899C950.493 507.506 948.701 511.009 946.42 515.408C944.139 519.807 941.451 524.287 938.356 528.849C935.26 533.247 931.921 536.994 928.336 540.09C924.752 543.185 921.005 544.733 917.095 544.733ZM1002.24 414.968C1000.12 418.064 997.756 421.974 995.149 426.699C992.542 431.423 990.099 435.985 987.818 440.384C985.7 444.782 984.071 448.122 982.93 450.403H1005.41C1005.41 451.055 1005.09 452.114 1004.44 453.58C1003.95 455.046 1002.89 456.105 1001.26 456.757H979.998C978.043 461.156 975.762 466.451 973.155 472.642C970.711 478.832 968.267 485.268 965.824 491.947C963.543 498.627 961.588 504.9 959.959 510.765C958.492 516.467 957.759 521.11 957.759 524.694C957.759 529.582 958.411 533.247 959.714 535.691C961.018 537.972 963.38 539.112 966.801 539.112C971.2 539.112 975.436 536.994 979.509 532.759C983.582 528.36 987.41 522.902 990.995 516.385C994.742 509.869 998 503.352 1000.77 496.835C1002.72 496.835 1003.7 497.568 1003.7 499.034C1001.91 503.433 999.711 508.239 997.104 513.453C994.497 518.666 991.483 523.717 988.062 528.604C984.804 533.329 981.057 537.239 976.821 540.334C972.748 543.267 968.186 544.733 963.135 544.733C956.293 544.733 951.65 542.86 949.206 539.112C946.762 535.202 945.54 530.233 945.54 524.205C945.54 519.807 946.355 514.512 947.984 508.321C949.613 501.967 951.568 495.45 953.849 488.771C956.293 482.091 958.655 475.9 960.936 470.198C963.217 464.333 965.009 459.852 966.312 456.757H950.672C950.672 455.454 951.242 454.069 952.383 452.603C953.523 451.136 954.745 450.403 956.049 450.403H969.001C970.304 447.796 971.77 444.538 973.399 440.628C975.191 436.718 977.554 432.401 980.486 427.676C982.93 423.766 986.026 420.671 989.773 418.39C993.683 416.109 997.837 414.968 1002.24 414.968ZM1007.9 544C1006.11 544 1003.91 543.593 1001.3 542.778C998.857 541.964 996.657 540.497 994.702 538.379C992.91 536.098 992.014 532.759 992.014 528.36C992.014 524.124 993.399 519.236 996.168 513.697C998.938 508.158 1001.38 503.27 1003.5 499.034C1001.71 499.034 1000.81 498.301 1000.81 496.835C1000.97 496.346 1001.71 494.799 1003.01 492.192C1004.31 489.585 1005.86 486.49 1007.65 482.905C1009.45 479.321 1011.16 475.9 1012.79 472.642C1014.58 469.22 1015.96 466.614 1016.94 464.821C1018.9 461.237 1021.99 459.445 1026.23 459.445H1041.38C1038.61 461.563 1036.08 463.925 1033.8 466.532C1031.68 468.976 1029 473.538 1025.74 480.217C1025.74 480.217 1025.17 481.358 1024.03 483.639C1022.89 485.919 1021.42 488.852 1019.63 492.436C1018 495.858 1016.29 499.36 1014.5 502.944C1012.87 506.529 1011.48 509.543 1010.34 511.986C1008.22 516.548 1006.84 520.214 1006.19 522.983C1005.54 525.59 1005.21 528.034 1005.21 530.315C1005.21 535.691 1007 538.379 1010.59 538.379C1014.5 538.379 1019.22 535.202 1024.76 528.849C1029.32 523.472 1033.8 517.037 1038.2 509.543C1042.6 502.048 1046.75 494.31 1050.66 486.327C1054.74 478.344 1058.32 471.175 1061.42 464.821C1063.21 461.237 1066.39 459.445 1070.95 459.445H1084.39C1080.8 462.378 1077.14 466.777 1073.39 472.642C1069.81 478.507 1065.82 486.001 1061.42 495.124C1060.28 497.568 1058.81 500.664 1057.02 504.411C1055.23 508.158 1053.6 512.149 1052.13 516.385C1050.83 520.621 1050.18 524.857 1050.18 529.093C1050.18 534.795 1052.21 537.646 1056.29 537.646C1061.82 537.646 1067.2 533.818 1072.41 526.16C1077.63 518.503 1082.76 508.728 1087.81 496.835C1089.11 496.835 1089.85 496.916 1090.01 497.079C1090.34 497.242 1090.58 497.894 1090.74 499.034C1088.95 503.433 1086.75 508.239 1084.14 513.453C1081.7 518.503 1078.85 523.391 1075.59 528.115C1072.5 532.84 1068.99 536.669 1065.08 539.601C1061.34 542.534 1057.18 544 1052.62 544C1048.55 544 1045.21 542.534 1042.6 539.601C1039.99 536.506 1038.69 532.188 1038.69 526.649C1038.69 522.25 1039.5 517.526 1041.13 512.475C1038.36 517.363 1035.19 522.25 1031.6 527.138C1028.02 532.025 1024.19 536.098 1020.12 539.357C1016.04 542.452 1011.97 544 1007.9 544ZM1102.83 545.222C1096.15 545.222 1091.42 543.185 1088.65 539.112C1085.88 535.039 1084.5 530.07 1084.5 524.205C1084.5 520.132 1084.91 516.304 1085.72 512.72C1086.7 509.135 1088.08 505.062 1089.87 500.501H1089.39C1088.08 500.501 1087.43 499.849 1087.43 498.546C1087.43 497.894 1088.08 496.02 1089.39 492.925C1090.85 489.83 1092.64 486.082 1094.76 481.684C1097.04 477.285 1099.32 472.805 1101.6 468.243C1104.05 463.681 1106.25 459.608 1108.2 456.024C1111.46 449.996 1115.05 443.805 1118.96 437.451C1122.87 430.934 1126.69 424.743 1130.44 418.878C1134.35 413.013 1137.61 408.207 1140.22 404.46C1146.08 396.314 1151.54 392.241 1156.59 392.241H1157.81C1159.28 392.241 1160.91 392.486 1162.7 392.974C1164.65 393.463 1166.45 393.545 1168.08 393.219C1165.63 395.825 1161.88 400.55 1156.83 407.393C1151.95 414.072 1146.57 421.729 1140.7 430.364C1138.26 433.948 1135.17 438.754 1131.42 444.782C1127.83 450.81 1124.01 457.572 1119.93 465.066C1115.86 472.56 1112.03 480.217 1108.45 488.037C1105.03 495.695 1102.17 503.189 1099.89 510.52C1097.61 517.689 1096.47 524.124 1096.47 529.826C1096.47 533.573 1097.12 536.18 1098.43 537.646C1099.73 539.112 1101.36 539.846 1103.31 539.846C1105.76 539.846 1108.61 538.461 1111.87 535.691C1115.29 532.759 1118.71 529.011 1122.13 524.45C1125.72 519.725 1128.97 514.593 1131.91 509.054C1134.84 503.352 1137.2 497.65 1138.99 491.947C1140.95 486.082 1141.93 480.706 1141.93 475.819C1141.93 471.094 1141.03 467.673 1139.24 465.555C1137.61 463.437 1135.41 462.378 1132.64 462.378C1131.5 462.378 1130.36 462.704 1129.22 463.355C1128.08 463.844 1127.1 464.088 1126.29 464.088C1125.47 464.088 1125.06 463.681 1125.06 462.866C1125.06 462.052 1125.88 461.156 1127.51 460.178C1129.3 459.201 1131.91 458.712 1135.33 458.712C1138.42 458.712 1141.52 459.527 1144.61 461.156C1147.87 462.785 1150.56 465.473 1152.68 469.22C1154.8 472.805 1155.86 477.529 1155.86 483.394C1155.86 490.4 1154.23 497.568 1150.97 504.899C1147.71 512.068 1143.47 518.748 1138.26 524.939C1133.05 530.967 1127.26 535.854 1120.91 539.601C1114.72 543.348 1108.69 545.222 1102.83 545.222ZM1220.9 544.733C1217.15 544.733 1213.81 543.674 1210.88 541.556C1208.11 539.438 1206.72 535.121 1206.72 528.604C1206.72 525.835 1206.89 523.228 1207.21 520.784C1207.7 518.34 1208.27 515.734 1208.92 512.964C1207.46 515.408 1205.42 518.422 1202.81 522.006C1200.21 525.59 1197.27 529.093 1194.02 532.514C1190.92 535.936 1187.66 538.787 1184.24 541.067C1180.98 543.348 1177.89 544.489 1174.95 544.489C1170.72 544.489 1167.3 542.615 1164.69 538.868C1162.08 534.958 1160.78 529.908 1160.78 523.717C1160.78 517.037 1162.33 509.869 1165.42 502.211C1168.52 494.554 1172.75 487.223 1178.13 480.217C1183.51 473.212 1189.7 467.51 1196.7 463.111C1203.71 458.712 1211.04 456.513 1218.7 456.513C1222.44 456.513 1226.03 457.164 1229.45 458.468C1232.87 459.608 1235.89 461.563 1238.49 464.333C1239.63 465.473 1240.2 466.777 1240.2 468.243C1240.2 469.22 1239.8 470.035 1238.98 470.687C1238.17 471.338 1237.11 471.501 1235.8 471.175C1234.01 465.473 1230.18 462.622 1224.32 462.622C1221.55 462.622 1218.37 463.518 1214.79 465.31C1210.39 467.591 1205.66 471.257 1200.61 476.307C1195.73 481.195 1191.08 486.816 1186.68 493.169C1182.45 499.36 1178.95 505.633 1176.18 511.986C1173.41 518.34 1172.02 524.124 1172.02 529.337C1172.02 534.714 1174.06 537.402 1178.13 537.402C1181.72 537.402 1185.38 535.691 1189.13 532.27C1193.04 528.849 1196.7 524.613 1200.12 519.562C1203.71 514.349 1206.97 509.217 1209.9 504.166C1212.83 499.116 1215.11 495.043 1216.74 491.947C1219.19 487.549 1221.47 483.883 1223.59 480.95C1225.7 478.018 1228.72 476.552 1232.63 476.552C1234.42 476.552 1236.21 476.796 1238 477.285C1239.8 477.774 1241.67 477.855 1243.62 477.529C1238.74 482.417 1234.42 488.2 1230.67 494.88C1227.09 501.56 1224.32 508.158 1222.36 514.675C1220.41 521.028 1219.43 526.405 1219.43 530.804C1219.43 535.691 1221.06 538.135 1224.32 538.135C1226.93 538.135 1229.69 536.669 1232.63 533.736C1235.72 530.804 1238.66 527.138 1241.42 522.739C1244.36 518.177 1247.05 513.616 1249.49 509.054C1251.93 504.329 1253.89 500.256 1255.35 496.835C1256.17 496.835 1256.82 496.916 1257.31 497.079C1257.96 497.242 1258.29 497.894 1258.29 499.034C1258.12 499.686 1257.8 500.419 1257.31 501.234C1256.98 501.886 1256.41 503.107 1255.6 504.899C1254.3 507.506 1252.5 511.009 1250.22 515.408C1247.94 519.807 1245.25 524.287 1242.16 528.849C1239.06 533.247 1235.72 536.994 1232.14 540.09C1228.55 543.185 1224.81 544.733 1220.9 544.733ZM1255.7 496.102C1257 493.332 1258.71 488.933 1260.83 482.905C1262.95 476.715 1265.15 469.872 1267.43 462.378C1269.71 454.883 1271.42 447.796 1272.56 441.117C1273.05 438.51 1273.94 436.637 1275.25 435.496C1276.55 434.193 1277.93 433.541 1279.4 433.541C1281.52 433.541 1283.47 434.6 1285.27 436.718C1287.06 438.673 1287.95 441.524 1287.95 445.271C1287.95 449.833 1286.57 453.743 1283.8 457.001C1281.19 460.26 1277.93 463.355 1274.02 466.288C1275.65 466.451 1277.36 466.614 1279.16 466.777C1280.95 466.777 1282.9 466.777 1285.02 466.777C1292.68 466.777 1300.25 466.288 1307.75 465.31C1308.07 466.288 1308.24 467.021 1308.24 467.51C1308.24 469.628 1307.59 472.316 1306.28 475.574C1305.14 478.832 1303.92 481.765 1302.62 484.372C1301.97 485.838 1300.66 488.526 1298.71 492.436C1296.75 496.183 1294.63 500.501 1292.35 505.388C1290.07 510.113 1288.12 514.838 1286.49 519.562C1285.02 524.124 1284.29 528.034 1284.29 531.292C1284.29 535.528 1285.92 537.646 1289.18 537.646C1292.27 537.646 1296.59 534.062 1302.13 526.894C1307.67 519.562 1313.21 509.543 1318.75 496.835C1320.7 496.835 1321.68 497.568 1321.68 499.034C1319.89 503.433 1317.61 508.239 1314.84 513.453C1312.23 518.666 1309.3 523.635 1306.04 528.36C1302.78 532.922 1299.28 536.75 1295.53 539.846C1291.78 542.778 1287.87 544.244 1283.8 544.244C1280.7 544.244 1277.61 543.022 1274.51 540.579C1271.42 537.972 1269.87 533.818 1269.87 528.115C1269.87 523.065 1270.85 518.177 1272.8 513.453C1274.76 508.565 1276.96 504.003 1279.4 499.768C1281.84 495.532 1284.04 491.785 1286 488.526C1287.95 485.268 1288.93 482.661 1288.93 480.706C1288.93 477.774 1287.06 475.656 1283.31 474.352C1279.73 473.049 1275 472.316 1269.14 472.153C1266.2 479.647 1264 485.186 1262.54 488.771C1261.07 492.355 1259.69 495.776 1258.38 499.034C1255.78 499.034 1254.88 498.057 1255.7 496.102ZM1371.72 544.733C1367.98 544.733 1364.64 543.674 1361.7 541.556C1358.94 539.438 1357.55 535.121 1357.55 528.604C1357.55 525.835 1357.71 523.228 1358.04 520.784C1358.53 518.34 1359.1 515.734 1359.75 512.964C1358.28 515.408 1356.25 518.422 1353.64 522.006C1351.03 525.59 1348.1 529.093 1344.84 532.514C1341.75 535.936 1338.49 538.787 1335.07 541.067C1331.81 543.348 1328.71 544.489 1325.78 544.489C1321.55 544.489 1318.12 542.615 1315.52 538.868C1312.91 534.958 1311.61 529.908 1311.61 523.717C1311.61 517.037 1313.15 509.869 1316.25 502.211C1319.35 494.554 1323.58 487.223 1328.96 480.217C1334.33 473.212 1340.53 467.51 1347.53 463.111C1354.54 458.712 1361.87 456.513 1369.52 456.513C1373.27 456.513 1376.86 457.164 1380.28 458.468C1383.7 459.608 1386.71 461.563 1389.32 464.333C1390.46 465.473 1391.03 466.777 1391.03 468.243C1391.03 469.22 1390.62 470.035 1389.81 470.687C1388.99 471.338 1387.93 471.501 1386.63 471.175C1384.84 465.473 1381.01 462.622 1375.15 462.622C1372.38 462.622 1369.2 463.518 1365.61 465.31C1361.22 467.591 1356.49 471.257 1351.44 476.307C1346.55 481.195 1341.91 486.816 1337.51 493.169C1333.28 499.36 1329.77 505.633 1327 511.986C1324.23 518.34 1322.85 524.124 1322.85 529.337C1322.85 534.714 1324.89 537.402 1328.96 537.402C1332.54 537.402 1336.21 535.691 1339.96 532.27C1343.87 528.849 1347.53 524.613 1350.95 519.562C1354.54 514.349 1357.79 509.217 1360.73 504.166C1363.66 499.116 1365.94 495.043 1367.57 491.947C1370.01 487.549 1372.29 483.883 1374.41 480.95C1376.53 478.018 1379.54 476.552 1383.45 476.552C1385.25 476.552 1387.04 476.796 1388.83 477.285C1390.62 477.774 1392.5 477.855 1394.45 477.529C1389.56 482.417 1385.25 488.2 1381.5 494.88C1377.92 501.56 1375.15 508.158 1373.19 514.675C1371.24 521.028 1370.26 526.405 1370.26 530.804C1370.26 535.691 1371.89 538.135 1375.15 538.135C1377.75 538.135 1380.52 536.669 1383.45 533.736C1386.55 530.804 1389.48 527.138 1392.25 522.739C1395.18 518.177 1397.87 513.616 1400.32 509.054C1402.76 504.329 1404.72 500.256 1406.18 496.835C1407 496.835 1407.65 496.916 1408.14 497.079C1408.79 497.242 1409.11 497.894 1409.11 499.034C1408.95 499.686 1408.63 500.419 1408.14 501.234C1407.81 501.886 1407.24 503.107 1406.43 504.899C1405.12 507.506 1403.33 511.009 1401.05 515.408C1398.77 519.807 1396.08 524.287 1392.99 528.849C1389.89 533.247 1386.55 536.994 1382.97 540.09C1379.38 543.185 1375.63 544.733 1371.72 544.733Z" fill="#DDBF8A"/>
</svg>
