<svg width="2791" height="1621" viewBox="0 0 2791 1621" fill="none" xmlns="http://www.w3.org/2000/svg">
<g filter="url(#filter0_f_2627_443)">
<ellipse cx="1395.09" cy="810.056" rx="992.083" ry="407.043" fill="white"/>
</g>
<path d="M899.927 783.277C895.365 783.277 890.803 782.218 886.241 780.1C881.843 777.982 877.688 774.886 873.778 770.813C868.076 764.948 863.107 757.943 858.871 749.797C854.798 741.488 851.295 733.016 848.363 724.382C845.43 715.584 843.149 707.601 841.52 700.433C839.891 693.101 838.751 687.48 838.099 683.57C832.071 695.138 825.799 706.623 819.282 718.028C812.928 729.269 804.782 740.348 794.844 751.263C785.395 761.527 775.049 769.266 763.808 774.479C752.567 779.855 740.918 782.544 728.862 782.544C725.115 782.544 721.286 782.299 717.376 781.81C706.623 780.507 698.722 777.412 693.671 772.524C688.621 767.636 686.096 762.423 686.096 756.884C686.096 750.856 688.784 745.398 694.16 740.511C699.536 735.623 707.194 733.179 717.132 733.179C720.39 733.179 723.893 733.505 727.64 734.157C731.387 734.808 735.297 735.867 739.37 737.334C741.162 737.985 742.058 738.718 742.058 739.533C742.058 740.185 741.407 740.511 740.103 740.511C739.289 740.511 738.637 740.429 738.148 740.266C732.772 738.311 727.966 737.334 723.73 737.334C716.887 737.334 711.674 739.37 708.09 743.443C704.506 747.353 702.713 751.67 702.713 756.395C702.713 760.957 704.668 765.193 708.578 769.103C712.489 773.013 718.517 774.968 726.662 774.968C736.926 774.968 746.376 772.606 755.01 767.881C763.645 762.993 771.709 756.395 779.204 748.086C786.698 739.614 793.866 730.084 800.709 719.494C807.552 708.741 814.231 697.581 820.748 686.014C831.664 666.627 841.52 649.032 850.318 633.229C859.278 617.262 868.728 603.74 878.666 592.662C874.267 592.173 869.787 591.847 865.225 591.684C860.663 591.521 856.02 591.44 851.295 591.44C841.031 591.44 830.36 592.01 819.282 593.151C808.366 594.128 797.776 595.757 787.513 598.038C773.665 600.971 761.771 605.369 751.833 611.234C741.895 616.937 733.994 623.372 728.129 630.54C722.427 637.546 718.842 644.633 717.376 651.801C716.887 654.408 716.643 656.933 716.643 659.377C716.643 667.686 719.413 674.121 724.952 678.683C730.491 683.245 736.845 685.525 744.013 685.525C748.575 685.525 753.137 684.629 757.698 682.837C762.423 680.882 766.659 677.868 770.406 673.795C773.502 670.537 775.782 667.523 777.249 664.753C778.715 661.821 779.53 659.621 779.693 658.155C779.855 655.874 780.344 654.734 781.159 654.734C781.648 654.734 782.055 655.141 782.381 655.956C782.869 656.77 783.032 657.585 782.869 658.399C782.218 662.147 781.077 665.812 779.448 669.396C777.819 672.981 775.864 675.995 773.583 678.438C769.021 683.163 763.808 686.666 757.943 688.947C752.078 691.228 746.457 692.368 741.081 692.368C734.727 692.368 728.699 690.983 722.997 688.214C717.458 685.444 712.977 681.452 709.556 676.239C706.135 670.863 704.424 664.265 704.424 656.444C704.424 647.321 707.601 638.035 713.955 628.585C720.309 618.973 729.839 610.501 742.547 603.17C755.418 595.839 771.384 590.788 790.445 588.019C800.057 586.715 809.344 585.738 818.304 585.086C827.428 584.271 836.225 583.864 844.697 583.864C851.54 583.864 858.219 584.109 864.736 584.597C871.253 585.086 877.688 585.738 884.042 586.552C888.278 582.154 891.129 579.954 892.595 579.954C893.736 579.954 894.306 580.85 894.306 582.642C894.306 583.294 894.224 584.109 894.061 585.086C893.899 586.064 893.654 587.041 893.328 588.019C897.727 588.67 901.963 589.403 906.036 590.218C910.272 590.87 914.019 591.684 917.277 592.662C930.148 596.246 939.516 600.971 945.381 606.836C951.409 612.538 954.423 618.729 954.423 625.408C954.423 632.577 951.165 639.745 944.648 646.914C938.294 654.082 929.252 660.436 917.522 665.975C905.955 671.514 892.351 675.587 876.711 678.194C871.66 679.009 867.18 679.579 863.27 679.905C859.523 680.231 856.264 680.475 853.495 680.638C853.821 682.267 854.554 685.688 855.694 690.902C856.835 696.115 858.464 702.306 860.582 709.475C862.7 716.48 865.388 723.893 868.646 731.713C872.067 739.533 876.14 746.946 880.865 753.951C884.612 759.491 888.441 764.052 892.351 767.636C896.261 771.221 900.415 773.013 904.814 773.013C907.584 773.013 910.435 772.28 913.367 770.813C916.463 769.347 919.64 766.985 922.898 763.726C926.808 759.816 930.392 755.418 933.651 750.53C936.909 745.642 939.679 740.999 941.96 736.6C944.24 732.039 945.951 728.455 947.092 725.848C948.069 725.848 948.802 725.929 949.291 726.092C949.78 726.255 950.024 726.907 950.024 728.047C949.372 729.676 948.232 732.283 946.603 735.867C944.974 739.289 943.019 743.199 940.738 747.597C938.62 751.833 936.257 756.069 933.651 760.305C931.044 764.541 928.437 768.125 925.831 771.058C922.084 775.131 917.848 778.145 913.123 780.1C908.561 782.218 904.162 783.277 899.927 783.277ZM843.231 674.04C847.955 673.225 853.006 672.655 858.382 672.329C863.759 672.003 869.053 671.514 874.267 670.863C882.739 669.722 890.722 667.523 898.216 664.265C905.71 660.843 912.308 656.77 918.011 652.046C923.876 647.321 928.437 642.352 931.696 637.139C934.954 631.762 936.583 626.63 936.583 621.743C936.583 610.664 929.17 603.007 914.345 598.771C911.412 597.957 907.584 597.142 902.859 596.327C898.297 595.513 894.143 594.78 890.396 594.128C882.576 607.487 874.511 620.602 866.202 633.473C858.056 646.343 850.399 659.866 843.231 674.04ZM954.012 773.013C947.984 773.013 943.749 771.302 941.305 767.881C938.861 764.297 937.639 760.224 937.639 755.662C937.639 753.218 937.883 750.774 938.372 748.331C939.024 745.724 939.757 743.362 940.572 741.244L956.945 699.455C957.434 698.152 957.678 697.011 957.678 696.034C957.678 694.405 957.271 693.02 956.456 691.879C955.642 690.576 955.071 689.68 954.746 689.191L968.186 688.702C970.63 688.539 972.341 688.865 973.318 689.68C974.459 690.332 975.029 691.146 975.029 692.124C975.029 693.101 974.459 694.893 973.318 697.5C971.689 701.41 969.49 706.298 966.72 712.163C963.95 718.028 961.181 724.056 958.411 730.247C955.804 736.438 953.524 742.221 951.569 747.597C949.777 752.974 948.88 757.128 948.88 760.061C948.88 762.179 949.369 763.971 950.347 765.437C951.487 766.903 953.361 767.636 955.967 767.636C959.389 767.636 962.729 766.333 965.987 763.726C969.408 760.957 972.585 757.454 975.518 753.218C978.45 748.982 981.138 744.421 983.582 739.533C986.189 734.645 988.388 730.084 990.18 725.848C992.135 725.848 993.113 726.581 993.113 728.047C991.484 732.12 989.366 736.763 986.759 741.977C984.152 747.19 981.138 752.159 977.717 756.884C974.459 761.446 970.793 765.274 966.72 768.37C962.81 771.465 958.574 773.013 954.012 773.013ZM975.762 673.551C973.644 673.551 971.771 672.736 970.141 671.107C968.675 669.478 967.942 667.523 967.942 665.242C967.942 662.472 969.082 660.029 971.363 657.911C973.644 655.63 976.169 654.489 978.939 654.489C981.22 654.489 983.175 655.223 984.804 656.689C986.433 658.155 987.248 660.029 987.248 662.31C987.248 665.242 986.107 667.849 983.827 670.13C981.546 672.41 978.858 673.551 975.762 673.551ZM995.259 773.99C988.579 773.99 983.121 771.954 978.886 767.881C974.813 763.645 972.776 759.246 972.776 754.684C972.776 750.937 973.754 747.516 975.709 744.421C977.501 741.162 979.944 739.533 983.04 739.533L983.284 739.044C986.869 732.528 990.29 725.929 993.548 719.25C996.969 712.407 1000.72 705.157 1004.79 697.5C1008.21 691.146 1011.88 685.933 1015.79 681.86C1019.86 677.787 1024.58 675.75 1029.96 675.75C1031.26 675.75 1033.06 676.076 1035.34 676.728C1037.62 677.217 1038.76 678.357 1038.76 680.149C1038.76 681.452 1038.03 682.104 1036.56 682.104C1035.42 682.104 1034.11 681.778 1032.65 681.127C1031.35 680.475 1030.29 680.149 1029.47 680.149C1026.38 680.149 1023.77 681.941 1021.65 685.525C1019.53 689.11 1018.47 692.938 1018.47 697.011C1018.47 701.41 1019.21 705.402 1020.67 708.986C1022.14 712.407 1023.85 715.747 1025.81 719.005C1027.76 722.264 1029.47 725.603 1030.94 729.025C1032.4 732.283 1033.14 735.867 1033.14 739.777C1033.14 747.597 1031.59 753.951 1028.49 758.839C1025.56 763.564 1021.65 767.148 1016.76 769.592H1017.01C1025.64 769.592 1032.73 765.6 1038.27 757.617C1043.97 749.471 1049.59 738.881 1055.13 725.848C1057.09 725.848 1058.06 726.581 1058.06 728.047C1054.97 735.379 1051.55 742.547 1047.8 749.553C1044.05 756.558 1039.65 762.342 1034.6 766.903C1029.55 771.465 1023.36 773.746 1016.03 773.746C1012.94 773.746 1010.08 773.42 1007.48 772.768C1003.73 773.583 999.658 773.99 995.259 773.99ZM991.593 748.086C991.593 751.996 992.489 755.743 994.281 759.328C996.073 762.912 999.332 765.6 1004.06 767.392C1008.29 764.948 1011.55 761.201 1013.83 756.151C1016.28 750.937 1017.5 745.561 1017.5 740.022C1017.5 735.46 1017.01 730.817 1016.03 726.092C1015.05 721.368 1013.99 716.724 1012.85 712.163C1011.88 707.601 1011.39 703.528 1011.39 699.944C1011.39 698.803 1011.39 697.826 1011.39 697.011C1011.55 696.034 1011.71 695.138 1011.88 694.323C1008.94 698.722 1005.93 703.854 1002.83 709.719C999.902 715.584 997.051 721.205 994.281 726.581C991.512 731.957 988.986 736.356 986.706 739.777C989.964 740.266 991.593 743.036 991.593 748.086ZM983.529 760.305C983.529 762.912 984.425 765.193 986.217 767.148C988.009 769.103 990.697 770.08 994.281 770.08C995.911 770.08 997.458 769.917 998.925 769.592C995.503 767.474 992.734 764.785 990.616 761.527C988.661 758.269 987.683 754.522 987.683 750.286C986.217 751.915 985.158 753.625 984.506 755.418C983.855 757.047 983.529 758.676 983.529 760.305ZM1109.04 773.502C1108.06 773.502 1107.17 773.42 1106.35 773.257C1105.7 773.257 1104.81 773.176 1103.67 773.013C1099.59 772.198 1096.74 769.999 1095.11 766.415C1093.65 762.667 1092.91 758.676 1092.91 754.44C1092.91 751.833 1093.08 749.308 1093.4 746.864C1093.89 744.258 1094.46 741.977 1095.11 740.022C1093.65 742.628 1091.77 745.805 1089.49 749.553C1087.21 753.137 1084.6 756.721 1081.67 760.305C1078.74 763.889 1075.64 766.903 1072.38 769.347C1069.13 771.791 1065.79 773.013 1062.37 773.013C1058.94 773.013 1055.77 772.035 1052.83 770.08C1049.9 768.125 1048.03 765.356 1047.21 761.771C1047.05 760.957 1046.89 760.224 1046.73 759.572C1046.73 758.757 1046.73 758.024 1046.73 757.373C1046.73 753.137 1047.87 748.819 1050.15 744.421C1052.43 740.022 1055.12 734.564 1058.21 728.047C1057.4 728.047 1056.66 727.966 1056.01 727.803C1055.52 727.64 1055.28 726.988 1055.28 725.848C1059.03 717.376 1062.2 710.533 1064.81 705.32C1067.58 699.944 1069.62 696.115 1070.92 693.834C1073.04 690.25 1076.38 688.458 1080.94 688.458H1096.09C1093.32 690.576 1090.79 692.938 1088.51 695.545C1086.4 697.989 1083.71 702.55 1080.45 709.23C1080.45 709.23 1079.88 710.371 1078.74 712.651C1077.6 714.932 1076.13 717.783 1074.34 721.205C1072.71 724.626 1071 728.129 1069.21 731.713C1067.58 735.297 1066.19 738.393 1065.05 740.999C1063.42 744.583 1062.2 747.923 1061.39 751.019C1060.57 754.114 1060.17 756.802 1060.17 759.083C1060.17 764.785 1062.04 767.636 1065.79 767.636C1068.39 767.636 1071.33 766.007 1074.58 762.749C1078.33 759.165 1082.16 754.196 1086.07 747.842C1090.14 741.325 1094.05 734.483 1097.8 727.314C1101.55 720.146 1104.89 713.547 1107.82 707.519C1110.75 701.329 1112.95 696.767 1114.42 693.834C1115.23 692.042 1116.29 690.739 1117.59 689.924C1119.06 688.947 1121.1 688.458 1123.7 688.458H1138.61C1137.63 689.436 1136.17 690.494 1134.21 691.635C1132.42 692.775 1130.63 694.812 1128.84 697.744C1126.56 701.654 1124.52 705.32 1122.73 708.741C1120.93 712 1118.49 716.969 1115.4 723.648C1114.74 725.115 1113.44 727.966 1111.49 732.202C1109.69 736.438 1107.98 741.081 1106.35 746.131C1104.72 751.182 1103.91 755.743 1103.91 759.816C1103.91 762.423 1104.48 764.541 1105.62 766.17C1106.76 767.799 1108.63 768.614 1111.24 768.614C1115.8 768.614 1120.12 766.74 1124.19 762.993C1128.43 759.246 1132.18 754.684 1135.43 749.308C1138.86 743.932 1141.63 738.718 1143.74 733.668C1143.58 732.365 1143.34 730.491 1143.01 728.047C1142.85 725.441 1142.77 723.241 1142.77 721.449C1142.77 710.859 1144.4 701.899 1147.65 694.567C1151.07 687.073 1155.55 683.326 1161.09 683.326C1164.19 683.326 1165.74 684.711 1165.74 687.48C1165.74 687.969 1165.17 689.924 1164.03 693.346C1163.05 696.604 1161.66 700.677 1159.87 705.564C1158.24 710.452 1156.37 715.584 1154.25 720.96C1152.13 726.337 1150.02 731.387 1147.9 736.112C1148.39 738.881 1149.53 741.162 1151.32 742.954C1153.11 744.746 1155.39 745.642 1158.16 745.642C1161.42 745.642 1164.43 744.176 1167.2 741.244C1170.14 738.148 1173.15 733.016 1176.25 725.848C1178.2 725.848 1179.18 726.581 1179.18 728.047C1176.57 734.564 1173.39 739.777 1169.65 743.687C1166.06 747.597 1161.99 749.553 1157.43 749.553C1151.89 749.553 1147.9 746.701 1145.45 740.999C1141.06 749.797 1135.76 757.454 1129.57 763.971C1123.54 770.325 1116.7 773.502 1109.04 773.502ZM1229.3 773.746C1225.56 773.746 1222.22 772.687 1219.28 770.569C1216.52 768.451 1215.13 764.134 1215.13 757.617C1215.13 754.847 1215.29 752.241 1215.62 749.797C1216.11 747.353 1216.68 744.746 1217.33 741.977C1215.86 744.421 1213.83 747.435 1211.22 751.019C1208.61 754.603 1205.68 758.106 1202.42 761.527C1199.33 764.948 1196.07 767.799 1192.65 770.08C1189.39 772.361 1186.29 773.502 1183.36 773.502C1179.13 773.502 1175.7 771.628 1173.1 767.881C1170.49 763.971 1169.19 758.92 1169.19 752.729C1169.19 746.05 1170.74 738.881 1173.83 731.224C1176.93 723.567 1181.16 716.236 1186.54 709.23C1191.91 702.225 1198.11 696.522 1205.11 692.124C1212.12 687.725 1219.45 685.525 1227.1 685.525C1230.85 685.525 1234.44 686.177 1237.86 687.48C1241.28 688.621 1244.29 690.576 1246.9 693.346C1248.04 694.486 1248.61 695.789 1248.61 697.256C1248.61 698.233 1248.2 699.048 1247.39 699.699C1246.57 700.351 1245.51 700.514 1244.21 700.188C1242.42 694.486 1238.59 691.635 1232.73 691.635C1229.96 691.635 1226.78 692.531 1223.19 694.323C1218.8 696.604 1214.07 700.27 1209.02 705.32C1204.13 710.208 1199.49 715.828 1195.09 722.182C1190.86 728.373 1187.35 734.645 1184.58 740.999C1181.81 747.353 1180.43 753.137 1180.43 758.35C1180.43 763.726 1182.47 766.415 1186.54 766.415C1190.12 766.415 1193.79 764.704 1197.54 761.283C1201.45 757.861 1205.11 753.625 1208.53 748.575C1212.12 743.362 1215.37 738.23 1218.31 733.179C1221.24 728.129 1223.52 724.056 1225.15 720.96C1227.59 716.561 1229.87 712.896 1231.99 709.963C1234.11 707.031 1237.12 705.564 1241.03 705.564C1242.83 705.564 1244.62 705.809 1246.41 706.298C1248.2 706.786 1250.08 706.868 1252.03 706.542C1247.14 711.43 1242.83 717.213 1239.08 723.893C1235.5 730.572 1232.73 737.171 1230.77 743.687C1228.82 750.041 1227.84 755.418 1227.84 759.816C1227.84 764.704 1229.47 767.148 1232.73 767.148C1235.33 767.148 1238.1 765.681 1241.03 762.749C1244.13 759.816 1247.06 756.151 1249.83 751.752C1252.76 747.19 1255.45 742.628 1257.9 738.067C1260.34 733.342 1262.3 729.269 1263.76 725.848C1264.58 725.848 1265.23 725.929 1265.72 726.092C1266.37 726.255 1266.69 726.907 1266.69 728.047C1266.53 728.699 1266.21 729.432 1265.72 730.247C1265.39 730.898 1264.82 732.12 1264.01 733.912C1262.7 736.519 1260.91 740.022 1258.63 744.421C1256.35 748.819 1253.66 753.3 1250.57 757.861C1247.47 762.26 1244.13 766.007 1240.55 769.103C1236.96 772.198 1233.21 773.746 1229.3 773.746ZM1240.4 774.968C1246.26 763.075 1251.88 751.345 1257.26 739.777C1262.64 728.047 1268.18 716.887 1273.88 706.298C1277.14 700.433 1279.91 696.36 1282.19 694.079C1284.47 691.635 1287.48 690.413 1291.23 690.413C1292.53 690.413 1293.92 690.657 1295.38 691.146C1296.85 691.472 1298.32 691.635 1299.78 691.635C1300.76 691.635 1301.49 691.553 1301.98 691.391C1299.7 692.694 1296.69 695.952 1292.94 701.166C1289.36 706.216 1285.69 712.081 1281.94 718.761C1278.2 725.441 1274.86 731.713 1271.92 737.578C1275.02 733.831 1278.28 730.084 1281.7 726.337C1285.12 722.589 1288.87 719.005 1292.94 715.584C1296.85 712.163 1301.49 708.66 1306.87 705.076C1312.41 701.329 1317.79 698.233 1323 695.789C1328.21 693.346 1332.37 692.124 1335.46 692.124C1336.6 692.124 1337.42 692.205 1337.91 692.368C1337.91 692.368 1337.01 693.997 1335.22 697.256C1333.43 700.351 1331.14 704.505 1328.37 709.719C1325.77 714.769 1323.08 720.227 1320.31 726.092C1317.54 731.794 1315.02 737.334 1312.73 742.71C1310.62 747.923 1309.23 752.322 1308.58 755.906C1308.09 758.024 1307.85 759.979 1307.85 761.771C1307.85 764.378 1308.34 766.089 1309.31 766.903C1310.29 767.718 1311.35 768.125 1312.49 768.125C1315.59 768.125 1318.76 766.74 1322.02 763.971C1325.28 761.201 1328.37 757.698 1331.31 753.463C1334.4 749.064 1337.25 744.421 1339.86 739.533C1342.47 734.645 1344.67 730.084 1346.46 725.848C1348.41 725.848 1349.39 726.581 1349.39 728.047C1347.6 732.446 1345.32 737.334 1342.55 742.71C1339.94 747.923 1336.93 752.892 1333.51 757.617C1330.25 762.342 1326.58 766.252 1322.51 769.347C1318.44 772.443 1314.04 773.99 1309.31 773.99C1306.05 773.99 1302.63 772.85 1299.05 770.569C1295.63 768.288 1293.92 764.052 1293.92 757.861C1293.92 756.069 1294.08 754.196 1294.41 752.241C1294.73 750.123 1295.3 747.842 1296.12 745.398C1297.42 742.14 1298.97 738.637 1300.76 734.89C1302.55 731.143 1305.48 726.011 1309.56 719.494C1310.7 717.702 1311.35 716.317 1311.51 715.34C1311.84 714.362 1312 713.547 1312 712.896C1312 710.941 1311.11 709.963 1309.31 709.963C1307.85 709.963 1305.65 710.778 1302.72 712.407C1299.95 714.036 1296.44 716.887 1292.21 720.96C1288.13 724.87 1283.25 730.41 1277.54 737.578C1272 744.746 1265.57 755.336 1258.24 769.347C1257.1 771.465 1255.79 772.606 1254.33 772.768C1253.02 772.931 1251.15 773.094 1248.71 773.257C1247.08 773.42 1245.53 773.502 1244.06 773.502C1242.6 773.664 1241.38 774.153 1240.4 774.968ZM1474.71 795.496C1458.74 795.496 1444.08 793.133 1430.72 788.409C1417.52 783.684 1406.85 776.76 1398.7 767.636C1390.56 758.35 1386.08 746.946 1385.26 733.424C1384.94 727.884 1385.83 721.775 1387.95 715.095C1390.07 708.416 1393 701.817 1396.75 695.301C1400.66 688.621 1405.22 682.674 1410.43 677.461C1415.81 672.085 1421.51 668.012 1427.54 665.242C1428.03 664.916 1428.76 664.672 1429.74 664.509C1430.88 664.346 1431.7 664.265 1432.18 664.265C1433.16 664.265 1433.65 664.509 1433.65 664.998C1433.65 665.812 1432.43 667.116 1429.98 668.908C1423.14 674.284 1417.52 680.475 1413.12 687.48C1408.56 694.486 1405.14 701.98 1402.86 709.963C1400.58 717.946 1399.44 726.011 1399.44 734.157C1399.44 743.769 1401.47 752.078 1405.55 759.083C1409.78 765.926 1415.4 771.547 1422.41 775.945C1429.41 780.507 1437.4 783.847 1446.36 785.965C1455.32 788.083 1464.69 789.142 1474.46 789.142C1485.38 789.142 1496.13 787.92 1506.72 785.476C1517.47 783.032 1527.25 779.53 1536.04 774.968C1549.57 767.799 1560.24 758.92 1568.06 748.331C1576.04 737.741 1580.03 727.233 1580.03 716.806C1580.03 711.267 1578.81 705.972 1576.37 700.921C1574.09 695.871 1570.34 691.309 1565.13 687.236C1561.22 684.141 1556.41 681.208 1550.71 678.438C1545.17 675.669 1539.22 672.981 1532.87 670.374C1526.68 667.767 1520.57 665.161 1514.54 662.554C1508.51 659.784 1503.22 656.852 1498.65 653.756C1492.14 649.357 1487.33 644.633 1484.24 639.582C1481.3 634.532 1479.84 629.481 1479.84 624.431C1479.84 618.403 1481.55 612.538 1484.97 606.836C1488.55 601.134 1493.36 596.002 1499.39 591.44C1505.58 586.715 1512.5 583.05 1520.16 580.443C1526.84 578.162 1534.09 576.37 1541.91 575.067C1549.89 573.763 1557.71 573.112 1565.37 573.112C1571.72 573.112 1577.75 573.6 1583.45 574.578C1589.32 575.392 1594.45 576.94 1598.85 579.221C1604.39 581.828 1608.62 585.33 1611.56 589.729C1614.49 593.965 1615.96 598.445 1615.96 603.17C1615.96 609.687 1613.02 615.389 1607.16 620.276C1605.04 621.906 1602.68 623.453 1600.07 624.92C1597.47 626.223 1594.37 627.363 1590.79 628.341C1590.13 628.504 1589.4 628.585 1588.59 628.585C1586.63 628.585 1585.65 628.015 1585.65 626.875C1585.65 626.223 1586.14 625.571 1587.12 624.92C1588.26 624.105 1589.89 623.616 1592.01 623.453C1596.89 622.802 1600.56 620.928 1603 617.833C1605.61 614.737 1606.91 611.153 1606.91 607.08C1606.91 602.844 1605.45 598.69 1602.52 594.617C1599.75 590.381 1595.43 586.878 1589.56 584.109C1583.7 581.176 1576.2 579.71 1567.08 579.71C1561.87 579.71 1556.08 580.28 1549.73 581.42C1543.54 582.561 1536.78 584.434 1529.45 587.041C1520.49 590.137 1512.99 594.698 1506.96 600.726C1501.1 606.754 1498.17 613.19 1498.17 620.032C1498.17 624.268 1499.55 628.585 1502.32 632.984C1505.25 637.22 1509.9 641.293 1516.25 645.203C1521.63 648.461 1527.74 651.72 1534.58 654.978C1541.42 658.074 1548.35 661.251 1555.35 664.509C1562.36 667.604 1568.71 670.944 1574.41 674.528C1583.37 680.068 1589.81 686.014 1593.72 692.368C1597.63 698.722 1599.58 705.239 1599.58 711.918C1599.58 719.738 1597.22 727.64 1592.5 735.623C1587.93 743.443 1581.91 750.856 1574.41 757.861C1566.92 764.704 1558.69 770.813 1549.73 776.19C1539.3 782.381 1527.49 787.105 1514.3 790.364C1501.26 793.785 1488.07 795.496 1474.71 795.496ZM1622.24 773.013C1620.45 773.013 1618.25 772.606 1615.64 771.791C1613.2 770.976 1611 769.51 1609.04 767.392C1607.25 765.111 1606.35 761.771 1606.35 757.373C1606.35 753.137 1607.74 748.249 1610.51 742.71C1613.28 737.171 1615.72 732.283 1617.84 728.047C1616.05 728.047 1615.15 727.314 1615.15 725.848C1615.32 725.359 1616.05 723.811 1617.35 721.205C1618.66 718.598 1620.2 715.502 1622 711.918C1623.79 708.334 1625.5 704.913 1627.13 701.654C1628.92 698.233 1630.3 695.626 1631.28 693.834C1633.24 690.25 1636.33 688.458 1640.57 688.458H1655.72C1652.95 690.576 1650.42 692.938 1648.14 695.545C1646.03 697.989 1643.34 702.55 1640.08 709.23C1640.08 709.23 1639.51 710.371 1638.37 712.651C1637.23 714.932 1635.76 717.865 1633.97 721.449C1632.34 724.87 1630.63 728.373 1628.84 731.957C1627.21 735.542 1625.82 738.556 1624.68 740.999C1622.57 745.561 1621.18 749.227 1620.53 751.996C1619.88 754.603 1619.55 757.047 1619.55 759.328C1619.55 764.704 1621.34 767.392 1624.93 767.392C1628.84 767.392 1633.56 764.215 1639.1 757.861C1643.66 752.485 1648.14 746.05 1652.54 738.556C1656.94 731.061 1661.1 723.323 1665.01 715.34C1669.08 707.357 1672.66 700.188 1675.76 693.834C1677.55 690.25 1680.73 688.458 1685.29 688.458H1698.73C1695.15 691.391 1691.48 695.789 1687.73 701.654C1684.15 707.519 1680.16 715.014 1675.76 724.137C1674.62 726.581 1673.15 729.676 1671.36 733.424C1669.57 737.171 1667.94 741.162 1666.47 745.398C1665.17 749.634 1664.52 753.87 1664.52 758.106C1664.52 763.808 1666.55 766.659 1670.63 766.659C1676.17 766.659 1681.54 762.83 1686.76 755.173C1691.97 747.516 1697.1 737.741 1702.15 725.848C1703.45 725.848 1704.19 725.929 1704.35 726.092C1704.68 726.255 1704.92 726.907 1705.08 728.047C1703.29 732.446 1701.09 737.252 1698.49 742.466C1696.04 747.516 1693.19 752.404 1689.93 757.128C1686.84 761.853 1683.33 765.681 1679.42 768.614C1675.68 771.547 1671.52 773.013 1666.96 773.013C1662.89 773.013 1659.55 771.547 1656.94 768.614C1654.33 765.519 1653.03 761.201 1653.03 755.662C1653.03 751.263 1653.85 746.539 1655.47 741.488C1652.71 746.376 1649.53 751.263 1645.94 756.151C1642.36 761.038 1638.53 765.111 1634.46 768.37C1630.39 771.465 1626.31 773.013 1622.24 773.013ZM1678.56 774.968C1685.4 760.957 1692.48 746.294 1699.82 730.98C1707.31 715.502 1714.97 699.944 1722.79 684.304C1730.61 668.663 1738.35 653.756 1746 639.582C1748.77 634.695 1751.3 630.866 1753.58 628.097C1756.02 625.327 1759.2 623.942 1763.11 623.942C1764.58 623.942 1766.29 624.187 1768.24 624.675C1770.2 625.164 1772.07 625.246 1773.86 624.92C1771.74 627.201 1768.81 631.192 1765.07 636.894C1761.48 642.596 1757.41 649.439 1752.85 657.422C1748.45 665.405 1743.72 674.04 1738.67 683.326C1733.78 692.449 1728.9 701.736 1724.01 711.185C1719.28 720.472 1714.89 729.188 1710.81 737.334C1714.07 733.098 1717.41 729.106 1720.83 725.359C1724.25 721.612 1727.59 718.354 1730.85 715.584C1734.44 712.326 1738.92 708.904 1744.29 705.32C1749.83 701.736 1755.29 698.64 1760.67 696.034C1766.21 693.427 1770.6 692.124 1773.86 692.124C1775 692.124 1775.82 692.205 1776.31 692.368C1776.31 692.368 1775.41 693.997 1773.62 697.256C1771.83 700.514 1769.55 704.668 1766.78 709.719C1764.17 714.769 1761.4 720.227 1758.47 726.092C1755.7 731.957 1753.25 737.578 1751.14 742.954C1749.02 748.168 1747.63 752.485 1746.98 755.906C1746.49 758.513 1746.25 760.712 1746.25 762.505C1746.25 765.111 1746.74 766.903 1747.71 767.881C1748.69 768.695 1749.75 769.103 1750.89 769.103C1753.66 769.103 1756.59 767.718 1759.69 764.948C1762.95 762.016 1766.12 758.35 1769.22 753.951C1772.32 749.553 1775.17 744.909 1777.77 740.022C1780.54 734.971 1782.74 730.247 1784.37 725.848C1786.33 725.848 1787.3 726.581 1787.3 728.047C1785.51 732.446 1783.23 737.334 1780.46 742.71C1777.85 747.923 1774.84 752.892 1771.42 757.617C1768 762.342 1764.25 766.252 1760.18 769.347C1756.1 772.443 1751.79 773.99 1747.23 773.99C1743.97 773.99 1740.63 772.85 1737.21 770.569C1733.78 768.288 1732.07 764.134 1732.07 758.106C1732.07 756.314 1732.24 754.44 1732.56 752.485C1732.89 750.367 1733.46 748.005 1734.27 745.398C1735.25 742.14 1736.88 738.556 1739.16 734.645C1741.44 730.572 1744.37 725.522 1747.96 719.494C1749.59 716.724 1750.4 714.525 1750.4 712.896C1750.4 710.941 1749.42 709.963 1747.47 709.963C1745.84 709.963 1743.64 710.778 1740.87 712.407C1738.1 714.036 1734.6 716.887 1730.36 720.96C1726.29 724.87 1721.24 730.572 1715.21 738.067C1709.18 745.561 1702.75 756.069 1695.91 769.592C1694.77 771.709 1693.46 772.85 1692 773.013C1690.69 773.013 1688.9 773.094 1686.62 773.257C1685.15 773.42 1683.69 773.502 1682.22 773.502C1680.75 773.664 1679.53 774.153 1678.56 774.968ZM1801.95 773.99C1795.92 773.99 1790.47 772.035 1785.58 768.125C1780.85 764.215 1778.49 758.269 1778.49 750.286C1778.49 742.954 1780.28 735.134 1783.87 726.825C1787.45 718.354 1792.01 710.941 1797.55 704.587C1802.28 699.048 1807.57 694.486 1813.44 690.902C1819.3 687.318 1824.84 685.525 1830.05 685.525C1833.64 685.525 1836.73 686.503 1839.34 688.458C1842.11 690.576 1843.5 693.59 1843.5 697.5C1843.5 701.573 1841.95 706.053 1838.85 710.941C1835.76 715.828 1831.36 720.39 1825.66 724.626C1823.21 726.418 1820.12 728.129 1816.37 729.758C1812.62 731.387 1808.87 732.772 1805.13 733.912C1801.38 734.89 1798.29 735.379 1795.84 735.379C1795.03 737.334 1794.21 739.94 1793.4 743.199C1792.75 746.457 1792.42 749.797 1792.42 753.218C1792.42 757.291 1793.23 760.957 1794.86 764.215C1796.49 767.474 1799.51 769.103 1803.91 769.103C1809.61 769.103 1815.47 767.229 1821.5 763.482C1827.53 759.572 1833.23 754.766 1838.61 749.064C1843.98 743.199 1848.46 737.415 1852.05 731.713C1854.17 727.314 1856.28 722.997 1858.4 718.761C1860.52 714.525 1862.64 710.371 1864.76 706.298C1868.01 700.433 1870.7 696.36 1872.82 694.079C1875.1 691.635 1878.12 690.413 1881.86 690.413C1883.17 690.413 1884.55 690.657 1886.02 691.146C1887.48 691.472 1888.95 691.635 1890.42 691.635C1891.39 691.635 1892.13 691.553 1892.62 691.391C1890.33 692.694 1887.4 695.952 1883.82 701.166C1880.23 706.216 1876.57 712.081 1872.82 718.761C1869.07 725.441 1865.73 731.713 1862.8 737.578C1865.9 733.831 1869.07 730.084 1872.33 726.337C1875.75 722.589 1879.5 719.005 1883.57 715.584C1887.16 712.489 1890.9 709.149 1894.81 705.564C1898.89 701.817 1902.88 698.64 1906.79 696.034C1910.7 693.427 1914.12 692.124 1917.05 692.124C1918.19 692.124 1918.93 692.205 1919.25 692.368C1922.35 693.671 1923.9 695.789 1923.9 698.722C1923.9 699.699 1923.49 701.166 1922.67 703.121C1920.56 708.66 1917.79 714.362 1914.36 720.227C1911.11 725.929 1908.01 731.713 1905.08 737.578C1907.52 734.645 1910.54 731.061 1914.12 726.825C1917.87 722.589 1921.61 718.842 1925.36 715.584C1928.95 712.326 1933.51 708.904 1939.05 705.32C1944.59 701.736 1950.04 698.64 1955.42 696.034C1960.8 693.427 1965.11 692.124 1968.37 692.124C1969.51 692.124 1970.33 692.205 1970.82 692.368C1970.82 692.368 1969.92 693.997 1968.13 697.256C1966.34 700.351 1964.06 704.505 1961.29 709.719C1958.68 714.769 1955.99 720.227 1953.22 726.092C1950.45 731.794 1947.93 737.334 1945.65 742.71C1943.53 747.923 1942.14 752.322 1941.49 755.906C1941 758.024 1940.76 759.979 1940.76 761.771C1940.76 764.378 1941.25 766.089 1942.22 766.903C1943.2 767.718 1944.26 768.125 1945.4 768.125C1948.66 768.125 1951.84 766.74 1954.93 763.971C1958.19 761.201 1961.37 757.698 1964.46 753.463C1967.56 749.064 1970.33 744.421 1972.77 739.533C1975.38 734.645 1977.58 730.084 1979.37 725.848C1981.32 725.848 1982.3 726.581 1982.3 728.047C1980.51 732.446 1978.23 737.334 1975.46 742.71C1972.85 747.923 1969.84 752.892 1966.42 757.617C1963 762.342 1959.25 766.252 1955.18 769.347C1951.1 772.443 1946.7 773.99 1941.98 773.99C1938.56 773.99 1935.3 772.85 1932.2 770.569C1929.27 768.288 1927.81 764.052 1927.81 757.861C1927.81 751.182 1929.35 744.502 1932.45 737.822C1935.71 731.143 1939.05 725.033 1942.47 719.494C1944.1 716.724 1944.91 714.525 1944.91 712.896C1944.91 710.941 1943.93 709.963 1941.98 709.963C1940.35 709.963 1938.07 710.778 1935.14 712.407C1932.37 714.036 1928.86 716.887 1924.63 720.96C1922.02 723.404 1918.93 726.825 1915.34 731.224C1911.92 735.46 1908.42 740.103 1904.83 745.154C1901.25 750.204 1898.15 755.173 1895.55 760.061C1892.94 764.948 1891.23 769.266 1890.42 773.013C1887.97 773.013 1886.02 772.035 1884.55 770.08C1883.08 767.962 1882.35 765.519 1882.35 762.749C1882.35 762.26 1882.35 761.771 1882.35 761.283C1882.35 760.794 1882.43 760.224 1882.6 759.572C1883.41 754.522 1884.71 750.286 1886.51 746.864C1888.3 743.28 1890.33 739.126 1892.62 734.401C1893.76 732.283 1895.06 729.839 1896.53 727.07C1897.99 724.137 1899.29 721.368 1900.44 718.761C1901.58 715.991 1902.15 713.71 1902.15 711.918C1902.15 710.289 1901.49 709.475 1900.19 709.475C1898.72 709.475 1896.77 710.208 1894.33 711.674C1892.04 713.14 1889.85 714.851 1887.73 716.806C1885.61 718.598 1883.98 719.983 1882.84 720.96C1878.77 724.87 1873.8 730.491 1867.93 737.822C1862.23 745.154 1855.96 755.581 1849.12 769.103C1848.14 770.895 1847 772.035 1845.69 772.524C1844.39 772.85 1842.35 773.013 1839.59 773.013C1837.79 773.013 1836.25 773.013 1834.94 773.013C1833.8 773.176 1832.58 773.583 1831.28 774.235L1842.27 752.241C1836.73 758.269 1830.46 763.401 1823.46 767.636C1816.61 771.872 1809.45 773.99 1801.95 773.99ZM1797.55 730.98C1799.83 730.98 1803.66 730.165 1809.04 728.536C1814.41 726.744 1819.3 723.974 1823.7 720.227C1827.94 716.48 1831.19 712.407 1833.48 708.008C1835.76 703.447 1836.9 699.618 1836.9 696.522C1836.9 692.938 1835.59 691.146 1832.99 691.146C1831.03 691.146 1828.34 692.449 1824.92 695.056C1821.5 697.663 1817.27 702.062 1812.21 708.253C1809.12 712.163 1806.19 716.399 1803.42 720.96C1800.65 725.522 1798.69 728.862 1797.55 730.98ZM1945.61 850.969C1937.14 850.969 1931.11 849.259 1927.53 845.837C1923.94 842.579 1922.15 838.669 1922.15 834.107C1922.15 827.102 1924.76 820.585 1929.97 814.557C1935.02 808.692 1941.29 803.967 1948.79 800.383C1957.26 796.473 1966.87 793.296 1977.62 790.852C1988.54 788.409 1998.96 785.72 2008.9 782.788C2012 777.412 2014.85 771.302 2017.46 764.46C2020.06 757.454 2022.43 750.693 2024.54 744.176C2026.66 737.497 2028.37 732.039 2029.68 727.803C2027.72 731.387 2025.19 735.786 2022.1 740.999C2019.17 746.05 2015.83 751.019 2012.08 755.906C2008.33 760.794 2004.26 764.867 1999.86 768.125C1995.63 771.384 1991.14 773.013 1986.42 773.013C1984.63 773.013 1982.43 772.606 1979.82 771.791C1977.38 770.976 1975.18 769.51 1973.22 767.392C1971.43 765.111 1970.54 761.771 1970.54 757.373C1970.54 753.137 1971.84 748.494 1974.45 743.443C1977.05 738.23 1979.66 733.098 1982.27 728.047C1981.45 728.047 1980.72 727.966 1980.07 727.803C1979.58 727.64 1979.33 726.988 1979.33 725.848C1979.82 724.87 1980.8 722.752 1982.27 719.494C1983.73 716.236 1985.36 712.651 1987.15 708.741C1989.11 704.831 1990.82 701.41 1992.29 698.477C1994.08 694.73 1996.03 692.124 1998.15 690.657C2000.43 689.191 2002.63 688.458 2004.75 688.458H2019.9C2018.76 689.436 2017.29 690.576 2015.5 691.879C2013.87 693.02 2012.32 694.812 2010.86 697.256C2006.46 704.75 2002.63 712 1999.37 719.005C1996.11 725.848 1992.61 733.179 1988.86 740.999C1987.07 744.746 1985.77 748.168 1984.95 751.263C1984.14 754.359 1983.73 757.047 1983.73 759.328C1983.73 764.704 1985.52 767.392 1989.11 767.392C1993.02 767.392 1997.74 764.215 2003.28 757.861C2007.84 752.485 2012.41 746.131 2016.97 738.8C2021.69 731.306 2026.17 723.648 2030.41 715.828C2034.81 707.845 2038.64 700.514 2041.89 693.834C2043.69 690.25 2046.86 688.458 2051.42 688.458H2064.87C2060.14 691.716 2056.48 695.952 2053.87 701.166C2051.42 706.379 2048.66 713.059 2045.56 721.205C2042.14 730.165 2038.88 739.452 2035.78 749.064C2032.69 758.676 2029.27 768.533 2025.52 778.634C2033.5 775.864 2040.18 772.28 2045.56 767.881C2050.94 763.482 2055.66 757.861 2059.73 751.019C2063.97 744.013 2068.21 735.623 2072.44 725.848C2074.4 725.848 2075.37 726.581 2075.37 728.047C2071.79 735.542 2068.53 742.14 2065.6 747.842C2062.67 753.544 2059.41 758.595 2055.82 762.993C2052.24 767.229 2047.76 771.139 2042.38 774.723C2037.01 778.471 2030.08 782.055 2021.61 785.476C2017.7 792.482 2013.22 799.731 2008.17 807.226C2003.28 814.883 1997.66 821.97 1991.31 828.487C1985.12 835.166 1978.19 840.543 1970.54 844.616C1963.04 848.851 1954.73 850.969 1945.61 850.969ZM1939.74 846.082C1945.12 846.082 1950.66 844.453 1956.36 841.194C1962.06 837.936 1967.6 833.782 1972.98 828.731C1978.36 823.843 1983.24 818.793 1987.64 813.58C1992.2 808.529 1995.87 804.049 1998.64 800.139C1999.45 798.998 2000.35 797.532 2001.33 795.74C2002.3 793.948 2003.28 792.237 2004.26 790.608C1996.28 792.726 1987.48 795.007 1977.87 797.451C1968.42 800.057 1960.19 802.908 1953.18 806.004C1945.36 809.262 1939.26 813.905 1934.86 819.933C1930.29 825.961 1928.01 831.338 1928.01 836.062C1928.01 838.995 1928.99 841.357 1930.95 843.149C1932.74 845.104 1935.67 846.082 1939.74 846.082ZM1017.06 1088.54C1013.48 1088.54 1009.32 1088.14 1004.6 1087.32C1000.04 1086.67 995.555 1085.45 991.156 1083.66C986.92 1081.86 983.336 1079.34 980.403 1076.08C977.634 1072.66 976.249 1068.42 976.249 1063.37C976.249 1057.34 978.937 1051.89 984.313 1047C989.69 1041.95 997.265 1039.42 1007.04 1039.42C1014.21 1039.42 1020.89 1040.65 1027.08 1043.09C1033.27 1045.37 1039.3 1048.22 1045.16 1051.64C1051.19 1054.9 1057.38 1058.16 1063.74 1061.42C1071.88 1053.6 1079.29 1043.9 1085.97 1032.34C1092.82 1020.77 1099.58 1008.39 1106.26 995.191C1113.1 981.832 1120.43 968.472 1128.25 955.113C1136.24 941.754 1145.44 929.209 1155.87 917.479L1170.04 901.594C1164.01 900.617 1157.74 899.884 1151.22 899.395C1144.71 898.743 1137.95 898.417 1130.94 898.417C1121.33 898.417 1110.82 899.232 1099.42 900.861C1088.17 902.49 1076.93 905.016 1065.69 908.437C1054.61 911.858 1044.43 916.176 1035.14 921.389C1026.02 926.602 1018.69 932.793 1013.15 939.962C1007.61 947.13 1004.84 955.357 1004.84 964.644C1004.84 970.998 1006.23 976.048 1009 979.795C1011.93 983.542 1015.51 986.312 1019.75 988.104C1024.15 989.733 1028.55 990.548 1032.94 990.548C1040.28 990.548 1046.47 988.919 1051.52 985.66C1056.57 982.239 1060.31 978.329 1062.76 973.93C1065.37 969.531 1066.67 965.621 1066.67 962.2C1066.67 961.06 1067.48 960.489 1069.11 960.489C1070.74 960.489 1071.56 961.793 1071.56 964.399C1071.56 971.079 1069.52 976.863 1065.45 981.75C1061.37 986.638 1056.24 990.385 1050.05 992.992C1044.02 995.598 1037.91 996.902 1031.72 996.902C1026.02 996.902 1020.16 995.517 1014.13 992.747C1008.26 989.978 1003.37 985.823 999.465 980.284C995.555 974.745 993.6 967.902 993.6 959.756C993.6 949.981 996.369 941.346 1001.91 933.852C1007.45 926.195 1014.86 919.678 1024.15 914.302C1033.43 908.926 1043.78 904.527 1055.18 901.106C1066.59 897.521 1078.07 894.915 1089.64 893.285C1101.37 891.656 1112.37 890.842 1122.63 890.842C1132.08 890.842 1141.29 891.33 1150.25 892.308C1159.37 893.123 1167.92 894.426 1175.91 896.218C1178.19 894.263 1180.47 892.552 1182.75 891.086C1185.19 889.62 1187.39 888.479 1189.35 887.665C1191.14 886.85 1192.6 886.443 1193.75 886.443C1195.05 886.443 1195.7 886.932 1195.7 887.909C1195.7 888.398 1194.8 889.294 1193.01 890.597C1190.89 892.226 1189.02 893.774 1187.39 895.24C1185.93 896.544 1185.03 897.521 1184.7 898.173C1201.32 902.409 1214.76 908.274 1225.03 915.768C1235.45 923.1 1240.67 931.816 1240.67 941.917C1240.67 950.226 1237.81 957.557 1232.11 963.911C1226.41 970.102 1218.92 974.989 1209.63 978.573C1200.51 982.158 1190.73 984.194 1180.3 984.683C1194.97 989.408 1206.62 995.517 1215.25 1003.01C1224.05 1010.51 1228.45 1020.04 1228.45 1031.6C1228.45 1040.24 1225.92 1048.06 1220.87 1055.06C1215.98 1062.07 1209.39 1068.1 1201.08 1073.15C1192.93 1078.04 1183.97 1081.78 1174.2 1084.39C1164.42 1087.16 1154.73 1088.54 1145.11 1088.54C1129.96 1088.54 1116.52 1087 1104.79 1083.9C1093.22 1080.8 1081.17 1076.41 1068.62 1070.7C1052.82 1082.6 1035.63 1088.54 1017.06 1088.54ZM1141.69 1081.46C1151.79 1081.46 1161 1079.91 1169.31 1076.81C1177.62 1073.72 1184.78 1069.64 1190.81 1064.59C1197 1059.54 1201.73 1053.92 1204.99 1047.73C1208.41 1041.54 1210.12 1035.43 1210.12 1029.4C1210.12 1023.7 1208.41 1018.24 1204.99 1013.03C1201.57 1007.65 1196.19 1003.17 1188.86 999.59C1179.41 994.865 1171.1 991.607 1163.93 989.815C1156.76 987.86 1151.06 986.068 1146.82 984.438C1145.2 983.624 1144.14 983.054 1143.65 982.728C1143.16 982.402 1142.91 982.076 1142.91 981.75C1142.91 980.121 1143.73 978.818 1145.36 977.84C1146.99 976.863 1148.86 976.374 1150.98 976.374C1154.24 976.374 1157.74 976.618 1161.49 977.107C1165.23 977.596 1169.23 977.84 1173.46 977.84C1184.05 977.84 1193.18 975.722 1200.83 971.486C1208.49 967.251 1214.35 961.956 1218.43 955.602C1222.66 949.248 1224.78 942.976 1224.78 936.785C1224.78 929.779 1221.69 923.67 1215.5 918.456C1209.3 913.08 1198.06 908.274 1181.77 904.038C1173.62 915.279 1165.48 927.906 1157.33 941.917C1149.19 955.765 1141.04 969.857 1132.9 984.194C1124.75 998.368 1116.52 1011.81 1108.21 1024.52C1099.9 1037.22 1091.6 1048.14 1083.29 1057.26C1081.33 1059.38 1079.78 1061.01 1078.64 1062.15C1077.5 1063.13 1075.96 1064.51 1074 1066.31C1083.78 1070.38 1094.53 1073.96 1106.26 1077.06C1117.99 1079.99 1129.8 1081.46 1141.69 1081.46ZM1012.17 1080.97C1021.3 1081.46 1029.6 1080.4 1037.1 1077.79C1044.76 1075.02 1051.84 1071.19 1058.36 1066.31C1054.45 1064.35 1049.48 1061.82 1043.45 1058.73C1037.42 1055.63 1031.32 1052.95 1025.12 1050.66C1018.93 1048.22 1013.56 1047 1009 1047C1002.97 1047 998.406 1048.63 995.31 1051.89C992.215 1054.98 990.667 1058.57 990.667 1062.64C990.667 1066.88 992.459 1070.95 996.044 1074.86C999.628 1078.61 1005 1080.64 1012.17 1080.97ZM1298.51 1079.75C1294.77 1079.75 1291.43 1078.69 1288.49 1076.57C1285.72 1074.45 1284.34 1070.13 1284.34 1063.62C1284.34 1060.85 1284.5 1058.24 1284.83 1055.8C1285.32 1053.35 1285.89 1050.75 1286.54 1047.98C1285.07 1050.42 1283.04 1053.43 1280.43 1057.02C1277.82 1060.6 1274.89 1064.11 1271.63 1067.53C1268.54 1070.95 1265.28 1073.8 1261.86 1076.08C1258.6 1078.36 1255.5 1079.5 1252.57 1079.5C1248.33 1079.5 1244.91 1077.63 1242.31 1073.88C1239.7 1069.97 1238.4 1064.92 1238.4 1058.73C1238.4 1052.05 1239.94 1044.88 1243.04 1037.22C1246.13 1029.57 1250.37 1022.24 1255.75 1015.23C1261.12 1008.22 1267.31 1002.52 1274.32 998.124C1281.33 993.725 1288.66 991.525 1296.31 991.525C1300.06 991.525 1303.64 992.177 1307.07 993.48C1310.49 994.621 1313.5 996.576 1316.11 999.346C1317.25 1000.49 1317.82 1001.79 1317.82 1003.26C1317.82 1004.23 1317.41 1005.05 1316.6 1005.7C1315.78 1006.35 1314.72 1006.51 1313.42 1006.19C1311.63 1000.49 1307.8 997.635 1301.93 997.635C1299.16 997.635 1295.99 998.531 1292.4 1000.32C1288 1002.6 1283.28 1006.27 1278.23 1011.32C1273.34 1016.21 1268.7 1021.83 1264.3 1028.18C1260.06 1034.37 1256.56 1040.65 1253.79 1047C1251.02 1053.35 1249.64 1059.14 1249.64 1064.35C1249.64 1069.73 1251.67 1072.41 1255.75 1072.41C1259.33 1072.41 1263 1070.7 1266.74 1067.28C1270.65 1063.86 1274.32 1059.63 1277.74 1054.58C1281.33 1049.36 1284.58 1044.23 1287.52 1039.18C1290.45 1034.13 1292.73 1030.06 1294.36 1026.96C1296.8 1022.56 1299.08 1018.9 1301.2 1015.96C1303.32 1013.03 1306.33 1011.56 1310.24 1011.56C1312.04 1011.56 1313.83 1011.81 1315.62 1012.3C1317.41 1012.79 1319.29 1012.87 1321.24 1012.54C1316.35 1017.43 1312.04 1023.21 1308.29 1029.89C1304.7 1036.57 1301.93 1043.17 1299.98 1049.69C1298.02 1056.04 1297.05 1061.42 1297.05 1065.82C1297.05 1070.7 1298.68 1073.15 1301.93 1073.15C1304.54 1073.15 1307.31 1071.68 1310.24 1068.75C1313.34 1065.82 1316.27 1062.15 1319.04 1057.75C1321.97 1053.19 1324.66 1048.63 1327.11 1044.07C1329.55 1039.34 1331.5 1035.27 1332.97 1031.85C1333.78 1031.85 1334.44 1031.93 1334.93 1032.09C1335.58 1032.26 1335.9 1032.91 1335.9 1034.05C1335.74 1034.7 1335.41 1035.43 1334.93 1036.25C1334.6 1036.9 1334.03 1038.12 1333.21 1039.91C1331.91 1042.52 1330.12 1046.02 1327.84 1050.42C1325.56 1054.82 1322.87 1059.3 1319.77 1063.86C1316.68 1068.26 1313.34 1072.01 1309.75 1075.1C1306.17 1078.2 1302.42 1079.75 1298.51 1079.75ZM1383.65 949.981C1381.54 953.077 1379.17 956.987 1376.57 961.711C1373.96 966.436 1371.52 970.998 1369.24 975.396C1367.12 979.795 1365.49 983.135 1364.35 985.416H1386.83C1386.83 986.068 1386.51 987.127 1385.85 988.593C1385.36 990.059 1384.31 991.118 1382.68 991.77H1361.42C1359.46 996.169 1357.18 1001.46 1354.57 1007.65C1352.13 1013.85 1349.69 1020.28 1347.24 1026.96C1344.96 1033.64 1343.01 1039.91 1341.38 1045.78C1339.91 1051.48 1339.18 1056.12 1339.18 1059.71C1339.18 1064.59 1339.83 1068.26 1341.13 1070.7C1342.44 1072.98 1344.8 1074.13 1348.22 1074.13C1352.62 1074.13 1356.85 1072.01 1360.93 1067.77C1365 1063.37 1368.83 1057.91 1372.41 1051.4C1376.16 1044.88 1379.42 1038.36 1382.19 1031.85C1384.14 1031.85 1385.12 1032.58 1385.12 1034.05C1383.33 1038.45 1381.13 1043.25 1378.52 1048.47C1375.92 1053.68 1372.9 1058.73 1369.48 1063.62C1366.22 1068.34 1362.47 1072.25 1358.24 1075.35C1354.17 1078.28 1349.6 1079.75 1344.55 1079.75C1337.71 1079.75 1333.07 1077.87 1330.62 1074.13C1328.18 1070.22 1326.96 1065.25 1326.96 1059.22C1326.96 1054.82 1327.77 1049.52 1329.4 1043.33C1331.03 1036.98 1332.99 1030.46 1335.27 1023.78C1337.71 1017.1 1340.07 1010.91 1342.35 1005.21C1344.63 999.346 1346.43 994.865 1347.73 991.77H1332.09C1332.09 990.466 1332.66 989.082 1333.8 987.615C1334.94 986.149 1336.16 985.416 1337.47 985.416H1350.42C1351.72 982.809 1353.19 979.551 1354.82 975.641C1356.61 971.731 1358.97 967.413 1361.9 962.689C1364.35 958.779 1367.44 955.683 1371.19 953.402C1375.1 951.122 1379.26 949.981 1383.65 949.981ZM1389.32 1079.01C1387.52 1079.01 1385.33 1078.61 1382.72 1077.79C1380.27 1076.98 1378.08 1075.51 1376.12 1073.39C1374.33 1071.11 1373.43 1067.77 1373.43 1063.37C1373.43 1059.14 1374.82 1054.25 1377.59 1048.71C1380.36 1043.17 1382.8 1038.28 1384.92 1034.05C1383.13 1034.05 1382.23 1033.31 1382.23 1031.85C1382.39 1031.36 1383.13 1029.81 1384.43 1027.2C1385.73 1024.6 1387.28 1021.5 1389.07 1017.92C1390.86 1014.33 1392.57 1010.91 1394.2 1007.65C1396 1004.23 1397.38 1001.63 1398.36 999.834C1400.31 996.25 1403.41 994.458 1407.64 994.458H1422.8C1420.03 996.576 1417.5 998.938 1415.22 1001.54C1413.1 1003.99 1410.41 1008.55 1407.16 1015.23C1407.16 1015.23 1406.59 1016.37 1405.45 1018.65C1404.31 1020.93 1402.84 1023.86 1401.05 1027.45C1399.42 1030.87 1397.71 1034.37 1395.91 1037.96C1394.29 1041.54 1392.9 1044.56 1391.76 1047C1389.64 1051.56 1388.26 1055.23 1387.61 1058C1386.95 1060.6 1386.63 1063.05 1386.63 1065.33C1386.63 1070.7 1388.42 1073.39 1392 1073.39C1395.91 1073.39 1400.64 1070.22 1406.18 1063.86C1410.74 1058.49 1415.22 1052.05 1419.62 1044.56C1424.02 1037.06 1428.17 1029.32 1432.08 1021.34C1436.16 1013.36 1439.74 1006.19 1442.84 999.834C1444.63 996.25 1447.8 994.458 1452.37 994.458H1465.81C1462.22 997.391 1458.56 1001.79 1454.81 1007.65C1451.23 1013.52 1447.23 1021.01 1442.84 1030.14C1441.69 1032.58 1440.23 1035.68 1438.44 1039.42C1436.64 1043.17 1435.02 1047.16 1433.55 1051.4C1432.25 1055.63 1431.59 1059.87 1431.59 1064.11C1431.59 1069.81 1433.63 1072.66 1437.7 1072.66C1443.24 1072.66 1448.62 1068.83 1453.83 1061.17C1459.05 1053.52 1464.18 1043.74 1469.23 1031.85C1470.53 1031.85 1471.26 1031.93 1471.43 1032.09C1471.75 1032.26 1472 1032.91 1472.16 1034.05C1470.37 1038.45 1468.17 1043.25 1465.56 1048.47C1463.12 1053.52 1460.27 1058.4 1457.01 1063.13C1453.91 1067.85 1450.41 1071.68 1446.5 1074.61C1442.75 1077.55 1438.6 1079.01 1434.04 1079.01C1429.96 1079.01 1426.63 1077.55 1424.02 1074.61C1421.41 1071.52 1420.11 1067.2 1420.11 1061.66C1420.11 1057.26 1420.92 1052.54 1422.55 1047.49C1419.78 1052.38 1416.61 1057.26 1413.02 1062.15C1409.44 1067.04 1405.61 1071.11 1401.54 1074.37C1397.46 1077.47 1393.39 1079.01 1389.32 1079.01ZM1484.24 1080.23C1477.56 1080.23 1472.84 1078.2 1470.07 1074.13C1467.3 1070.05 1465.92 1065.08 1465.92 1059.22C1465.92 1055.15 1466.32 1051.32 1467.14 1047.73C1468.12 1044.15 1469.5 1040.08 1471.29 1035.51H1470.8C1469.5 1035.51 1468.85 1034.86 1468.85 1033.56C1468.85 1032.91 1469.5 1031.03 1470.8 1027.94C1472.27 1024.84 1474.06 1021.1 1476.18 1016.7C1478.46 1012.3 1480.74 1007.82 1483.02 1003.26C1485.47 998.694 1487.67 994.621 1489.62 991.037C1492.88 985.009 1496.46 978.818 1500.37 972.464C1504.28 965.947 1508.11 959.756 1511.86 953.891C1515.77 948.026 1519.03 943.22 1521.63 939.473C1527.5 931.327 1532.96 927.254 1538.01 927.254H1539.23C1540.7 927.254 1542.32 927.498 1544.12 927.987C1546.07 928.476 1547.86 928.557 1549.49 928.232C1547.05 930.838 1543.3 935.563 1538.25 942.405C1533.36 949.085 1527.99 956.742 1522.12 965.377C1519.68 968.961 1516.58 973.767 1512.84 979.795C1509.25 985.823 1505.42 992.584 1501.35 1000.08C1497.28 1007.57 1493.45 1015.23 1489.86 1023.05C1486.44 1030.71 1483.59 1038.2 1481.31 1045.53C1479.03 1052.7 1477.89 1059.14 1477.89 1064.84C1477.89 1068.59 1478.54 1071.19 1479.85 1072.66C1481.15 1074.13 1482.78 1074.86 1484.73 1074.86C1487.18 1074.86 1490.03 1073.47 1493.29 1070.7C1496.71 1067.77 1500.13 1064.02 1503.55 1059.46C1507.13 1054.74 1510.39 1049.61 1513.33 1044.07C1516.26 1038.36 1518.62 1032.66 1520.41 1026.96C1522.37 1021.1 1523.34 1015.72 1523.34 1010.83C1523.34 1006.11 1522.45 1002.69 1520.66 1000.57C1519.03 998.449 1516.83 997.391 1514.06 997.391C1512.92 997.391 1511.78 997.716 1510.64 998.368C1509.5 998.857 1508.52 999.101 1507.7 999.101C1506.89 999.101 1506.48 998.694 1506.48 997.879C1506.48 997.065 1507.3 996.169 1508.93 995.191C1510.72 994.214 1513.33 993.725 1516.75 993.725C1519.84 993.725 1522.94 994.539 1526.03 996.169C1529.29 997.798 1531.98 1000.49 1534.1 1004.23C1536.22 1007.82 1537.27 1012.54 1537.27 1018.41C1537.27 1025.41 1535.65 1032.58 1532.39 1039.91C1529.13 1047.08 1524.89 1053.76 1519.68 1059.95C1514.47 1065.98 1508.68 1070.87 1502.33 1074.61C1496.14 1078.36 1490.11 1080.23 1484.24 1080.23ZM1602.32 1079.75C1598.57 1079.75 1595.23 1078.69 1592.3 1076.57C1589.53 1074.45 1588.14 1070.13 1588.14 1063.62C1588.14 1060.85 1588.3 1058.24 1588.63 1055.8C1589.12 1053.35 1589.69 1050.75 1590.34 1047.98C1588.87 1050.42 1586.84 1053.43 1584.23 1057.02C1581.62 1060.6 1578.69 1064.11 1575.43 1067.53C1572.34 1070.95 1569.08 1073.8 1565.66 1076.08C1562.4 1078.36 1559.3 1079.5 1556.37 1079.5C1552.14 1079.5 1548.71 1077.63 1546.11 1073.88C1543.5 1069.97 1542.2 1064.92 1542.2 1058.73C1542.2 1052.05 1543.75 1044.88 1546.84 1037.22C1549.94 1029.57 1554.17 1022.24 1559.55 1015.23C1564.93 1008.22 1571.12 1002.52 1578.12 998.124C1585.13 993.725 1592.46 991.525 1600.12 991.525C1603.86 991.525 1607.45 992.177 1610.87 993.48C1614.29 994.621 1617.3 996.576 1619.91 999.346C1621.05 1000.49 1621.62 1001.79 1621.62 1003.26C1621.62 1004.23 1621.21 1005.05 1620.4 1005.7C1619.58 1006.35 1618.53 1006.51 1617.22 1006.19C1615.43 1000.49 1611.6 997.635 1605.74 997.635C1602.97 997.635 1599.79 998.531 1596.21 1000.32C1591.81 1002.6 1587.08 1006.27 1582.03 1011.32C1577.14 1016.21 1572.5 1021.83 1568.1 1028.18C1563.87 1034.37 1560.36 1040.65 1557.59 1047C1554.82 1053.35 1553.44 1059.14 1553.44 1064.35C1553.44 1069.73 1555.48 1072.41 1559.55 1072.41C1563.13 1072.41 1566.8 1070.7 1570.55 1067.28C1574.46 1063.86 1578.12 1059.63 1581.54 1054.58C1585.13 1049.36 1588.39 1044.23 1591.32 1039.18C1594.25 1034.13 1596.53 1030.06 1598.16 1026.96C1600.6 1022.56 1602.89 1018.9 1605 1015.96C1607.12 1013.03 1610.14 1011.56 1614.05 1011.56C1615.84 1011.56 1617.63 1011.81 1619.42 1012.3C1621.21 1012.79 1623.09 1012.87 1625.04 1012.54C1620.15 1017.43 1615.84 1023.21 1612.09 1029.89C1608.51 1036.57 1605.74 1043.17 1603.78 1049.69C1601.83 1056.04 1600.85 1061.42 1600.85 1065.82C1600.85 1070.7 1602.48 1073.15 1605.74 1073.15C1608.34 1073.15 1611.11 1071.68 1614.05 1068.75C1617.14 1065.82 1620.07 1062.15 1622.84 1057.75C1625.78 1053.19 1628.46 1048.63 1630.91 1044.07C1633.35 1039.34 1635.31 1035.27 1636.77 1031.85C1637.59 1031.85 1638.24 1031.93 1638.73 1032.09C1639.38 1032.26 1639.7 1032.91 1639.7 1034.05C1639.54 1034.7 1639.22 1035.43 1638.73 1036.25C1638.4 1036.9 1637.83 1038.12 1637.02 1039.91C1635.71 1042.52 1633.92 1046.02 1631.64 1050.42C1629.36 1054.82 1626.67 1059.3 1623.58 1063.86C1620.48 1068.26 1617.14 1072.01 1613.56 1075.1C1609.97 1078.2 1606.23 1079.75 1602.32 1079.75ZM1637.11 1031.11C1638.42 1028.35 1640.13 1023.95 1642.25 1017.92C1644.36 1011.73 1646.56 1004.88 1648.84 997.391C1651.13 989.896 1652.84 982.809 1653.98 976.13C1654.46 973.523 1655.36 971.649 1656.66 970.509C1657.97 969.206 1659.35 968.554 1660.82 968.554C1662.94 968.554 1664.89 969.613 1666.68 971.731C1668.48 973.686 1669.37 976.537 1669.37 980.284C1669.37 984.846 1667.99 988.756 1665.22 992.014C1662.61 995.273 1659.35 998.368 1655.44 1001.3C1657.07 1001.46 1658.78 1001.63 1660.57 1001.79C1662.37 1001.79 1664.32 1001.79 1666.44 1001.79C1674.1 1001.79 1681.67 1001.3 1689.17 1000.32C1689.49 1001.3 1689.66 1002.03 1689.66 1002.52C1689.66 1004.64 1689 1007.33 1687.7 1010.59C1686.56 1013.85 1685.34 1016.78 1684.03 1019.38C1683.38 1020.85 1682.08 1023.54 1680.12 1027.45C1678.17 1031.2 1676.05 1035.51 1673.77 1040.4C1671.49 1045.13 1669.53 1049.85 1667.91 1054.58C1666.44 1059.14 1665.71 1063.05 1665.71 1066.31C1665.71 1070.54 1667.34 1072.66 1670.59 1072.66C1673.69 1072.66 1678.01 1069.07 1683.55 1061.91C1689.09 1054.58 1694.62 1044.56 1700.16 1031.85C1702.12 1031.85 1703.1 1032.58 1703.1 1034.05C1701.3 1038.45 1699.02 1043.25 1696.25 1048.47C1693.65 1053.68 1690.71 1058.65 1687.46 1063.37C1684.2 1067.93 1680.69 1071.76 1676.95 1074.86C1673.2 1077.79 1669.29 1079.26 1665.22 1079.26C1662.12 1079.26 1659.03 1078.04 1655.93 1075.59C1652.84 1072.98 1651.29 1068.83 1651.29 1063.13C1651.29 1058.08 1652.27 1053.19 1654.22 1048.47C1656.18 1043.58 1658.37 1039.02 1660.82 1034.78C1663.26 1030.54 1665.46 1026.8 1667.42 1023.54C1669.37 1020.28 1670.35 1017.67 1670.35 1015.72C1670.35 1012.79 1668.48 1010.67 1664.73 1009.37C1661.14 1008.06 1656.42 1007.33 1650.55 1007.17C1647.62 1014.66 1645.42 1020.2 1643.96 1023.78C1642.49 1027.37 1641.11 1030.79 1639.8 1034.05C1637.2 1034.05 1636.3 1033.07 1637.11 1031.11ZM1753.14 1079.75C1749.4 1079.75 1746.06 1078.69 1743.12 1076.57C1740.35 1074.45 1738.97 1070.13 1738.97 1063.62C1738.97 1060.85 1739.13 1058.24 1739.46 1055.8C1739.95 1053.35 1740.52 1050.75 1741.17 1047.98C1739.7 1050.42 1737.66 1053.43 1735.06 1057.02C1732.45 1060.6 1729.52 1064.11 1726.26 1067.53C1723.17 1070.95 1719.91 1073.8 1716.49 1076.08C1713.23 1078.36 1710.13 1079.5 1707.2 1079.5C1702.96 1079.5 1699.54 1077.63 1696.94 1073.88C1694.33 1069.97 1693.03 1064.92 1693.03 1058.73C1693.03 1052.05 1694.57 1044.88 1697.67 1037.22C1700.76 1029.57 1705 1022.24 1710.38 1015.23C1715.75 1008.22 1721.94 1002.52 1728.95 998.124C1735.95 993.725 1743.29 991.525 1750.94 991.525C1754.69 991.525 1758.27 992.177 1761.7 993.48C1765.12 994.621 1768.13 996.576 1770.74 999.346C1771.88 1000.49 1772.45 1001.79 1772.45 1003.26C1772.45 1004.23 1772.04 1005.05 1771.23 1005.7C1770.41 1006.35 1769.35 1006.51 1768.05 1006.19C1766.26 1000.49 1762.43 997.635 1756.56 997.635C1753.79 997.635 1750.62 998.531 1747.03 1000.32C1742.63 1002.6 1737.91 1006.27 1732.86 1011.32C1727.97 1016.21 1723.33 1021.83 1718.93 1028.18C1714.69 1034.37 1711.19 1040.65 1708.42 1047C1705.65 1053.35 1704.27 1059.14 1704.27 1064.35C1704.27 1069.73 1706.3 1072.41 1710.38 1072.41C1713.96 1072.41 1717.63 1070.7 1721.37 1067.28C1725.28 1063.86 1728.95 1059.63 1732.37 1054.58C1735.95 1049.36 1739.21 1044.23 1742.15 1039.18C1745.08 1034.13 1747.36 1030.06 1748.99 1026.96C1751.43 1022.56 1753.71 1018.9 1755.83 1015.96C1757.95 1013.03 1760.96 1011.56 1764.87 1011.56C1766.66 1011.56 1768.46 1011.81 1770.25 1012.3C1772.04 1012.79 1773.91 1012.87 1775.87 1012.54C1770.98 1017.43 1766.66 1023.21 1762.92 1029.89C1759.33 1036.57 1756.56 1043.17 1754.61 1049.69C1752.65 1056.04 1751.68 1061.42 1751.68 1065.82C1751.68 1070.7 1753.31 1073.15 1756.56 1073.15C1759.17 1073.15 1761.94 1071.68 1764.87 1068.75C1767.97 1065.82 1770.9 1062.15 1773.67 1057.75C1776.6 1053.19 1779.29 1048.63 1781.73 1044.07C1784.18 1039.34 1786.13 1035.27 1787.6 1031.85C1788.41 1031.85 1789.07 1031.93 1789.55 1032.09C1790.21 1032.26 1790.53 1032.91 1790.53 1034.05C1790.37 1034.7 1790.04 1035.43 1789.55 1036.25C1789.23 1036.9 1788.66 1038.12 1787.84 1039.91C1786.54 1042.52 1784.75 1046.02 1782.47 1050.42C1780.19 1054.82 1777.5 1059.3 1774.4 1063.86C1771.31 1068.26 1767.97 1072.01 1764.38 1075.1C1760.8 1078.2 1757.05 1079.75 1753.14 1079.75Z" fill="#DDBF8A"/>
<defs>
<filter id="filter0_f_2627_443" x="-0.00112915" y="-3.05176e-05" width="2790.19" height="1620.11" filterUnits="userSpaceOnUse" color-interpolation-filters="sRGB">
<feFlood flood-opacity="0" result="BackgroundImageFix"/>
<feBlend mode="normal" in="SourceGraphic" in2="BackgroundImageFix" result="shape"/>
<feGaussianBlur stdDeviation="201.506" result="effect1_foregroundBlur_2627_443"/>
</filter>
</defs>
</svg>
